<svg xmlns="http://www.w3.org/2000/svg" width="17" height="17" viewBox="0 0 17 17">
    <g fill="none" fill-rule="evenodd">
        <g fill="#FFF" fill-rule="nonzero">
            <g>
                <g>
                    <g>
                        <g>
                            <g>
                                <path d="M34.833 21.573c-.759 0-1.375.604-1.375 1.348v.625c-2.37.6-4.125 2.706-4.125 5.218v5.393L27.5 35.955v.899h5.747c-.161.273-.247.583-.247.899 0 .993.82 1.798 1.833 1.798s1.834-.805 1.834-1.798c-.001-.316-.087-.626-.25-.9h5.75v-.898l-1.834-1.798v-5.393c0-2.512-1.753-4.618-4.125-5.218v-.625c0-.744-.616-1.348-1.375-1.348zm0 3.596c2.023 0 3.667 1.612 3.667 3.595v6.138l.158.154h-7.649l.158-.154v-6.138c0-1.983 1.644-3.595 3.666-3.595z" transform="translate(-1279 -760) translate(0 141) translate(120 596) translate(1134) rotate(38 34.833 30.562)"/>
                            </g>
                        </g>
                    </g>
                </g>
            </g>
        </g>
    </g>
</svg>
