<svg xmlns="http://www.w3.org/2000/svg" xmlns:xlink="http://www.w3.org/1999/xlink" width="1406" height="644" viewBox="0 0 1406 644">
    <defs>
        <path id="wyuji62bda" d="M0 0H1440V680H0z"/>
    </defs>
    <g fill="none" fill-rule="evenodd" transform="translate(-34 -3)">
        <mask id="48po1imcab" fill="#fff">
            <use xlink:href="#wyuji62bda"/>
        </mask>
        <g mask="url(#48po1imcab)" opacity=".165">
            <g>
                <path fill="#48CBFE" d="M1956.472 169.701c-272.224-208.206-582.725-224.826-931.501-49.86-65.16 32.688-239.173 131.147-381.652 233.579C500.839 455.852 209.686 614.446 0 583.686c84.39 37.583 351.053 86.394 617.091 50.808C883.13 598.908 1362.93 186.284 1633.5 154.058c145.73-17.357 253.388-12.143 322.973 15.643z" transform="translate(34)"/>
                <path fill="#ADADB1" d="M1759.979 177.761c-88.89 3.081-172.649 25.068-251.277 65.96-137.151 71.329-381.253 247.154-511.18 340.741 44.695 8.757 319.59-.406 570.888-187.814 89.754-66.935 153.61-139.897 191.569-218.887z" transform="translate(34)"/>
            </g>
        </g>
    </g>
</svg>
