<svg xmlns="http://www.w3.org/2000/svg" width="25" height="25" viewBox="0 0 25 25">
    <g fill="none" fill-rule="evenodd">
        <g fill="#2F4D60" fill-rule="nonzero">
            <path d="M0 0v23.942h15.8c.041-.105.094-.208.162-.307l.514-.734H1.163V1.04H12.79v6.246h6.976v8.343c.36.434.582.965.582 1.546v.176l.581-.832V6.55L13.613 0H0zm13.953 1.777l4.992 4.469h-4.992v-4.47zM4.07 9.369c-.21-.003-.405.095-.51.258-.106.162-.106.362 0 .524.105.163.3.261.51.258h12.79c.21.003.405-.095.51-.258.107-.162.107-.362 0-.524-.105-.163-.3-.261-.51-.258H4.07zm0 3.122c-.21-.002-.405.096-.51.258-.106.163-.106.363 0 .525.105.162.3.261.51.258h12.79c.21.003.405-.096.51-.258.107-.162.107-.362 0-.525-.105-.162-.3-.26-.51-.258H4.07zm19.157 3.117c-.191.01-.365.104-.464.251l-5.814 8.328c-.12.158-.134.361-.036.531.098.17.291.278.504.282.213.004.412-.097.518-.262l5.814-8.328c.112-.157.123-.355.027-.521-.095-.166-.283-.273-.49-.28-.02-.002-.04-.002-.059 0zm-19.157.006c-.21-.002-.405.096-.51.258-.106.162-.106.363 0 .525.105.162.3.26.51.258h9.302c.21.003.405-.096.51-.258.106-.162.106-.363 0-.525-.105-.162-.3-.26-.51-.258H4.07zm13.372 0c-.957 0-1.744.705-1.744 1.562v1.561h.242c.257.576.771 1.041 1.502 1.041.956 0 1.744-.705 1.744-1.561v-1.041c0-.857-.788-1.562-1.744-1.562zm0 1.041c.328 0 .581.227.581.52v1.042c0 .294-.253.52-.581.52-.329 0-.582-.226-.582-.52v-1.041c0-.294.253-.52.582-.52zM4.07 18.737c-.21-.003-.405.096-.51.258-.106.162-.106.363 0 .525.105.162.3.26.51.258h9.302c.21.003.405-.096.51-.258.106-.162.106-.363 0-.525-.105-.162-.3-.26-.51-.258H4.07zm19.186 2.082c-.957 0-1.744.705-1.744 1.561v1.561h.241c.258.577.772 1.042 1.503 1.042.956 0 1.744-.706 1.744-1.562v-1.04c0-.857-.788-1.562-1.744-1.562zm0 1.04c.328 0 .581.227.581.521v1.041c0 .294-.253.52-.581.52-.329 0-.582-.226-.582-.52v-1.04c0-.295.253-.521.582-.521z"/>
        </g>
    </g>
</svg>
