<svg xmlns="http://www.w3.org/2000/svg" width="38" height="38" viewBox="0 0 38 38">
    <g fill="none" fill-rule="evenodd">
        <g fill="#2F4D60" fill-rule="nonzero">
            <g>
                <g>
                    <path d="M57.588 31c-.419.008-.754.4-.748.875 0 .767-.141 1.16-.335 1.474-.195.313-.487.565-.866.872-.378.306-.845.666-1.222 1.261-.376.596-.617 1.41-.617 2.437-.004.311.14.6.377.758.237.157.53.157.766 0 .237-.157.38-.447.377-.758 0-.747.14-1.123.333-1.428.193-.306.486-.555.868-.864.381-.309.849-.678 1.224-1.283.376-.605.615-1.427.615-2.469.003-.233-.078-.458-.223-.623-.145-.165-.343-.256-.549-.252zm3.04 2.59c-.419.008-.754.4-.748.875 0 .454-.083.662-.21.862-.129.2-.34.393-.623.632-.283.24-.638.522-.94.98-.3.458-.507 1.096-.507 1.843-.004.312.14.601.377.758.237.157.53.157.766 0 .237-.157.38-.446.377-.758 0-.43.078-.617.205-.81.126-.192.34-.386.628-.628.287-.242.646-.534.945-1.004.3-.469.502-1.114.502-1.875.003-.233-.078-.458-.223-.623-.145-.164-.343-.255-.549-.252zM50 41.372c-.42 0-.76.387-.76.864v4c-.439-.309-.927-.527-1.477-.537-.618-.997-1.551-1.737-2.703-1.737-1.286 0-2.396.824-2.98 2.026-.37-.184-.772-.299-1.2-.299-.567 0-1.069.226-1.52.533-.451-.307-.953-.533-1.52-.533-1.447 0-2.61 1.191-2.91 2.737-1.109.278-1.964 1.205-2.256 2.443h-.914c-.42 0-.76.387-.76.864v2.51c0 3.494 1.666 6.53 3.822 8.713H31.76c-.252 0-.488.143-.629.38-.141.237-.17.538-.076.804l.864 2.457c.51 1.45 1.75 2.403 3.124 2.403h29.914c1.374 0 2.614-.955 3.124-2.403l.864-2.457c.094-.266.065-.567-.076-.804-.141-.237-.377-.38-.629-.38h-4.683c.492-1.04.796-2.247.862-3.544.841-.2 1.565-.727 2.118-1.425.71-.896 1.193-2.052 1.55-3.295.714-2.485.913-5.343.913-7.276 0-1.42-1.03-2.59-2.28-2.59h-2.28v-2.59c0-.477-.34-.864-.76-.864H50zm.76 1.727h12.16v15.396c-.014.093-.014.188 0 .281v.101c0 1.628-.5 3.041-1.22 4.08h-9.715c-.543-.779-.961-1.768-1.136-2.9-.058-.379-.089-.773-.089-1.18V43.1zm-5.7 2.59c.768 0 1.417.515 1.719 1.255.137.335.447.535.77.495.127-.015.178-.023.171-.023.432 0 .811.201 1.09.53.115.135.266.224.43.252v2.671H34.352c.266-.487.659-.863 1.208-.863.42 0 .76-.387.76-.863 0-.965.671-1.727 1.52-1.727.39 0 .734.167 1.01.45.29.297.73.297 1.02 0 .276-.283.62-.45 1.01-.45.408 0 .77.181 1.046.48.202.218.491.294.756.198.265-.096.462-.348.515-.658.17-.995.93-1.747 1.863-1.747zm19.38.863h2.28c.43 0 .76.376.76.864 0 1.79-.208 4.544-.839 6.74-.315 1.098-.737 2.05-1.233 2.676-.3.379-.614.63-.968.78v-11.06zm-31.92 6.044H49.24v6.281c0 .208.009.41.024.61.074 1.27.377 2.45.86 3.47H37.287c-2.565-1.9-4.768-5.157-4.768-8.713v-1.648zm.362 12.087h34.235l-.447 1.272c-.282.798-.957 1.318-1.713 1.318H35.043c-.756 0-1.432-.52-1.713-1.317v-.001l-.448-1.272z" transform="translate(-1068 -2640) translate(0 2260) translate(1037 349)"/>
                </g>
            </g>
        </g>
    </g>
</svg>
