<svg xmlns="http://www.w3.org/2000/svg" width="125" height="125" viewBox="0 0 125 125">
    <defs>
        <radialGradient id="iuz6iwcsea" cx="50.003%" cy="-86.976%" r="259.048%" fx="50.003%" fy="-86.976%">
            <stop offset="0%" stop-color="#547F9B"/>
            <stop offset="100%" stop-color="#304E60"/>
        </radialGradient>
    </defs>
    <g fill="none" fill-rule="evenodd">
        <g fill="url(#iuz6iwcsea)" fill-rule="nonzero" transform="translate(-759 -1683)">
            <g>
                <path d="M677.507 182.122c34.45 0 62.378 27.929 62.378 62.378 0 34.45-27.928 62.378-62.378 62.378-34.449 0-62.378-27.929-62.378-62.378 0-34.45 27.929-62.378 62.378-62.378zm-.005 2.923l-.79.004c-7.68.087-15.274 1.672-22.353 4.668-30.256 12.782-44.42 47.672-31.638 77.927 12.782 30.256 47.671 44.421 77.927 31.64 26.042-11.025 40.719-38.862 35.103-66.578-5.616-27.715-29.972-47.643-58.251-47.66l.002-.001zm-34.261 96.804c17.24 15.81 43.059 17.773 62.49 4.749.111-.066.255-.033.327.074.071.108.047.253-.057.33-8.424 5.666-18.349 8.684-28.501 8.668-12.81.014-25.157-4.791-34.588-13.46-.1-.091-.107-.246-.016-.345.09-.1.245-.107.345-.016zM677.5 193.33c28.214 0 51.17 22.956 51.17 51.17.01 15.063-6.627 29.362-18.136 39.079-.045.038-.1.058-.159.058-.101 0-.192-.064-.226-.16-.035-.095-.007-.202.07-.268 11.4-9.626 17.972-23.79 17.963-38.709 0-27.946-22.736-50.682-50.682-50.682s-50.682 22.736-50.682 50.682c-.016 9.983 2.93 19.745 8.465 28.053.073.109.048.257-.059.334-.054.036-.12.049-.183.036-.064-.013-.12-.05-.156-.104-5.59-8.386-8.567-18.241-8.555-28.319 0-28.214 22.956-51.17 51.17-51.17zm-39.652 82.759c.222.28.449.555.678.83.901 1.085 1.859 2.142 2.848 3.146.07.07.089.175.05.266-.038.09-.127.15-.225.149v-.01c-.065 0-.127-.025-.173-.07-.997-1.015-1.964-2.084-2.875-3.169-.231-.277-.459-.557-.683-.838-.057-.067-.074-.16-.042-.244.031-.083.105-.143.193-.155.088-.013.176.024.23.095zm20.288-53.092c.368-1.136 1.5-1.842 2.681-1.673 1.182.169 2.07 1.164 2.106 2.357.035 1.193-.793 2.238-1.963 2.476-1.17.239-2.34-.4-2.775-1.51-1.06.285-1.798 1.243-1.803 2.34v10.569h2.436v1.705c.067 2.82 1.956 5.27 4.666 6.05 1.454.46 3.014.46 4.467 0 2.716-.78 4.61-3.234 4.676-6.06v-1.705h1.62l-.036-10.565c-.008-1.08-.725-2.026-1.762-2.325-.44 1.099-1.606 1.722-2.764 1.478-1.158-.243-1.973-1.284-1.933-2.466.04-1.183.924-2.166 2.095-2.33 1.172-.166 2.293.535 2.658 1.661 1.925.354 3.324 2.03 3.33 3.986l.035 10.57h1.625v1.684c0 5.076-3.72 9.552-8.935 10.885v2.042c0 2.395-1.257 3.25-2.437 3.25v1.39c0 5.109 3.826 9.27 8.529 9.27 4.702 0 8.528-4.154 8.528-9.27v-16.017c.117-3.952 3.211-7.169 6.908-7.169 3.808 0 6.905 3.317 6.905 7.39v1.477c2.495.36 4.455 2.32 4.815 4.815.433 3.106-1.731 5.977-4.837 6.414-3.106.438-5.979-1.722-6.421-4.827-.442-3.105 1.714-5.982 4.818-6.428v-1.462c0-3.18-2.368-5.768-5.28-5.768-2.827 0-5.198 2.522-5.278 5.604v15.97c0 6.002-4.557 10.894-10.154 10.894-5.597 0-10.15-4.885-10.15-10.894v-1.38c-1.18 0-2.437-.854-2.437-3.25v-2.041c-5.212-1.33-8.935-5.807-8.935-10.887v-1.691h1.625v-10.568c.005-1.975 1.43-3.66 3.377-3.991zm8.796 27.446l-.195.017-.243.024c-.38.035-.768.056-1.158.056h-.041c-.39 0-.777-.021-1.162-.056l-.244-.024-.197-.017v1.723c0 .487.082 1.625.813 1.625l1.616.01c.73 0 .811-1.138.811-1.626v-1.732zm30.806-6.091c-1.518-.63-3.265-.283-4.428.879-1.162 1.161-1.51 2.909-.881 4.427.628 1.518 2.11 2.508 3.753 2.508l-.003.01c1.08 0 2.115-.428 2.877-1.191.763-.764 1.19-1.8 1.188-2.879 0-1.643-.988-3.125-2.506-3.754zm-21.863-5.183h-1.623v.092c-.061 3.53-2.408 6.61-5.794 7.607-1.775.564-3.681.564-5.456 0-3.392-.99-5.746-4.073-5.807-7.607v-.09h-2.436v.066c0 4.517 3.482 8.494 8.284 9.452.37.075.745.131 1.121.168 1.144.115 2.299.058 3.426-.168 4.803-.96 8.285-4.937 8.285-9.455v-.065zm-15.432-16.243c-.444.011-.806.37-.81.814 0 .33.198.626.502.752s.655.056.887-.178c.233-.233.302-.583.175-.887-.127-.304-.424-.502-.754-.501zm10.057.06c-.304-.127-.655-.057-.888.176-.233.233-.302.584-.176.888.127.304.424.502.754.501.215 0 .422-.085.574-.237.152-.153.237-.359.237-.574.001-.33-.196-.627-.5-.754z" transform="translate(144 1501)"/>
            </g>
        </g>
    </g>
</svg>
