<svg xmlns="http://www.w3.org/2000/svg" width="13" height="13" viewBox="0 0 13 13">
    <g fill="none" fill-opacity=".85" fill-rule="evenodd">
        <g fill="#000" fill-rule="nonzero">
            <g>
                <g>
                    <g>
                        <g>
                            <path d="M79.5 2C75.913 2 73 4.913 73 8.5s2.913 6.5 6.5 6.5S86 12.087 86 8.5 83.087 2 79.5 2zm0 .565c3.28 0 5.935 2.654 5.935 5.935 0 3.28-2.654 5.935-5.935 5.935-3.28 0-5.935-2.654-5.935-5.935 0-3.28 2.654-5.935 5.935-5.935zm-.874 2.817l-.036.01c-.106.018-.19.095-.22.198-.03.104 0 .214.079.287L81.072 8.5l-2.623 2.623c-.113.113-.113.294 0 .406.113.113.294.113.406 0l2.826-2.826c.056-.053.086-.127.086-.203 0-.076-.03-.15-.086-.203L78.855 5.47c-.058-.063-.143-.095-.23-.089z" transform="translate(-120 -1297) translate(0 141) translate(120 1149) matrix(-1 0 0 1 1200 0) translate(1114 5)"/>
                        </g>
                    </g>
                </g>
            </g>
        </g>
    </g>
</svg>
