<svg xmlns="http://www.w3.org/2000/svg" width="13" height="13" viewBox="0 0 13 13">
    <path fill-opacity=".85" d="M6.5 0C2.913 0 0 2.913 0 6.5S2.913 13 6.5 13 13 10.087 13 6.5 10.087 0 6.5 0zm0 .565c3.28 0 5.935 2.654 5.935 5.935 0 3.28-2.654 5.935-5.935 5.935C3.22 12.435.565 9.78.565 6.5.565 3.22 3.22.565 6.5.565zm-.874 2.817l-.036.01c-.106.018-.19.095-.22.198-.03.104 0 .214.079.287L8.072 6.5 5.449 9.123c-.113.113-.113.294 0 .406.113.113.294.113.406 0l2.826-2.826c.056-.053.086-.127.086-.203 0-.076-.03-.15-.086-.203L5.855 3.47c-.058-.063-.143-.095-.23-.089z"/>
</svg>
