<svg xmlns="http://www.w3.org/2000/svg" width="17" height="17" viewBox="0 0 17 17">
    <path fill="#FFF" d="M15.367.479C14.77.01 13.912.108 13.454.695l-.385.492C10.831.199 8.153.779 6.606 2.759l-3.32 4.25-2.552.288-.553.708 4.529 3.538c-.296.116-.554.308-.749.557-.61.782-.46 1.922.338 2.545s1.94.494 2.552-.288c.193-.25.317-.547.357-.861l4.53 3.539.554-.708-.338-2.546 3.32-4.25c1.547-1.98 1.462-4.719-.038-6.65l.385-.493c.458-.587.344-1.442-.254-1.91zm-2.213 2.833c1.593 1.245 1.896 3.528.676 5.09l-3.32 4.25-.46.587.03.219-6.027-4.709.22-.025.457-.586 3.32-4.25c1.222-1.563 3.51-1.821 5.104-.576z"/>
</svg>
