<svg xmlns="http://www.w3.org/2000/svg" width="15" height="15" viewBox="0 0 15 15">
    <g fill="none">
        <circle cx="7.5" cy="7.5" r="7.112" fill="#38B3FF"/>
        <path fill="#85D0FF" d="M7.5 15C3.362 15 0 11.638 0 7.5S3.362 0 7.5 0 15 3.362 15 7.5 11.638 15 7.5 15zM7.5.776C3.789.776.776 3.789.776 7.5c0 3.711 3.013 6.724 6.724 6.724 3.711 0 6.724-3.013 6.724-6.724 0-3.711-3.013-6.724-6.724-6.724z"/>
        <path fill="#FFF" d="M7.059 10.72c-.152 0-.304-.076-.418-.19L4.152 7.87c-.209-.227-.209-.588.038-.797.228-.209.59-.209.798.038l2.07 2.204 3.97-4.142c.21-.228.57-.228.799-.019.228.21.228.57.019.798l-4.37 4.597c-.113.114-.265.171-.417.171z"/>
    </g>
</svg>
