<svg xmlns="http://www.w3.org/2000/svg" width="20" height="17" viewBox="0 0 20 17">
    <path fill="#FF5252" d="M.842 0C.378 0 0 .378 0 .842c0 .464.378.842.842.842h1.869l2.21 8.842c.188.75.859 1.263 1.632 1.263h9.658c.76 0 1.404-.503 1.605-1.236L20 2.526H5.895l.42 1.685h11.5l-1.604 5.894H6.553l-2.21-8.842C4.154.513 3.482 0 2.71 0H.842zm14.316 11.79c-1.385 0-2.526 1.14-2.526 2.526 0 1.385 1.141 2.526 2.526 2.526 1.385 0 2.526-1.141 2.526-2.526 0-1.385-1.141-2.527-2.526-2.527zm-7.58 0c-1.384 0-2.525 1.14-2.525 2.526 0 1.385 1.141 2.526 2.526 2.526 1.385 0 2.526-1.141 2.526-2.526 0-1.385-1.141-2.527-2.526-2.527zm0 1.684c.475 0 .843.368.843.842 0 .473-.368.842-.842.842s-.842-.369-.842-.842c0-.474.368-.842.842-.842zm7.58 0c.474 0 .842.368.842.842 0 .473-.368.842-.842.842s-.842-.369-.842-.842c0-.474.368-.842.842-.842z"/>
</svg>
