<svg xmlns="http://www.w3.org/2000/svg" width="16" height="16" viewBox="0 0 16 16">
    <path fill="#C8C8C8" d="M.777 4.616c-.488.488-.488 1.28 0 1.768L3.43 9.036c.376.374.947.47 1.425.24.127-.06.243-.141.343-.24l.01-.01 6.177-4.41-4.41 6.179-.01.008c-.099.1-.18.217-.241.344-.23.478-.133 1.049.241 1.424l2.652 2.652c.488.488 1.28.488 1.768 0 .153-.154.264-.346.321-.556v-.001L15.942.873V.871c.093-.232.039-.497-.138-.674-.177-.178-.444-.233-.676-.138L1.334 4.294c-.21.057-.402.168-.557.322z"/>
</svg>
