<svg xmlns="http://www.w3.org/2000/svg" width="20" height="20" viewBox="0 0 20 20">
    <path fill="#FFF" d="M0 0l10.778 10.791 6.425-6.432L12.899 0h-1.123l2.32 2.323c.4.4.275.79.076 1.349-.08.24-.163.446-.163.687 0 .24.117.52.237.8.2.44.322.802.163.96l-2.433 2.436c-.08.08-.365-.045-.524-.124-.2-.08-.4-.163-.599-.163-.159 0-.312.084-.511.125-.4.16-.6.2-.799 0L2.395 1.236c-.24-.24-.159-.4 0-.799.04-.16.075-.278.075-.437h-.798c0 .04-.038.083-.038.162-.04.041-.072.158-.112.238l-.4-.4H0zm6.262 0c-1.277 1.399-1.347 3.435-.15 4.634.559.559 1.314.846 2.072.886.957 0 1.875-.404 2.594-1.124 1.277-1.278 1.48-3.117.562-4.396h-1.123c.12.04.207.12.287.2.918.92.828 2.518-.25 3.597-.558.559-1.314.874-2.033.874-.599 0-1.16-.237-1.56-.637-.918-.92-.827-2.518.25-3.597.2-.16.4-.317.599-.437H6.262zM2.121 3.322l4.665 7.47 1.722-1.075L7.06 8.268c-.08 0-.158.01-.237.05-.44.08-.64.08-.799-.2L4.591 5.833l-2.47-2.51zm12.974.038l.998.999-.96.962c-.08-.2-.16-.366-.2-.525-.08-.16-.163-.397-.163-.437 0-.04.085-.242.125-.362.08-.16.16-.397.2-.637zM11.95 4.559c-.329 0-.658.122-.898.362s-.35.554-.35.874c.041.36.16.684.4.924.24.24.553.35.873.35.32 0 .633-.11.873-.35.479-.479.479-1.278 0-1.798-.24-.24-.569-.362-.898-.362zm.025.8c.12 0 .245.032.324.111.2.2.2.488 0 .687-.159.16-.486.16-.686 0-.08-.08-.112-.204-.112-.324.04-.16.07-.283.15-.363.08-.08.204-.112.324-.112zM7.186 9.03c.04 0 .157.122.237.162.04.041.121.085.162.125l-.562.313-.311-.513c.12 0 .194-.05.274-.05.08 0 .2-.037.2-.037zm3.555 0c.04 0 .195.084.274.125.04.04.12.034.2.075l-.437.437-.474-.475c.08-.04.197-.075.237-.075.08-.04.16-.087.2-.087zm-5.003 2.148c-.285.022-.584.119-.798.375-.073.089-.101.2-.137.312-.5-.221-1.012-.342-1.447-.262h-.013c-.338.078-.64.28-.773.574-.036.079.003.17-.013.25-.44-.189-.851-.309-1.185-.3-.472.013-.839.23-1.048.5-.273.354-.333.828-.162 1.224.169.392.502.73.948 1.05.002 0 .011.01.013.012.17.13.561.396 1.122.774.568.383 1.287.859 2.009 1.336 1.444.956 2.893 1.911 3.28 2.149h.013c.385.22.817.566 1.422.737.606.17 1.356.124 2.296-.325h.012c.579-.29 2.848-1.486 3.606-1.886.354-.186.544-.244.686-.237.142.006.296.076.574.262l1.085.712c.117.1.282.125.422.06.142-.063.234-.202.236-.357.003-.154-.083-.296-.221-.365l-1.073-.725c-.322-.213-.629-.373-.986-.387-.357-.014-.694.111-1.098.325-.754.398-3.03 1.597-3.58 1.873-.816.39-1.324.394-1.746.275-.423-.118-.783-.403-1.235-.662v.013c-.331-.203-1.816-1.17-3.256-2.124-.72-.476-1.43-.955-1.996-1.336-.566-.38-1.005-.677-1.098-.75l-.013-.012c-.385-.275-.608-.542-.686-.724-.078-.183-.064-.26.063-.425.07-.087.176-.18.436-.187.231-.006.602.084 1.098.337.031.04.069.073.112.1l3.643 2.435c.03.025.064.047.1.063.08.086.162.164.262.225.372.223.83.3 1.372.3h2.32c1.176 0 2.583-.413 2.583-.413.213-.062.336-.285.274-.5-.062-.213-.285-.337-.499-.274 0 0-1.378.387-2.358.387h-2.32c-.457 0-.797-.081-.973-.187-.176-.106-.225-.19-.225-.412 0-.203.052-.29.225-.4.173-.11.5-.2.973-.2.546 0 1.25-.122 1.909-.287.007-.002.017.001.025 0 .1.012.204-.014.286-.075.526-.144.98-.312 1.285-.487.008-.003.018-.008.025-.013.899-.562.832-1.536 3.094-1.536 1.018 0 1.307.198 1.934.45.996.384 2.881 1.311 2.881 1.311.2.097.44.013.537-.187.097-.2.012-.44-.187-.537 0 0-1.865-.909-2.944-1.324-.571-.228-1.084-.512-2.22-.512-2.513 0-3.127 1.397-3.506 1.648l-.013.013c-.165.092-.595.248-1.085.387-.248-.16-2.026-1.311-2.67-1.674-.432-.24-1.026-.432-1.597-.387zm.063.8c.316-.025.86.128 1.148.287v-.013c.386.217 1.28.792 1.97 1.237-.36.062-.693.1-.935.1-.203 0-.385.01-.561.037L5.539 12.34c-.04-.2-.01-.248.012-.275.024-.028.09-.075.25-.087zm-2.296.4h.013c.239-.04.714.046 1.173.287.03.071.084.132.15.174l1.67 1.137c-.238.178-.415.425-.486.712l-2.732-1.824c-.03-.18-.021-.302 0-.35.024-.05.052-.098.212-.137z"/>
</svg>
