<svg xmlns="http://www.w3.org/2000/svg" width="25" height="25" viewBox="0 0 25 25">
    <path fill="#FFF" d="M12.5 0C5.603 0 0 5.612 0 12.52c0 6.27 4.618 11.46 10.632 12.366l.653.098V15.12H8.332v-2.003h2.953v-2.66c0-1.638.392-2.717 1.042-3.393.65-.677 1.61-1.019 2.945-1.019 1.068 0 1.484.065 1.879.114v1.64h-1.39c-.79 0-1.437.44-1.773 1.027-.336.588-.44 1.289-.44 2.003v2.287h3.479l-.31 2.003h-3.17V25l.645-.088C20.292 24.084 25 18.852 25 12.52 25 5.612 19.397 0 12.5 0zm0 1.138c6.283 0 11.364 5.09 11.364 11.382 0 5.537-3.957 10.091-9.18 11.116v-7.38h3.007l.66-4.28h-3.667v-1.148c0-.59.108-1.12.29-1.437.181-.318.357-.456.786-.456h2.527V5.127l-.492-.066c-.341-.046-1.12-.155-2.523-.155-1.536 0-2.854.42-3.764 1.367-.91.948-1.36 2.36-1.36 4.183v1.522H7.195v4.279h2.953V23.6C5.01 22.51 1.136 17.997 1.136 12.52c0-6.293 5.081-11.382 11.364-11.382z"/>
</svg>
