<svg xmlns="http://www.w3.org/2000/svg" width="15" height="15" viewBox="0 0 15 15">
    <path fill="#38B3FF" d="M7.5 0C3.362 0 0 3.367 0 7.512c0 3.763 2.77 6.876 6.38 7.42l.39.059V9.07H5V7.87h1.77V6.274c0-.983.236-1.63.626-2.036.39-.407.966-.611 1.767-.611.641 0 .89.039 1.128.068v.983h-.835c-.473 0-.862.265-1.063.617-.202.353-.264.773-.264 1.202v1.372h2.087L10.03 9.07H8.13V15l.386-.053C12.175 14.45 15 11.311 15 7.512 15 3.367 11.638 0 7.5 0zm0 .683c3.77 0 6.818 3.053 6.818 6.829 0 3.322-2.374 6.055-5.508 6.67V9.753h1.805l.396-2.567h-2.2v-.689c0-.354.064-.672.173-.862.11-.191.214-.274.472-.274h1.516V3.076l-.295-.04c-.205-.027-.672-.092-1.514-.092-.921 0-1.712.251-2.258.82s-.816 1.416-.816 2.51v.913H4.317v2.567H6.09v4.406C3.006 13.506.682 10.798.682 7.512.682 3.736 3.73.682 7.5.682z"/>
</svg>
