<svg xmlns="http://www.w3.org/2000/svg" width="40" height="41" viewBox="0 0 40 41">
    <path fill="#2F4D60" d="M28.36.007c-.305.029-.606.153-.856.373-.497.433-.653 1.104-.397 1.71 1.157 2.741 1.686 5.658 1.578 8.67-.395 10.588-9.002 19.18-19.594 19.558-2.437.088-4.824-.253-7.112-1.01-.624-.203-1.283.006-1.678.536-.394.533-.403 1.227-.017 1.772 4.136 5.864 10.738 9.264 17.86 9.264.44 0 .888-.015 1.333-.039 10.824-.644 19.616-9.272 20.455-20.073C40.583 12.37 36.5 4.496 29.27.216c-.288-.168-.603-.239-.91-.21zm.14 1.504c6.731 3.985 10.538 11.321 9.931 19.14-.783 10.055-8.97 18.086-19.046 18.686-7.08.421-13.779-2.79-17.877-8.595 2.455.81 5.028 1.171 7.633 1.083 11.38-.406 20.624-9.635 21.048-21.01.118-3.231-.45-6.366-1.69-9.304zM7.433 3.2c-.265 0-.53.12-.662.364L5.229 6.388c-.277.507-.692.922-1.198 1.199L1.208 9.132c-.244.13-.394.383-.394.66 0 .276.15.53.394.662l2.82 1.542c.51.28.924.692 1.201 1.201l1.543 2.826c.132.239.388.389.662.389s.53-.15.66-.389l1.548-2.826c.276-.51.692-.921 1.198-1.2l2.823-1.543c.244-.133.394-.389.394-.663 0-.273-.15-.53-.394-.659L10.84 7.587c-.51-.277-.922-.692-1.198-1.199L8.093 3.565c-.13-.244-.394-.365-.659-.365zm0 2.295l.883 1.614c.418.762 1.04 1.383 1.799 1.798l1.616.883-1.616.883c-.76.416-1.38 1.037-1.799 1.796l-.883 1.62-.883-1.62c-.415-.76-1.036-1.38-1.796-1.796l-1.619-.883 1.62-.883c.759-.415 1.38-1.036 1.795-1.798l.883-1.614zm27.032 6.774c-.097-.003-.197.012-.294.047-.392.144-.595.577-.45.966.196.541.367 1.095.503 1.651.085.344.391.574.733.574.058 0 .117-.006.18-.02.402-.1.65-.507.55-.913-.15-.61-.336-1.219-.55-1.81-.107-.292-.378-.48-.672-.495zm-15.728.756c-.265 0-.53.121-.663.363l-.947 1.736c-.145.262-.36.477-.622.621l-1.736.948c-.242.133-.392.386-.392.663 0 .273.15.53.392.659l1.736.95c.262.145.477.36.622.622l.947 1.737c.133.241.389.391.663.391s.53-.15.66-.391l.953-1.737c.141-.262.356-.477.621-.621l1.734-.951c.244-.13.394-.386.394-.66 0-.273-.15-.53-.394-.662l-1.734-.948c-.265-.144-.48-.359-.624-.62l-.95-1.737c-.13-.242-.395-.363-.66-.363zm0 2.294l.288.527c.283.518.704.939 1.219 1.221l.527.289-.527.291c-.515.283-.936.704-1.216 1.216l-.291.53-.289-.53c-.282-.515-.703-.933-1.221-1.216l-.527-.291.527-.289c.518-.282.939-.703 1.221-1.221l.289-.527zm16.646 1.928c-.415.014-.736.368-.718.783.12 2.893-.547 5.758-1.93 8.286-.201.365-.066.824.296 1.022.115.064.242.094.362.094.268 0 .524-.141.663-.392 1.516-2.77 2.246-5.908 2.113-9.075-.017-.415-.365-.727-.786-.718zM24.646 32.134c-.097.012-.194.044-.283.094-.362.21-.483.671-.274 1.033l.754 1.304c.138.242.392.377.65.377.13 0 .26-.032.377-.103.362-.206.483-.668.274-1.027l-.753-1.304c-.156-.271-.454-.41-.745-.374zm-11.16 1.469c-.291.041-.544.25-.627.553l-.388 1.457c-.11.4.132.813.532.922.065.017.13.026.198.026.33 0 .636-.223.727-.559l.391-1.457c.106-.4-.132-.816-.532-.921-.104-.03-.204-.033-.3-.021zm7.816 0c-.097-.012-.2-.009-.303.02-.4.106-.64.522-.533.922l.391 1.457c.092.336.395.56.727.56.068 0 .133-.01.198-.027.4-.11.641-.521.532-.922l-.388-1.457c-.083-.303-.336-.512-.624-.553zm-3.91.494c-.417 0-.753.339-.753.754v1.507c0 .415.336.754.754.754s.753-.339.753-.754v-1.507c0-.415-.335-.754-.753-.754z"/>
</svg>
