<svg xmlns="http://www.w3.org/2000/svg" width="20" height="20" viewBox="0 0 20 20">
    <path fill="#38B3FF" d="M10 0c5.515 0 10 4.485 10 10 0 5.248-4.098 9.63-9.328 9.978h-.024c-.18 0-.331-.14-.342-.321-.014-.19.13-.355.319-.368 4.87-.322 8.685-4.403 8.685-9.289 0-5.133-4.177-9.31-9.31-9.31-1.044 0-2.068.17-3.044.509-.18.062-.376-.034-.438-.213-.063-.18.032-.377.212-.44C7.78.186 8.88 0 10 0zm-.901 18.574c.19.02.327.19.307.378l-.073.686c-.019.177-.168.308-.342.308h-.036c-.19-.02-.328-.19-.307-.38l.071-.685c.02-.19.187-.326.38-.307zm-1.9-.391c.045-.004.09.001.137.016.18.058.28.253.222.434l-.214.656c-.047.145-.182.238-.328.238-.035 0-.071-.005-.107-.017-.18-.058-.28-.254-.221-.434l.214-.656c.043-.136.163-.225.298-.237zm-1.639-.761c.045.005.088.02.13.044.165.095.22.306.125.47l-.345.598c-.063.11-.18.173-.298.173-.059 0-.118-.016-.172-.047-.164-.096-.22-.306-.125-.47l.345-.598c.07-.124.206-.186.34-.17zm-1.578-1.103c.089-.004.179.024.249.087.141.128.153.346.025.487l-.46.513c-.069.075-.162.114-.256.114-.082 0-.166-.03-.232-.089-.14-.128-.152-.346-.025-.486l.462-.513c.063-.07.15-.11.237-.113zm-1.248-1.394l.066.005c.088.013.17.06.227.136.111.155.076.37-.077.484l-.558.404c-.062.045-.132.066-.202.066-.108 0-.213-.049-.28-.142-.112-.153-.078-.37.075-.482l.558-.405c.078-.057.17-.076.257-.061zM13.667 4.667c.92 0 1.666.745 1.666 1.666 0 .922-.745 1.667-1.666 1.667-.502 0-.944-.223-1.25-.573l-3.79 1.901c.023.11.04.223.04.339 0 .115-.017.23-.04.338l3.79 1.901c.306-.35.748-.573 1.25-.573.92 0 1.666.746 1.666 1.667s-.745 1.667-1.666 1.667C12.745 14.667 12 13.92 12 13c0-.116.016-.23.04-.339l-3.79-1.9c-.306.35-.749.572-1.25.572-.921 0-1.667-.745-1.667-1.666C5.333 8.745 6.08 8 7 8c.501 0 .944.223 1.25.573l3.79-1.901c-.024-.11-.04-.223-.04-.339 0-.92.745-1.666 1.667-1.666zM1.804 13.3c.134-.002.262.075.322.205.076.174-.002.379-.176.455l-.63.28c-.046.02-.093.032-.14.032-.132 0-.259-.077-.315-.205-.077-.175.001-.379.175-.457l.63-.28c.043-.019.09-.028.134-.03zm-.576-1.782l.068.006c.13.025.242.128.272.268.039.186-.08.369-.267.408l-.675.143c-.024.005-.047.008-.071.008-.159 0-.302-.11-.337-.272-.039-.187.08-.37.266-.41l.674-.144c.046-.01.093-.01.138-.001zm-.194-1.864c.19 0 .345.155.345.345 0 .19-.155.345-.345.345h-.69C.155 10.345 0 10.19 0 10c0-.19.155-.345.345-.345zM.558 7.648l.07.008.673.143c.187.04.306.222.267.408-.035.163-.178.274-.337.274-.024 0-.048-.003-.073-.007L.485 8.33c-.187-.04-.306-.223-.267-.408.03-.14.14-.243.272-.268.045-.009.09-.009.138.002zm.627-1.92c.046 0 .09.01.135.03l.63.28c.174.077.252.28.174.454-.056.13-.183.207-.315.207-.047 0-.094-.01-.139-.03l-.63-.28C.865 6.31.788 6.107.865 5.932c.058-.13.187-.206.32-.205zm.95-1.744c.088-.013.18.006.257.062l.558.404c.153.114.188.33.077.484-.069.092-.174.141-.28.141-.07 0-.142-.021-.203-.066l-.559-.405c-.153-.112-.187-.329-.075-.482.057-.077.137-.124.225-.138zm1.422-1.503c.088.004.175.042.239.113l.46.513c.128.14.118.359-.025.487-.065.059-.148.087-.23.087-.095 0-.189-.037-.256-.113l-.462-.513c-.127-.14-.116-.358.025-.486.072-.064.162-.093.25-.088zm9.084.066c.045-.001.09.006.135.022.27.1.536.217.794.346.17.086.238.294.153.463-.062.121-.183.19-.308.19-.053 0-.107-.012-.157-.038-.234-.118-.478-.223-.723-.315-.178-.067-.268-.265-.202-.444.05-.134.174-.218.308-.224zM9.824 2.07h.36c.357.008.718.04 1.077.099.187.03.315.207.285.396-.03.187-.206.316-.394.285-1.308-.21-2.647-.06-3.869.437-.043.016-.086.024-.13.024-.137 0-.265-.08-.32-.216-.07-.176.014-.378.192-.45 1.003-.405 2.08-.6 3.158-.575zm-4.695-.774c.135-.016.271.047.341.17l.345.598c.096.164.04.375-.125.471-.054.031-.113.046-.173.046-.118 0-.234-.062-.297-.173l-.345-.598c-.096-.164-.04-.375.125-.471.042-.023.086-.038.13-.043z"/>
</svg>
