<svg xmlns="http://www.w3.org/2000/svg" width="27" height="30" viewBox="0 0 27 30">
    <path d="M13.2 0c-1.472 0-2.714.813-4.556 1.762-1.842.95-4.315 2.096-8.175 2.944L0 4.82v.468c0 9.193 3.223 15.336 6.45 19.144 3.227 3.809 6.506 5.325 6.506 5.325l.263.131.262-.13S26.4 23.08 26.4 5.286V4.82l-.469-.113c-3.86-.848-6.333-1.994-8.175-2.944C15.914.814 14.672 0 13.2 0zm0 1.2c.987 0 2.13.663 4.013 1.631 1.788.919 4.303 2.046 7.95 2.906-.22 16.27-11.21 22.374-11.982 22.782-.372-.18-2.97-1.48-5.831-4.856-3.016-3.56-6.002-9.286-6.112-17.925 3.646-.86 6.161-1.988 7.95-2.907C11.07 1.863 12.213 1.2 13.2 1.2zm4.613 7.575l-.32.506-4.874 7.575-3.225-2.906-.431-.394-.807.882.45.412 3.713 3.375.525.469.394-.6 5.268-8.175.319-.507-1.012-.637z"/>
</svg>
