<svg xmlns="http://www.w3.org/2000/svg" width="38" height="38" viewBox="0 0 38 38">
    <path fill="#2F4D60" d="M10.767 0c-1.044 0-1.9.856-1.9 1.9v1.9H5.7c-1.044 0-1.9.856-1.9 1.9v8.317l-.633.421-1.549-1.03c-.213-.143-.49-.143-.703 0l-.633.421c-.176.117-.282.315-.282.527V36.1C0 37.146.854 38 1.9 38h30.4c1.046 0 1.9-.854 1.9-1.9v-1.9h1.9c1.044 0 1.9-.856 1.9-1.9V5.7c0-1.044-.856-1.9-1.9-1.9h-3.167V1.9c0-1.044-.856-1.9-1.9-1.9s-1.9.856-1.9 1.9v1.9H22.8V1.9c0-1.044-.856-1.9-1.9-1.9S19 .856 19 1.9v1.9h-6.333V1.9c0-1.044-.856-1.9-1.9-1.9zm0 1.267c.348 0 .633.284.633.633v5.067c0 .348-.285.633-.633.633-.35 0-.634-.285-.634-.633V1.9c0-.349.285-.633.634-.633zm10.133 0c.349 0 .633.284.633.633v5.067c0 .348-.284.633-.633.633-.349 0-.633-.285-.633-.633V1.9c0-.349.284-.633.633-.633zm10.133 0c.35 0 .634.284.634.633v5.067c0 .348-.285.633-.634.633-.348 0-.633-.285-.633-.633V1.9c0-.349.285-.633.633-.633zM5.7 5.067h3.167v1.9c0 1.044.856 1.9 1.9 1.9s1.9-.856 1.9-1.9v-1.9H19v1.9c0 1.044.856 1.9 1.9 1.9s1.9-.856 1.9-1.9v-1.9h6.333v1.9c0 1.044.856 1.9 1.9 1.9s1.9-.856 1.9-1.9v-1.9H36.1c.349 0 .633.284.633.633v4.517l-.915-.61c-.213-.142-.49-.142-.703 0l-1.548 1.031-1.549-1.032c-.213-.14-.49-.14-.703 0l-1.548 1.032-1.549-1.032c-.213-.14-.49-.14-.703 0l-1.548 1.032-1.549-1.032c-.213-.14-.49-.14-.703 0l-1.548 1.032-1.549-1.032c-.213-.14-.49-.14-.703 0l-1.55 1.034-1.574-1.036c-.215-.141-.493-.139-.705.005l-1.52 1.029-1.546-1.03c-.215-.143-.49-.143-.702 0l-1.551 1.03-1.549-1.032c-.213-.14-.49-.14-.703 0l-1.9 1.267c-.292.193-.368.586-.173.878.193.292.584.369.878.176l1.547-1.032 1.548 1.032c.213.141.49.141.703 0l1.549-1.032 1.548 1.032c.216.143.493.141.708-.003l1.521-1.029 1.574 1.034c.213.141.487.139.697-.002l1.552-1.032 1.548 1.032c.213.141.49.141.703 0l1.549-1.032 1.548 1.032c.213.141.49.141.703 0l1.549-1.032 1.548 1.032c.213.141.49.141.703 0l1.549-1.032 1.548 1.032c.213.141.49.141.703 0l1.549-1.032 1.266.844V32.3c0 .349-.284.633-.633.633h-1.9V15.2c0-.213-.106-.408-.282-.527l-1.9-1.267c-.213-.14-.49-.14-.703 0l-1.548 1.032-1.549-1.032c-.213-.14-.49-.14-.703 0l-1.548 1.032-1.549-1.032c-.213-.14-.49-.14-.703 0l-1.548 1.032-1.549-1.032c-.213-.14-.49-.14-.703 0l-1.548 1.032-1.549-1.032c-.213-.14-.49-.14-.703 0l-1.55 1.034-1.574-1.036c-.215-.141-.493-.139-.705.005l-1.52 1.029-1.546-1.03c-.215-.143-.49-.143-.702 0l-1.551 1.03-1.549-1.032c-.106-.071-.23-.106-.351-.106V5.7c0-.349.284-.633.633-.633zm-4.433 9.628l1.548 1.032c.213.141.49.141.703 0l1.549-1.032 1.548 1.032c.213.141.49.141.703 0l1.549-1.032 1.548 1.032c.216.141.493.141.708-.003l1.521-1.029 1.574 1.034c.213.141.487.139.697-.002l1.552-1.032 1.548 1.032c.213.141.49.141.703 0l1.549-1.032 1.548 1.032c.213.141.49.141.703 0l1.549-1.032 1.548 1.032c.213.141.49.141.703 0l1.549-1.032 1.548 1.032c.213.141.49.141.703 0l1.549-1.032 1.266.844v17.394c-.351 0-.633.285-.633.634v1.266c0 .35.282.634.633.634v.633c0 .349-.284.633-.633.633H1.9c-.349 0-.633-.284-.633-.633v-.633c.351 0 .633-.285.633-.634v-1.266c0-.35-.282-.634-.633-.634V14.695zM16.467 19c-1.047 0-1.9.854-1.9 1.9v1.9c0 .339.096.656.254.93-.531.34-.888.928-.888 1.603V28.5c0 1.046.854 1.9 1.9 1.9h2.534c1.046 0 1.9-.854 1.9-1.9v-3.167c0-.675-.357-1.264-.888-1.603.158-.274.254-.591.254-.93v-1.9c0-1.046-.853-1.9-1.9-1.9h-1.266zm0 1.267h1.266c.35 0 .634.284.634.633v1.9c0 .349-.285.633-.634.633h-1.266c-.35 0-.634-.284-.634-.633v-1.9c0-.349.285-.633.634-.633zm-.634 4.433h2.534c.348 0 .633.285.633.633V28.5c0 .349-.285.633-.633.633h-2.534c-.348 0-.633-.284-.633-.633v-3.167c0-.348.285-.633.633-.633zm-11.4 8.233c-.351 0-.633.285-.633.634v1.266c0 .35.282.634.633.634.352 0 .634-.285.634-.634v-1.266c0-.35-.282-.634-.634-.634zm3.167 0c-.351 0-.633.285-.633.634v1.266c0 .35.282.634.633.634.351 0 .633-.285.633-.634v-1.266c0-.35-.282-.634-.633-.634zm3.167 0c-.352 0-.634.285-.634.634v1.266c0 .35.282.634.634.634.351 0 .633-.285.633-.634v-1.266c0-.35-.282-.634-.633-.634zm3.166 0c-.351 0-.633.285-.633.634v1.266c0 .35.282.634.633.634.352 0 .634-.285.634-.634v-1.266c0-.35-.282-.634-.634-.634zm3.167 0c-.351 0-.633.285-.633.634v1.266c0 .35.282.634.633.634.351 0 .633-.285.633-.634v-1.266c0-.35-.282-.634-.633-.634zm3.167 0c-.352 0-.634.285-.634.634v1.266c0 .35.282.634.634.634.351 0 .633-.285.633-.634v-1.266c0-.35-.282-.634-.633-.634zm3.166 0c-.351 0-.633.285-.633.634v1.266c0 .35.282.634.633.634.352 0 .634-.285.634-.634v-1.266c0-.35-.282-.634-.634-.634zm3.167 0c-.351 0-.633.285-.633.634v1.266c0 .35.282.634.633.634.351 0 .633-.285.633-.634v-1.266c0-.35-.282-.634-.633-.634zm3.167 0c-.352 0-.634.285-.634.634v1.266c0 .35.282.634.634.634.351 0 .633-.285.633-.634v-1.266c0-.35-.282-.634-.633-.634z"/>
</svg>
