<svg xmlns="http://www.w3.org/2000/svg" width="32" height="30" viewBox="0 0 32 30">
    <path d="M15.957 0c-5.941 0-10.84 4.525-11.43 10.313-.583.189-1.046.653-1.236 1.236-.91.182-1.7.806-2.254 1.636-.66.99-1.037 2.294-1.037 3.73s.376 2.74 1.037 3.73c.554.83 1.344 1.454 2.254 1.636.25.768.968 1.336 1.815 1.336 1.05 0 1.915-.865 1.915-1.915v-9.574c0-.793-.5-1.466-1.197-1.756.559-5.116 4.867-9.095 10.133-9.095 5.266 0 9.575 3.979 10.133 9.095-.695.29-1.196.963-1.196 1.756v9.574c0 .815.53 1.501 1.256 1.775-.087 1.22-.5 2.137-1.157 2.793-.74.74-1.822 1.177-3.29 1.177h-2.035c-.267-.738-.97-1.277-1.796-1.277h-3.191c-1.05 0-1.915.865-1.915 1.915S13.631 30 14.681 30h3.191c.826 0 1.529-.539 1.796-1.277h2.034c1.723 0 3.194-.52 4.209-1.535.912-.913 1.421-2.19 1.516-3.69.563-.198 1.012-.649 1.197-1.217.91-.182 1.7-.806 2.254-1.636.66-.99 1.037-2.294 1.037-3.73s-.377-2.74-1.037-3.73c-.554-.83-1.344-1.454-2.254-1.636-.19-.583-.654-1.047-1.237-1.236C26.799 4.524 21.899 0 15.957 0zM5.107 11.49c.358 0 .638.279.638.638v9.574c0 .36-.28.638-.639.638s-.638-.279-.638-.638v-9.574c0-.36.28-.639.638-.639zm21.702 0c.359 0 .638.279.638.638v9.574c0 .36-.28.638-.638.638-.36 0-.639-.279-.639-.638v-9.574c0-.36.28-.639.639-.639zM3.19 12.905v8.018c-.396-.17-.772-.491-1.097-.977-.493-.74-.817-1.825-.817-3.032s.324-2.291.817-3.032c.325-.486.701-.808 1.097-.977zm25.532 0c.397.17.773.49 1.097.977.494.74.818 1.825.818 3.032s-.324 2.291-.818 3.032c-.324.486-.7.808-1.097.977v-8.018zm-14.042 14.54h3.191c.36 0 .639.28.639.64 0 .358-.28.637-.639.637h-3.191c-.36 0-.638-.279-.638-.638s.279-.638.638-.638z"/>
</svg>
