<svg xmlns="http://www.w3.org/2000/svg" width="19" height="15" viewBox="0 0 19 15">
    <path fill="#38B3FF" d="M12.512 0c-2.186 0-3.964 1.778-3.964 3.964 0 .132.033.26.046.389C5.891 4.094 3.5 2.792 1.877.8 1.8.704 1.684.653 1.56.66 1.44.67 1.33.74 1.27.845.93 1.432.734 2.108.734 2.833c0 .878.314 1.682.8 2.342-.094-.041-.197-.064-.286-.114C1.135 5 1 5.004.89 5.069c-.11.066-.177.185-.179.312v.046c0 1.346.697 2.516 1.725 3.233-.011-.002-.023.002-.034 0-.126-.022-.253.022-.337.118-.084.096-.111.229-.074.35.408 1.27 1.45 2.24 2.742 2.593-1.029.611-2.221.971-3.508.971-.278 0-.545-.014-.81-.045-.172-.023-.336.077-.393.24-.059.162.005.344.152.434C1.824 14.379 3.782 15 5.886 15c3.412 0 6.088-1.425 7.883-3.462 1.795-2.036 2.73-4.68 2.73-7.151 0-.104-.008-.206-.01-.309.669-.512 1.267-1.113 1.736-1.816.092-.136.082-.317-.025-.443-.105-.125-.284-.164-.432-.094-.189.084-.409.093-.606.16.26-.347.483-.721.617-1.142.046-.145-.004-.303-.123-.397-.118-.093-.284-.105-.414-.026-.624.37-1.315.63-2.045.788C14.49.446 13.557 0 12.512 0zm0 .731c.933 0 1.776.399 2.365 1.028.089.092.219.13.343.103.477-.094.93-.233 1.37-.411-.253.343-.567.635-.936.857-.167.081-.245.274-.184.45.06.174.243.275.424.235.366-.044.691-.193 1.04-.285-.313.338-.656.644-1.029.913-.1.075-.157.195-.148.32.006.149.011.296.011.446 0 2.285-.876 4.765-2.547 6.66-1.671 1.895-4.124 3.222-7.335 3.222-1.458 0-2.834-.323-4.078-.891 1.542-.119 2.965-.664 4.113-1.565.12-.096.167-.256.118-.402-.048-.145-.183-.245-.335-.25-1.206-.021-2.215-.722-2.754-1.713h.058c.36 0 .718-.046 1.05-.137.16-.047.27-.196.265-.363-.006-.167-.125-.31-.287-.346C2.735 8.34 1.759 7.28 1.534 5.963c.368.128.745.227 1.154.24.167.01.318-.094.37-.252.05-.159-.012-.333-.153-.422-.869-.58-1.44-1.57-1.44-2.696 0-.417.109-.8.252-1.165 1.827 2.006 4.386 3.339 7.277 3.484.114.006.225-.041.3-.128.074-.089.103-.206.077-.317-.056-.237-.092-.489-.092-.743 0-1.79 1.443-3.233 3.233-3.233z"/>
</svg>
