<svg xmlns="http://www.w3.org/2000/svg" width="42" height="41" viewBox="0 0 42 41">
    <g fill="none" fill-rule="evenodd">
        <g fill="#3A5C71" fill-rule="nonzero">
            <g>
                <g>
                    <path d="M1060.832 404.054v-1.788c0-.331-.27-.6-.6-.6-.333 0-.601.269-.601.6v1.786h-5.765v-5.344c0-.806-.654-1.459-1.46-1.46h-2.64v-5.766h5.076c2.643.003 4.785 2.145 4.789 4.788v3.196c0 .332.268.6.6.6.332 0 .6-.268.6-.6v-3.196c-.004-3.306-2.683-5.985-5.989-5.99h-5.227c-.409-1.229-1.558-2.059-2.854-2.06h-1.988v-2.275c.805-.037 1.488-.605 1.673-1.39h6.018c.76.024 1.471-.367 1.858-1.021.387-.654.387-1.467 0-2.12-.387-.654-1.099-1.046-1.858-1.022h-6.018c-.191-.814-.917-1.39-1.753-1.392h-3.915c-.837 0-1.563.577-1.753 1.392h-6.019c-.759-.024-1.47.368-1.858 1.021-.386.654-.386 1.467 0 2.12.387.655 1.1 1.046 1.858 1.022h6.019c.184.785.867 1.353 1.673 1.39v2.275h-1.99c-1.296.002-2.444.832-2.852 2.06h-4.51c-.255-.719-.935-1.2-1.698-1.2-.763 0-1.444.481-1.699 1.2h-6.313c-.332 0-.6.27-.6.601 0 .332.268.6.6.6h6.205v5.767h-6.205c-.223-.013-.434.099-.55.29-.115.19-.115.43 0 .62.116.191.327.302.55.29h6.31c.254.719.935 1.2 1.698 1.2.763 0 1.443-.481 1.698-1.2h4.51c.406 1.23 1.555 2.06 2.851 2.062h1.015c.332 0 .6-.27.6-.601 0-.332-.268-.6-.6-.6h-1.015c-.888-.001-1.644-.648-1.781-1.526.024-.11-.025-6.615 0-6.826.137-.878.893-1.525 1.781-1.525h8.058c.889 0 1.644.647 1.782 1.525.092.8.082 6.127 0 6.826-.138.877-.894 1.524-1.782 1.525h-4.237c-.332 0-.6.27-.6.601 0 .332.268.6.6.6h4.237c1.296 0 2.445-.832 2.852-2.062h2.792c.143.002.258.118.258.26v5.347c-.665.005-1.201.546-1.201 1.211v1.181c0 .668.54 1.21 1.21 1.212h8.147c.67-.002 1.21-.543 1.212-1.212v-1.18c0-.666-.536-1.207-1.201-1.212h.002zm-14.34-22.46h5.972c.325-.017.632.148.799.427.167.278.167.627 0 .905-.167.28-.474.444-.799.428h-5.971v-1.76zm-7.52 1.76h-5.966c-.324.016-.631-.149-.798-.428-.167-.278-.167-.627 0-.905.167-.28.474-.444.798-.428h5.966v1.761zm-8.733 14.495c0 .332-.269.6-.6.6-.332 0-.601-.268-.601-.6v-6.97c0-.332.269-.6.6-.6.332 0 .601.268.601.6v6.97zm5.461-.6h-4.256v-5.767h4.26l-.004 5.766zm7.868-9.02h-1.673v-2.282h1.673v2.282zm-2.794-3.475c-.16 0-.313-.063-.425-.176-.113-.112-.176-.265-.176-.425v-3.351c0-.332.269-.6.6-.6h3.916c.332 0 .6.268.6.6v3.343c0 .332-.268.6-.6.6l-3.915.01zm20.054 21.7h-8.155v-1.18h8.149l.006 1.18zm-3.485 3.28c-.328-.322-.853-.322-1.18 0-1.134 1.121-3.773 3.938-3.773 5.904 0 2.409 1.953 4.362 4.362 4.362 2.41 0 4.363-1.953 4.363-4.362-.004-1.966-2.643-4.783-3.776-5.904h.004zm-.59 9.063c-1.745-.001-3.16-1.415-3.161-3.16 0-.745.834-2.437 3.16-4.794 2.327 2.357 3.161 4.049 3.161 4.795-.002 1.746-1.419 3.16-3.165 3.159h.004z" transform="translate(-1021 -2639) translate(0 141) translate(0 2119)"/>
                </g>
            </g>
        </g>
    </g>
</svg>
