<svg xmlns="http://www.w3.org/2000/svg" width="49" height="39" viewBox="0 0 49 39">
    <g fill="none" fill-rule="evenodd">
        <g fill="#2F4D60" fill-rule="nonzero">
            <g>
                <g>
                    <g>
                        <path d="M62.959 31.197c.683-.147 1.458-.314 2.208-.082.78.24 1.31.82 1.778 1.331.262.286.51.556.764.733.261.18.612.322.983.473l.198.081c.6.247 1.241.546 1.67 1.105.258.338.422.746.516 1.285.065.371-.2.721-.59.783-.39.06-.76-.19-.824-.56-.056-.323-.14-.547-.262-.706-.243-.318-.742-.521-1.27-.736-.43-.174-.872-.354-1.264-.624-.387-.268-.7-.61-1.003-.94-.379-.415-.737-.806-1.139-.93-.375-.116-.897-.004-1.449.115-.463.1-.942.202-1.442.202s-.98-.103-1.442-.202c-.553-.119-1.074-.231-1.45-.115-.4.124-.76.515-1.139.93-.302.33-.616.672-1.002.94-.392.27-.835.45-1.263.624-.529.215-1.028.418-1.272.735-.239.313-.288.824-.34 1.365-.044.443-.088.901-.239 1.343-.145.425-.388.808-.623 1.18-.3.473-.583.92-.583 1.335 0 .414.283.862.583 1.336.235.37.478.754.623 1.179.151.442.195.9.238 1.342.053.542.102 1.053.341 1.365.244.318.743.52 1.272.735.428.174.871.354 1.263.625.387.267.7.61 1.002.94.38.415.738.806 1.14.93.375.116.896.004 1.449-.115.463-.1.941-.202 1.442-.202.5 0 .98.103 1.442.202.552.119 1.074.23 1.449.115.402-.124.76-.515 1.14-.93.302-.33.615-.673 1.002-.94.392-.27.835-.45 1.263-.625.529-.214 1.028-.417 1.271-.735.24-.312.29-.824.342-1.365.042-.443.087-.9.238-1.342.145-.425.388-.809.622-1.18.3-.473.584-.921.584-1.335 0-.384-.231-.778-.557-1.294-.204-.322-.094-.74.245-.934.34-.194.78-.09.983.233.34.536.762 1.204.762 1.995 0 .792-.419 1.453-.788 2.037-.203.32-.394.621-.488.898-.077.226-.116.49-.147.773h1.652c1.153 0 2.091.891 2.091 1.986V67.08c0 1.095-.938 1.986-2.091 1.986H28.091c-1.153 0-2.091-.89-2.091-1.986V46.556c0-1.095.938-1.986 2.091-1.986H52.47c-.03-.283-.069-.547-.146-.773-.095-.277-.286-.578-.488-.898-.37-.584-.788-1.245-.788-2.037 0-.792.418-1.454.788-2.038.202-.32.393-.62.488-.898.102-.297.137-.66.174-1.046.065-.669.138-1.426.61-2.042.475-.62 1.214-.92 1.866-1.186l.22-.09c.288-.12.555-.24.763-.383.256-.177.503-.447.765-.733.468-.511.998-1.09 1.778-1.331.75-.232 1.524-.065 2.208.082.404.086.786.169 1.126.169.34 0 .722-.082 1.126-.17zM52.661 45.93h-24.57c-.363 0-.658.28-.658.625V67.08c0 .345.295.625.658.625h44.757c.363 0 .658-.28.658-.625V46.556c0-.344-.295-.625-.658-.625h-1.844c-.086.334-.22.66-.445.954-.476.621-1.215.921-1.867 1.186-.225.092-.442.18-.637.276.003.033.006.067.006.1 0 .538.225 1.063.619 1.449.469.458 1.02.657 1.677.626.329-.015.654.099.89.313.238.215.37.505.37.817v10.331c0 .312-.132.602-.37.817-.237.215-.561.329-.89.313-1.227-.057-2.296.898-2.296 2.07 0 .312-.124.6-.351.816-.225.214-.523.331-.84.331h-32.8c-.318 0-.617-.117-.84-.33-.228-.217-.353-.505-.352-.813 0-1.179-1.075-2.13-2.296-2.074-.33.016-.654-.098-.89-.313-.238-.215-.37-.505-.37-.817v-5.28c0-.377.322-.681.717-.681.396 0 .717.304.717.68v5.048c1.89.03 3.432 1.444 3.548 3.219h32.332c.118-1.778 1.659-3.19 3.547-3.22v-9.863c-1.601-.026-2.952-1.045-3.398-2.435-.43.463-.926.944-1.618 1.158-.75.231-1.525.065-2.208-.082-.404-.087-.786-.17-1.126-.17-.34 0-.722.083-1.126.17-.44.094-.915.196-1.399.196-.269 0-.54-.031-.809-.114-.78-.24-1.31-.82-1.778-1.332-.208-.226-.406-.442-.607-.61h-21.81c-.119 1.777-1.66 3.188-3.548 3.219v1.674c0 .376-.32.681-.716.681-.396 0-.717-.305-.717-.68v-1.909c0-.312.13-.602.369-.817.237-.214.561-.329.89-.313 1.23.057 2.296-.898 2.296-2.07 0-.311.124-.6.351-.816.224-.213.523-.33.84-.33h19.45c-.15-.123-.29-.261-.413-.42-.225-.295-.359-.621-.445-.955zm-2.191 3.704c4.17 0 7.561 3.222 7.561 7.183 0 3.96-3.392 7.183-7.561 7.183-4.17 0-7.562-3.222-7.562-7.183s3.392-7.183 7.562-7.183zm0 1.361c-3.38 0-6.129 2.612-6.129 5.822s2.75 5.821 6.129 5.821c3.379 0 6.128-2.611 6.128-5.821 0-3.21-2.75-5.822-6.128-5.822zm3.141 6.393c.156-.202.455-.247.668-.1.353.246.584.626.65 1.073.074.504-.074 1.037-.394 1.427-.473.576-1.283.91-2.188.91-.055 0-.111-.001-.167-.004-.264-.011-.467-.224-.455-.474.013-.25.238-.443.5-.432.512.023 1.19-.112 1.557-.558.162-.197.239-.482.2-.744-.017-.116-.074-.33-.266-.464-.213-.147-.26-.431-.105-.634zm-4.713-4.453c.264 0 .478.204.478.454v4.73c0 .886-.76 1.607-1.692 1.607-.933 0-1.692-.721-1.692-1.607v-1.038c0-.251.214-.454.478-.454.263 0 .477.203.477.454v1.038c0 .385.33.7.737.7.406 0 .736-.315.736-.7v-4.73c0-.25.214-.454.478-.454zm2.072 4.72c.255 0 .461.197.461.438 0 .242-.206.438-.46.438-.255 0-.462-.196-.462-.438 0-.241.207-.437.461-.437zm1.586-.002c.254 0 .46.196.46.438s-.206.438-.46.438c-.255 0-.461-.196-.461-.438s.206-.438.46-.438zm-1.715-4.718c.264 0 .478.204.478.454v2.008c0 .233.2.422.444.422.245 0 .444-.19.444-.422v-.047c0-.25.214-.454.478-.454s.478.204.478.454v.047c0 .733-.628 1.33-1.4 1.33-.772 0-1.4-.597-1.4-1.33V53.39c0-.25.214-.454.478-.454zm7.726-10.887c.11-.228.393-.328.633-.224.24.104.345.373.235.601l-.406.845c-.08.167-.254.265-.435.265-.066 0-.134-.013-.198-.041-.24-.104-.346-.374-.236-.602zm8.162-3.257c.098-.233.376-.347.62-.254.246.092.366.356.268.59l-1.501 3.584c-.075.178-.254.286-.444.286-.059 0-.119-.01-.177-.032-.245-.093-.364-.357-.267-.59zm-10.819-.215c.763 0 1.384.59 1.384 1.314 0 .02-.004.138-.03.232-.067.275-.218.573-.45.888-.317.43-.564.753-.751.994l.29-.002.607-.005c.264-.006.48.197.484.448.003.25-.208.456-.472.46-.361.004-.653.006-.89.007h-.407c-.555-.002-.605-.018-.664-.036-.156-.05-.273-.162-.32-.309-.08-.247.043-.4.267-.678.179-.224.513-.64 1.073-1.4.19-.257.266-.44.297-.552l.01-.07c-.013-.214-.2-.384-.428-.384-.204 0-.38.138-.42.328-.05.246-.302.406-.56.357-.26-.048-.428-.287-.377-.532.127-.615.698-1.06 1.357-1.06zm6.415.014c.264 0 .478.203.478.453 0 .251-.214.454-.478.454H61.4l-.079.453c.047-.002.096-.003.148-.003.425 0 .838.169 1.131.462.298.298.45.688.427 1.099-.042.772-.713 1.388-1.526 1.404h-.032c-.565 0-1.085-.288-1.362-.758-.13-.219-.047-.496.183-.618.23-.123.521-.045.65.174.11.186.314.299.541.294.316-.006.576-.244.592-.543.009-.16-.05-.311-.166-.427-.115-.115-.271-.179-.438-.179-.26 0-.36.035-.495.092l-.025.012c-.16.076-.354.062-.5-.04-.144-.1-.218-.27-.189-.439l.264-1.51c.038-.22.238-.38.471-.38zm5.59 2.885c.403 0 .73.31.73.693 0 .383-.327.693-.73.693-.403 0-.73-.31-.73-.693 0-.382.327-.693.73-.693zm-2.985-2.835c.403 0 .73.31.73.693 0 .383-.327.693-.73.693-.403 0-.73-.31-.73-.693 0-.382.327-.693.73-.693z" transform="translate(-196 -2421) translate(0 141) translate(0 2119) translate(170 130)"/>
                    </g>
                </g>
            </g>
        </g>
    </g>
</svg>
