<svg xmlns="http://www.w3.org/2000/svg" width="110" height="292" viewBox="0 0 110 292">
    <g fill="none" fill-rule="evenodd">
        <g fill-rule="nonzero">
            <g>
                <g>
                    <g>
                        <path fill="#C4D0E8" d="M48.7 77.175l-.067.048-.045.034c-8 5.937-17.645 18.875-24.59 32.979-5.602 11.377-6.353 23.856-6.353 35.648 0 3.488.075 7.054.15 10.504.075 3.45.154 7.005.154 10.485 0 8.043-.349 17.483-2.924 26.53-2.628 9.242-7.261 16.856-14.158 23.282H.822l-.53.493.098.157.676-.258.034-.034c3.566-1.416 7.014-3.11 10.313-5.063 7.509-4.455 12.9-9.369 16.038-14.611 11.113-18.558 12.54-35.697 12.536-48.542 0-5.713-.308-11.363-.609-16.826-.3-5.463-.585-10.597-.585-15.791 0-11.404 1.209-24.906 10.136-38.61l.03-.048.045-.067.492-.856-.796.546zm-10.38 39.02c0 5.228.281 10.366.582 15.825.3 5.459.612 11.097.612 16.803 0 12.8-1.42 29.872-12.472 48.314-3.86 6.445-10.76 11.415-15.873 14.451-2.348 1.387-4.767 2.654-7.246 3.794-.646.298-1.28.575-1.877.829 6.484-6.307 10.887-13.738 13.422-22.67 2.586-9.11 2.928-18.591 2.928-26.668 0-3.487-.075-7.053-.15-10.504-.075-3.45-.154-7.005-.154-10.485 0-11.732.75-24.148 6.326-35.44 6.611-13.442 15.678-25.801 23.408-32.007-8.357 13.42-9.506 26.593-9.506 37.758z" transform="translate(-1300 -162) translate(0 141) matrix(-1 0 0 1 1410 21)"/>
                        <path fill="#C4D0E8" d="M57.67 3.674v-.052h-.02l-.022-.078-.21.067h-.222v.082h-.019v.048c-.401 9.91-3.003 18.857-8.259 28.147-4.302 7.659-9.761 14.507-15.543 21.755-3.442 4.32-7.005 8.786-10.343 13.487C15.595 77.585 6.84 92.372 5.136 113.87c-.056.702-.083 1.434-.083 2.173 0 5.844 1.712 12.516 5.084 19.835 1.465 3.194 3.163 6.278 5.079 9.227v.045l.406.6.168-.07-.142-.698.041-.023-.056-.056c-.698-3.346-1.052-6.754-1.059-10.171 0-17.248 9.42-31.41 19.898-45.6.788-1.063 1.578-2.125 2.369-3.185C46.275 73.273 56.029 60.18 58.544 44.73c1.092-6.69 1.65-13.457 1.67-20.235.042-8.32-.878-15.709-2.545-20.82zM5.63 113.887c.873-11.656 4.155-23.008 9.641-33.344 4.82-9.164 10.91-17.072 17.251-25.04l1.258-1.576c5.789-7.26 11.263-14.115 15.58-21.81 5.027-8.962 7.663-17.577 8.237-27.042 1.412 4.988 2.185 11.81 2.185 19.416-.022 6.755-.578 13.497-1.663 20.164-2.497 15.31-12.24 28.408-21.659 41.074l-2.327 3.137c-4.93 6.661-10.058 13.816-13.891 21.538-4.1 8.338-6.12 16.299-6.12 24.323.005 3.055.288 6.103.845 9.107-1.818-2.956-3.432-6.03-4.831-9.204-3.03-6.856-4.57-13.11-4.57-18.592-.014-.724.016-1.445.064-2.15z" transform="translate(-1300 -162) translate(0 141) matrix(-1 0 0 1 1410 21)"/>
                        <path fill="#3E78B8" d="M97.04.086C94.84 44.06 48.648 56.638 43.9 109.736c-1.303 14.562 9.72 31.227 9.72 31.227-8.192-41.638 37.632-63.55 43.928-99.889 2.85-16.43 2.275-32.206-.507-40.988" transform="translate(-1300 -162) translate(0 141) matrix(-1 0 0 1 1410 21)"/>
                        <path fill="#2E5B8D" d="M41.567 122.334c-1.562 9.077 0 24.786 5.068 40.7 11.18 35.141 59.55 50.705 57.103 93.045 0 0 8.657-17.994 5.387-32.247-11.923-51.97-59.403-58.25-67.577-101.498" transform="translate(-1300 -162) translate(0 141) matrix(-1 0 0 1 1410 21)"/>
                        <path fill="#C4D0E8" d="M102.529 259.115C98.26 231.81 83.795 216.24 69.807 201.18c-12.892-13.872-25.067-26.978-27.511-48.015l-.098-.818h-.184l-.199.81c-2.373 9.645-1.502 25.765 2.189 41.048 3.675 15.209 14.409 27.557 24.778 39.499 14.12 16.246 28.724 33.05 25.6 57.23l-.094.748.173.06.376-.662c.112-.201 9.937-17.598 7.692-31.966zM69.161 233.35c-10.34-11.897-21.024-24.2-24.684-39.293-3.488-14.406-4.449-29.801-2.49-39.465 2.824 20.395 14.796 33.278 27.46 46.91 13.943 15.004 28.355 30.519 32.598 57.676 1.9 12.15-5.054 26.71-7.017 30.507 2.485-23.7-11.927-40.283-25.867-56.309v-.026z" transform="translate(-1300 -162) translate(0 141) matrix(-1 0 0 1 1410 21)"/>
                    </g>
                </g>
            </g>
        </g>
    </g>
</svg>
