<svg xmlns="http://www.w3.org/2000/svg" width="158" height="422" viewBox="0 0 158 422">
    <g fill="none" fill-rule="evenodd">
        <g fill-rule="nonzero">
            <g>
                <g>
                    <g>
                        <g>
                            <path fill="#C4D0E8" d="M69.951 111.533l-.097.07-.064.049c-11.492 8.58-25.345 27.279-35.321 47.661-8.046 16.443-9.124 34.478-9.124 51.52 0 5.04.108 10.194.215 15.18.108 4.986.222 10.124.222 15.153 0 11.624-.502 25.266-4.201 38.342-3.775 13.356-10.43 24.359-20.335 33.646H1.18l-.76.713.14.226.97-.372.049-.049c5.121-2.047 10.074-4.494 14.813-7.317 10.785-6.438 18.529-13.54 23.037-21.116 15.962-26.82 18.01-51.59 18.005-70.154 0-8.256-.442-16.421-.873-24.316-.432-7.895-.841-15.315-.841-22.822 0-16.48 1.736-35.994 14.56-55.799l.042-.07.065-.097.707-1.236-1.144.788zm-14.91 56.393c0 7.555.405 14.98.836 22.87.431 7.89.879 16.038.879 24.284 0 18.499-2.038 43.171-17.914 69.824-5.543 9.314-15.455 16.497-22.8 20.884-3.372 2.005-6.846 3.835-10.407 5.483-.927.432-1.839.83-2.696 1.198 9.313-9.115 15.638-19.854 19.278-32.762 3.715-13.167 4.206-26.869 4.206-38.541 0-5.04-.108-10.194-.215-15.18-.108-4.986-.222-10.124-.222-15.153 0-16.956 1.079-34.899 9.087-51.218 9.496-19.427 22.519-37.289 33.622-46.258C56.69 132.752 55.04 151.79 55.04 167.926z" transform="translate(-30 -160) translate(0 141) translate(30 19)"/>
                            <path fill="#C4D0E8" d="M82.834 5.31v-.075h-.027l-.032-.114-.302.097h-.318v.12h-.027v.07c-.577 14.321-4.314 27.251-11.864 40.677-6.18 11.068-14.02 20.966-22.325 31.44-4.945 6.244-10.062 12.698-14.856 19.492-10.683 15.11-23.258 36.48-25.706 67.547-.081 1.014-.119 2.072-.119 3.14 0 8.446 2.46 18.09 7.302 28.666 2.105 4.617 4.543 9.073 7.296 13.335v.065l.582.868.243-.102-.205-1.01.06-.032-.082-.08c-1.001-4.837-1.51-9.762-1.52-14.7 0-24.926 13.53-45.395 28.58-65.901 1.132-1.537 2.267-3.071 3.403-4.604 13.55-18.315 27.56-37.235 31.174-59.565 1.568-9.67 2.37-19.448 2.4-29.243.058-12.024-1.263-22.703-3.657-30.09zM8.09 164.59c1.253-16.845 5.968-33.25 13.848-48.19 6.924-13.242 15.67-24.672 24.778-36.188l1.807-2.277c8.315-10.49 16.177-20.398 22.378-31.52 7.221-12.952 11.007-25.401 11.832-39.081 2.027 7.21 3.138 17.069 3.138 28.061-.03 9.761-.83 19.505-2.389 29.14-3.586 22.126-17.58 41.057-31.11 59.361l-3.342 4.533c-7.08 9.628-14.447 19.967-19.953 31.127-5.888 12.05-8.79 23.555-8.79 35.152.008 4.415.414 8.82 1.214 13.162-2.611-4.272-4.93-8.716-6.94-13.302-4.352-9.908-6.563-18.947-6.563-26.869-.022-1.047.022-2.088.092-3.108z" transform="translate(-30 -160) translate(0 141) translate(30 19)"/>
                            <path fill="#3E78B8" d="M139.385.124c-3.16 63.554-69.51 81.729-76.33 158.466-1.872 21.046 13.96 45.13 13.96 45.13-11.766-60.175 54.055-91.841 63.098-144.36 4.093-23.744 3.268-46.544-.728-59.236" transform="translate(-30 -160) translate(0 141) translate(30 19)"/>
                            <path fill="#2E5B8D" d="M59.706 176.797c-2.244 13.12 0 35.822 7.28 58.821 16.058 50.786 85.535 73.278 82.02 134.468 0 0 12.434-26.005 7.738-46.603-17.127-75.107-85.326-84.184-97.065-146.686" transform="translate(-30 -160) translate(0 141) translate(30 19)"/>
                            <path fill="#C4D0E8" d="M147.269 374.474c-6.131-39.459-26.909-61.962-47.001-83.726-18.518-20.047-36.006-38.989-39.516-69.392l-.14-1.182h-.265l-.285 1.17c-3.408 13.94-2.157 37.236 3.143 59.324 5.28 21.98 20.697 39.825 35.59 57.083 20.282 23.48 41.259 47.764 36.772 82.711l-.135 1.08.248.086.54-.956c.162-.29 14.274-25.433 11.049-46.198zM99.34 337.238c-14.85-17.193-30.197-34.974-35.455-56.786-5.01-20.82-6.39-43.069-3.575-57.035 4.055 29.475 21.251 48.093 39.44 67.795 20.028 21.683 40.73 44.105 46.823 83.353 2.729 17.56-7.258 38.601-10.078 44.09 3.57-34.252-17.132-58.217-37.155-81.379v-.038z" transform="translate(-30 -160) translate(0 141) translate(30 19)"/>
                        </g>
                    </g>
                </g>
            </g>
        </g>
    </g>
</svg>
