<svg xmlns="http://www.w3.org/2000/svg" xmlns:xlink="http://www.w3.org/1999/xlink" width="125" height="125" viewBox="0 0 125 125">
    <defs>
        <radialGradient id="74xfxext0b" cx="50.682%" cy=".005%" r="50%" fx="50.682%" fy=".005%">
            <stop offset="0%" stop-color="#547F9B"/>
            <stop offset="100%" stop-color="#304E60"/>
        </radialGradient>
        <path id="ie5v4uvf8a" d="M62.5 0C27.982 0 0 27.983 0 62.5 0 97.018 27.982 125 62.5 125c34.517 0 62.5-27.982 62.5-62.5C125 27.983 97.017 0 62.5 0z"/>
    </defs>
    <g fill="none" fill-rule="evenodd">
        <g>
            <g>
                <g>
                    <mask id="asrya6uofc" fill="#fff">
                        <use xlink:href="#ie5v4uvf8a"/>
                    </mask>
                    <path fill="url(#74xfxext0b)" d="M62.5 0C27.982 0 0 27.983 0 62.5 0 97.018 27.982 125 62.5 125c34.517 0 62.5-27.982 62.5-62.5C125 27.983 97.017 0 62.5 0z" mask="url(#asrya6uofc)"/>
                </g>
                <g fill="#FEFEFE">
                    <path d="M83.125 83.56c0 .136-.11.246-.245.246h-1.51V77.68c0-1.226-.997-2.223-2.222-2.223-1.226 0-2.223.997-2.223 2.223v6.126h-1.691v-10.52h7.892V83.56zm-4.778.246V77.68c0-.442.36-.8.8-.8.442 0 .801.358.801.8v6.126h-1.6zm-9.311 0V77.68c0-.442.359-.8.8-.8.441 0 .8.358.8.8v6.126h-1.6zm-9.16 0V80.62c0-.392-.319-.71-.711-.71-.393 0-.711.318-.711.71v3.187h-1.816V77.68c0-1.226-.998-2.223-2.223-2.223-1.226 0-2.222.997-2.222 2.223v6.126H50.46V68.53h23.351v15.276h-1.753V77.68c0-1.226-.996-2.223-2.222-2.223-1.225 0-2.222.997-2.222 2.223v6.126H65.78v-8.865c0-1.26-1.024-2.284-2.284-2.284h-2.76c-1.259 0-2.283 1.025-2.283 2.284v2.311c0 .393.318.711.71.711.393 0 .712-.318.712-.71V74.94c0-.475.387-.862.862-.862h2.76c.475 0 .861.387.861.862v8.865h-4.483zm-6.261 0V77.68c0-.442.359-.8.8-.8.441 0 .8.358.8.8v6.126h-1.6zm-9.291 0V77.68c0-.442.359-.8.8-.8.441 0 .8.358.8.8v6.126h-1.6zm-3.177-.246V73.287h7.891v10.52h-1.691V77.68c0-1.226-.998-2.223-2.223-2.223-1.225 0-2.223.997-2.223 2.223v6.126h-1.509c-.136 0-.245-.11-.245-.246zm11.98-17.995c0-.183.148-.331.331-.331h17.356c.183 0 .332.148.332.331v1.543h-18.02v-1.543zm1.54-11.43c0-2.222 1.303-4.262 3.318-5.197l4.15-1.927 4.152 1.927c2.015.935 3.317 2.975 3.317 5.197v1.66H54.668v-1.66zm6.669 5.755c0-.441.359-.8.8-.8.441 0 .8.359.8.8v3.922h-1.6V59.89zm19.341 11.974h2.449v-8.6h-2.449v8.6zm0-10.022h2.449v-5.263h-2.449v5.263zm0-8.147c0-.94.67-1.583 1.224-2.256.555.673 1.225 1.316 1.225 2.256v1.462h-2.449v-1.462zm-39.53 8.147h2.448v-5.263h-2.448v5.263zm0-8.147c0-.94.668-1.583 1.224-2.256.555.673 1.224 1.316 1.224 2.256v1.462h-2.448v-1.462zm44.55 18.17h-1.15v-8.601h.876c.393 0 .711-.318.711-.711 0-.393-.318-.711-.71-.711h-.877v-5.263h.876c.393 0 .711-.319.711-.711 0-.393-.318-.711-.71-.711h-.877v-1.462c0-1.51-1.041-2.546-1.934-3.629v-2.948c0-.392-.32-.71-.712-.71-.392 0-.71.318-.71.71v2.948c-.898 1.087-1.936 2.11-1.936 3.629v1.462h-.835c-.392 0-.71.318-.71.71 0 .393.318.712.71.712h.835v5.263h-.835c-.392 0-.71.318-.71.71 0 .394.318.712.71.712h.835v8.6h-4.022V68.53h1.325c.393 0 .71-.318.71-.71 0-.394-.317-.712-.71-.712h-3.99v-1.543c0-.967-.787-1.753-1.754-1.753h-2.995v-3.298c0-.392-.318-.711-.711-.711-.393 0-.711.319-.711.711v3.298h-2.039V59.89c0-1.226-.997-2.223-2.222-2.223s-2.223.997-2.223 2.223v3.922h-2.005v-3.298c0-.392-.318-.711-.711-.711-.393 0-.711.319-.711.711v3.298h-1.818v-6.596h14.936v3.908c0 .393.318.711.711.711.393 0 .711-.318.711-.711v-6.989c0-2.773-1.625-5.32-4.14-6.487l-4.039-1.875v-1.334c.561-.15 1.063-.477 1.435-.945.244-.308.192-.755-.115-1-.308-.243-.755-.191-1 .116-.253.319-.63.502-1.037.502-.73 0-1.323-.594-1.323-1.323 0-.73.593-1.323 1.323-1.323.393 0 .711-.319.711-.711 0-.393-.318-.711-.711-.711-1.514 0-2.745 1.231-2.745 2.745 0 1.27.867 2.34 2.04 2.653v1.33l-4.039 1.876c-2.515 1.168-4.14 3.714-4.14 6.487v9.69c-.867.106-1.542.845-1.542 1.74v1.543h-3.99c-.393 0-.71.318-.71.711 0 .393.317.711.71.711h1.324v3.334h-4.021v-8.6h.834c.393 0 .711-.318.711-.711 0-.393-.318-.711-.71-.711h-.835v-5.263h.834c.393 0 .711-.319.711-.711 0-.393-.318-.711-.71-.711h-.835v-1.462c0-1.51-1.042-2.546-1.935-3.629v-2.948c0-.392-.319-.71-.711-.71-.393 0-.712.318-.712.71v2.948c-.896 1.087-1.935 2.11-1.935 3.629v1.462h-.876c-.392 0-.71.318-.71.71 0 .393.318.712.71.712h.876v5.263h-.876c-.392 0-.71.318-.71.71 0 .394.318.712.71.712h4.747v8.6h-2.448v-5.977c0-.393-.32-.712-.712-.712-.392 0-.71.319-.71.712v5.977h-1.15c-.393 0-.711.319-.711.711 0 .393.318.712.711.712h1.15V83.56c0 .92.747 1.668 1.667 1.668H82.88c.92 0 1.668-.748 1.668-1.668V73.287h1.149c.392 0 .71-.319.71-.712 0-.392-.318-.71-.71-.71z"/>
                    <path d="M62.136 0C27.819 0 0 27.82 0 62.136c0 34.317 27.82 62.136 62.136 62.136 34.317 0 62.136-27.82 62.136-62.136C124.272 27.819 96.452 0 62.136 0m0 2.913c7.996 0 15.752 1.565 23.051 4.653 7.052 2.982 13.386 7.253 18.826 12.693 5.44 5.44 9.71 11.774 12.693 18.825 3.088 7.3 4.653 15.056 4.653 23.052s-1.565 15.752-4.653 23.051c-2.982 7.052-7.253 13.386-12.693 18.826-5.44 5.44-11.774 9.71-18.826 12.693-7.3 3.088-15.055 4.653-23.051 4.653-7.996 0-15.752-1.565-23.052-4.653-7.051-2.982-13.385-7.253-18.825-12.693-5.44-5.44-9.71-11.774-12.693-18.826-3.088-7.3-4.653-15.055-4.653-23.051 0-7.996 1.565-15.752 4.653-23.052 2.982-7.051 7.253-13.385 12.693-18.825 5.44-5.44 11.774-9.71 18.825-12.693 7.3-3.088 15.056-4.653 23.052-4.653"/>
                    <path d="M25.977 97.958c-.063 0-.126-.025-.173-.073-.994-1.01-1.958-2.075-2.865-3.165-.23-.275-.456-.554-.68-.835-.084-.104-.067-.257.038-.34.105-.084.258-.067.341.038.222.278.447.554.674.827.899 1.08 1.853 2.134 2.838 3.135.094.095.093.249-.003.343-.047.046-.109.07-.17.07m68.908 3.163c-.07 0-.138-.029-.186-.086-.087-.102-.074-.255.029-.342 11.371-9.622 17.893-23.675 17.893-38.557 0-27.838-22.647-50.486-50.485-50.486S11.651 34.298 11.651 62.136c0 9.996 2.915 19.658 8.431 27.943.075.112.044.262-.067.337-.112.074-.263.043-.337-.068-5.57-8.365-8.513-18.12-8.513-28.212 0-28.106 22.865-50.971 50.971-50.971 28.105 0 50.97 22.865 50.97 50.97 0 15.026-6.584 29.215-18.065 38.93-.046.037-.101.056-.156.056m-32.749 11.986c-12.797 0-25.033-4.762-34.455-13.409-.099-.09-.105-.244-.015-.343.09-.098.244-.105.343-.014 9.332 8.564 21.452 13.28 34.127 13.28 10.071 0 19.795-2.956 28.12-8.55.111-.075.262-.045.337.066.075.111.045.262-.066.337-8.406 5.648-18.223 8.633-28.391 8.633"/>
                </g>
            </g>
        </g>
    </g>
</svg>
