<svg xmlns="http://www.w3.org/2000/svg" width="125" height="125" viewBox="0 0 125 125">
    <defs>
        <radialGradient id="807fvw979a" cx="48.698%" cy="-85.945%" r="252.532%" fx="48.698%" fy="-85.945%">
            <stop offset="0%" stop-color="#547F9B"/>
            <stop offset="100%" stop-color="#304E60"/>
        </radialGradient>
    </defs>
    <g fill="none" fill-rule="evenodd">
        <g fill="url(#807fvw979a)" fill-rule="nonzero" transform="translate(-1166 -1683)">
            <g>
                <path d="M1084.507 182.122c34.45 0 62.378 27.929 62.378 62.378 0 34.45-27.928 62.378-62.378 62.378-34.449 0-62.378-27.929-62.378-62.378 0-34.45 27.929-62.378 62.378-62.378zm-.005 2.923l-.79.004c-7.68.087-15.274 1.672-22.353 4.668-30.256 12.782-44.42 47.672-31.638 77.927 12.782 30.256 47.671 44.421 77.927 31.64 26.042-11.025 40.719-38.862 35.103-66.578-5.616-27.715-29.972-47.643-58.251-47.66l.002-.001zm-34.261 96.804c17.24 15.81 43.059 17.773 62.49 4.749.111-.066.255-.033.327.074.071.108.047.253-.057.33-8.424 5.666-18.349 8.684-28.501 8.668-12.81.014-25.157-4.791-34.588-13.46-.1-.091-.107-.246-.016-.345.09-.1.245-.107.345-.016zm34.259-88.519c28.214 0 51.17 22.956 51.17 51.17.01 15.063-6.627 29.362-18.136 39.079-.045.038-.1.058-.159.058-.101 0-.192-.064-.226-.16-.035-.095-.007-.202.07-.268 11.4-9.626 17.972-23.79 17.963-38.709 0-27.946-22.736-50.682-50.682-50.682s-50.682 22.736-50.682 50.682c-.016 9.983 2.93 19.745 8.465 28.053.073.109.048.257-.059.334-.054.036-.12.049-.183.036-.064-.013-.12-.05-.156-.104-5.59-8.386-8.567-18.241-8.555-28.319 0-28.214 22.956-51.17 51.17-51.17zm-39.652 82.759c.222.28.449.555.678.83.901 1.085 1.859 2.142 2.848 3.146.07.07.089.175.05.266-.038.09-.127.15-.225.149v-.01c-.065 0-.127-.025-.173-.07-.997-1.015-1.964-2.084-2.875-3.169-.231-.277-.458-.557-.683-.838-.057-.067-.074-.16-.042-.244.031-.083.105-.143.193-.155.088-.013.176.024.23.095zm39.647-54.771c.394 0 .714.32.714.714 0 .394-.32.714-.714.714-.62-.001-1.158.428-1.296 1.033-.138.605.162 1.225.722 1.492.56.268 1.23.113 1.615-.374.248-.297.688-.342.991-.102.304.241.36.68.127.99-.365.462-.87.796-1.44.95v1.337l4.055 1.884c2.53 1.181 4.15 3.72 4.156 6.513v7.015c0 .394-.32.714-.714.714-.394 0-.713-.32-.713-.714v-3.923h-14.996v6.62h1.825v-3.309c0-.394.32-.714.714-.714.395 0 .714.32.714.714v3.31h2.013v-3.936c0-1.233 1-2.232 2.232-2.232 1.233 0 2.232 1 2.232 2.232v3.935h2.044v-3.309c0-.394.32-.714.714-.714.395 0 .714.32.714.714v3.31h3.007c.973 0 1.762.788 1.762 1.761v1.55h4.006c.264-.016.516.117.652.343.137.227.137.511 0 .738-.136.227-.388.36-.652.344h-1.33v3.34h4.03v-8.632h-.839c-.394 0-.714-.32-.714-.714 0-.395.32-.714.714-.714h.838v-5.285h-.843c-.264.015-.516-.117-.653-.344-.137-.227-.137-.511 0-.738.137-.227.389-.36.653-.344h.838v-1.462c0-1.525 1.05-2.55 1.95-3.642v-2.959c0-.394.32-.713.714-.713.394 0 .714.32.714.713v2.966c.901 1.089 1.949 2.127 1.949 3.643v1.462h.877c.265-.016.516.117.653.343.137.227.137.511 0 .738-.137.227-.388.36-.653.344H1107v5.285h.877c.394 0 .714.32.714.714 0 .394-.32.714-.714.714H1107v8.633h1.16c.394 0 .714.32.714.714 0 .394-.32.714-.714.714h-1.153v10.326c-.001.924-.75 1.673-1.674 1.674h-41.661c-.925 0-1.676-.749-1.677-1.674v-10.314h-1.152c-.395 0-.714-.32-.714-.714 0-.394.32-.714.714-.714h1.152v-6.001c0-.394.32-.714.714-.714.394 0 .714.32.714.714v5.982h2.459v-8.633h-4.764c-.394 0-.714-.32-.714-.714 0-.395.32-.714.714-.714h.877v-5.285h-.877c-.265.015-.516-.117-.653-.344-.137-.227-.137-.511 0-.738.137-.227.388-.36.653-.344h.877v-1.462c0-1.525 1.048-2.55 1.95-3.642v-2.959c0-.394.32-.713.713-.713.395 0 .714.32.714.713v2.966c.904 1.087 1.95 2.127 1.95 3.643v1.462h.838c.264-.016.516.117.653.343.137.227.137.511 0 .738-.137.227-.389.36-.653.344h-.838v5.285h.838c.394 0 .714.32.714.714 0 .394-.32.714-.714.714h-.838v8.638h4.03v-3.348h-1.33c-.395 0-.715-.32-.715-.714 0-.394.32-.714.714-.714h4.006v-1.552c.002-.89.665-1.638 1.548-1.747v-9.727c.006-2.793 1.625-5.332 4.156-6.513l4.055-1.884v-1.335c-1.338-.356-2.204-1.649-2.024-3.021.18-1.372 1.35-2.398 2.733-2.398zm11.725 29.6h-23.44v15.336h1.732v-6.15c0-1.232 1-2.232 2.232-2.232 1.233 0 2.232 1 2.232 2.232v6.15h1.823v-3.199c0-.394.32-.714.714-.714.394 0 .714.32.714.714v3.197l4.505.002v-8.898c0-.478-.387-.865-.865-.865h-2.77c-.478 0-.866.387-.866.865v2.32c0 .394-.32.713-.713.713-.395 0-.714-.32-.714-.714v-2.32c0-1.265 1.027-2.29 2.292-2.292h2.771c1.266.001 2.292 1.027 2.293 2.293v8.898h1.84v-6.15c-.027-.814.392-1.579 1.093-1.994.701-.415 1.573-.415 2.274 0 .702.415 1.12 1.18 1.094 1.994v6.15h1.76v-15.336zm-3.58 8.453c-.255-.153-.574-.153-.83 0-.255.154-.404.436-.387.733v6.148l1.605.002v-6.15c.017-.297-.133-.58-.388-.733zm8.934-.07c-.445 0-.805.36-.805.803v6.148l1.609.002v-6.15c0-.444-.36-.804-.804-.804zm-30.227-3.607h-7.924v10.314c0 .065.025.128.07.174.046.046.109.072.174.072h1.51v-6.15c0-1.232 1-2.232 2.232-2.232 1.233 0 2.232 1 2.232 2.232v6.15h1.706v-10.56zm-3.93 3.606c-.444 0-.804.36-.804.804v6.148l1.608.002v-6.15c0-.444-.36-.804-.804-.804zm9.327 0c-.444 0-.804.36-.804.804v6.148l1.608.002v-6.15c0-.444-.36-.804-.804-.804zm28.833-3.606h-7.936v10.56h1.705v-6.15c0-1.232 1-2.232 2.232-2.232 1.233 0 2.232 1 2.232 2.232v6.148h1.514c.134 0 .243-.11.243-.244h.01v-10.314zm0-10.061h-2.468l.005 8.633h2.463v-8.633zm-12.37 1.976h-17.423c-.184 0-.334.15-.334.334l.005.002v1.55h18.085v-1.552c0-.184-.15-.334-.334-.334zm-8.712-6.167c-.444 0-.804.36-.804.804v3.935h1.608v-3.935c0-.444-.36-.804-.804-.804zm21.082-2.522h-2.468l.005 5.285h2.463v-5.285zm-39.695 0h-2.459v5.285h2.459v-5.285zm18.613-9.605l-4.167 1.935c-2.027.947-3.325 2.98-3.33 5.219l.004 1.664h14.99v-1.664c-.004-2.238-1.302-4.272-3.33-5.22l-4.167-1.934zm19.832 4.447c-.546.675-1.218 1.32-1.218 2.263l.005 1.462h2.443v-1.462c0-.943-.672-1.588-1.23-2.263zm-39.686 0c-.545.675-1.218 1.32-1.218 2.263v1.462h2.437v-1.462c0-.943-.663-1.588-1.219-2.263z" transform="translate(144 1501)"/>
            </g>
        </g>
    </g>
</svg>
