<svg xmlns="http://www.w3.org/2000/svg" width="66" height="68" viewBox="0 0 66 68">
    <g fill="none" fill-rule="evenodd">
        <g>
            <g>
                <g>
                    <g>
                        <g>
                            <path fill="#38B3FF" d="M0 0h36c16.569 0 30 13.431 30 30v38H30C13.431 68 0 54.569 0 38V0z" transform="translate(-120 -666) translate(0 70) matrix(-1 0 0 1 1320 596) translate(1134)"/>
                            <path fill="#FFF" fill-rule="nonzero" d="M34.833 21.573c-.759 0-1.375.604-1.375 1.348v.625c-2.37.6-4.125 2.706-4.125 5.218v5.393L27.5 35.955v.899h5.747c-.161.273-.247.583-.247.899 0 .993.82 1.798 1.833 1.798s1.834-.805 1.834-1.798c-.001-.316-.087-.626-.25-.9h5.75v-.898l-1.834-1.798v-5.393c0-2.512-1.753-4.618-4.125-5.218v-.625c0-.744-.616-1.348-1.375-1.348zm0 3.596c2.023 0 3.667 1.612 3.667 3.595v6.138l.158.154h-7.649l.158-.154v-6.138c0-1.983 1.644-3.595 3.666-3.595z" transform="translate(-120 -666) translate(0 70) matrix(-1 0 0 1 1320 596) translate(1134) rotate(38 34.833 30.562)"/>
                        </g>
                    </g>
                </g>
            </g>
        </g>
    </g>
</svg>
