<svg xmlns="http://www.w3.org/2000/svg" width="25" height="25" viewBox="0 0 25 25">
    <g fill="none" fill-rule="evenodd">
        <g fill="#A0A0A0" fill-rule="nonzero">
            <path d="M266.5 524c-6.892 0-12.5 5.608-12.5 12.5s5.608 12.5 12.5 12.5 12.5-5.608 12.5-12.5-5.608-12.5-12.5-12.5zm0 1.875c5.88 0 10.625 4.746 10.625 10.625 0 5.88-4.746 10.625-10.625 10.625-5.88 0-10.625-4.746-10.625-10.625 0-5.88 4.746-10.625 10.625-10.625zm0 3.125c-2.06 0-3.75 1.69-3.75 3.75v1.425c-1.085.39-1.875 1.425-1.875 2.638v3.125c0 1.542 1.27 2.812 2.813 2.812h5.625c1.542 0 2.812-1.27 2.812-2.813v-3.125c0-1.542-1.27-2.812-2.813-2.812h-4.687v-1.25c0-1.046.829-1.875 1.875-1.875.825 0 1.513.526 1.769 1.251.172.489.708.745 1.196.573.489-.173.745-.708.573-1.197-.516-1.46-1.913-2.502-3.538-2.502zm-2.662 6.875h5.474c.53 0 .938.408.938.938v3.125c0 .529-.408.937-.938.937h-5.625c-.529 0-.937-.408-.937-.938v-3.125c0-.498.364-.885.848-.928.08.007.16.004.24-.009zm2.662 1.25c-.69 0-1.25.56-1.25 1.25s.56 1.25 1.25 1.25 1.25-.56 1.25-1.25-.56-1.25-1.25-1.25z" transform="translate(-254 -524)"/>
        </g>
    </g>
</svg>
