<svg xmlns="http://www.w3.org/2000/svg" width="125" height="125" viewBox="0 0 125 125">
    <defs>
        <radialGradient id="j2eyxiufqa" cx="19.829%" cy="-2805.437%" r="5478.038%" fx="19.829%" fy="-2805.437%">
            <stop offset="0%" stop-color="#547F9B"/>
            <stop offset="100%" stop-color="#304E60"/>
        </radialGradient>
    </defs>
    <g fill="none" fill-rule="evenodd">
        <g fill="url(#j2eyxiufqa)" fill-rule="nonzero" transform="translate(-556 -1683)">
            <g>
                <path d="M474.507 182.122c34.45 0 62.378 27.929 62.378 62.378 0 34.45-27.928 62.378-62.378 62.378-34.449 0-62.378-27.929-62.378-62.378 0-34.45 27.929-62.378 62.378-62.378zm-.005 2.923l-.79.004c-7.68.087-15.274 1.672-22.353 4.668-30.256 12.782-44.42 47.672-31.638 77.927 12.782 30.256 47.671 44.421 77.927 31.64 26.042-11.025 40.719-38.862 35.103-66.578-5.616-27.715-29.972-47.643-58.251-47.66l.002-.001zm-34.261 96.804c17.24 15.81 43.059 17.773 62.49 4.749.111-.066.255-.033.327.074.071.108.047.253-.057.33-8.424 5.666-18.349 8.684-28.501 8.668-12.81.014-25.157-4.791-34.588-13.46-.1-.091-.107-.246-.016-.345.09-.1.245-.107.345-.016zM474.5 193.33c28.214 0 51.17 22.956 51.17 51.17.01 15.063-6.627 29.362-18.136 39.079-.045.038-.1.058-.159.058-.101 0-.192-.064-.226-.16-.035-.095-.007-.202.07-.268 11.4-9.626 17.972-23.79 17.963-38.709 0-27.946-22.736-50.682-50.682-50.682s-50.682 22.736-50.682 50.682c-.016 9.983 2.93 19.745 8.465 28.053.073.109.048.257-.059.334-.054.036-.12.049-.183.036-.064-.013-.12-.05-.156-.104-5.59-8.386-8.567-18.241-8.555-28.319 0-28.214 22.956-51.17 51.17-51.17zm-39.652 82.759c.222.28.449.555.678.83.901 1.085 1.859 2.142 2.848 3.146.07.07.089.175.05.266-.038.09-.127.15-.225.149v-.01c-.065 0-.127-.025-.173-.07-.997-1.015-1.964-2.084-2.875-3.169-.231-.277-.459-.557-.683-.838-.057-.067-.074-.16-.042-.244.031-.083.105-.143.193-.155.088-.013.176.024.23.095zm18.074-49.678c.34-.22.767-.254 1.137-.09.753.338 1.896.45 3.302.338 1.697-.136 3.405-.089 5.092.141.471.064.801.498.737.969-.064.47-.497.8-.968.737-1.566-.213-3.15-.257-4.725-.132-1.141.121-2.295.045-3.411-.224v2.14l14.62 5.762 4.936 1.95v-1.056c-5.197-3.852-12.534-5.387-12.607-5.402-.3-.06-.545-.277-.643-.568-.097-.29-.032-.61.17-.84.204-.23.514-.334.814-.273.302.063 6.906 1.44 12.266 4.99v-.828c-.373-.602-2.212-3.112-7.765-4.72-.44-.144-.686-.609-.558-1.053.128-.444.585-.706 1.033-.594 2.973.86 5.358 2.066 7.095 3.587.378.327.731.682 1.055 1.062 1.221-1.44 4.12-3.882 10.38-5.205 2.224-.47 4.504-.616 6.77-.433 1.408.11 2.548-.005 3.301-.34.373-.16.801-.126 1.143.094.338.22.542.595.54.999v2.193l1.034-.407c.432-.17.92-.116 1.305.146.384.26.614.695.615 1.16v1.64l2.405-.99c.392-.16.84-.115 1.191.12.352.237.564.633.564 1.057v3.558c-.007.473-.274.909-.697 1.125l-18.55 9.56 18.45 7.585c.478.193.79.658.79 1.174v6.15c-.001.424-.212.819-.563 1.055-.352.236-.798.282-1.19.122l-4.63-1.893-2.996.816c-.306.083-.633.049-.914-.097l-5.222-2.68c-.395-.23-.54-.729-.33-1.135.208-.406.699-.577 1.115-.389l5.06 2.6 2.976-.806c.269-.073.555-.056.814.049l4.164 1.705v-5.202l-19.525-8.026-6.138 3.167 9.077 4.676c.288.13.482.41.502.726.02.316-.135.618-.404.785-.27.167-.61.172-.883.012l-10.163-5.236-18.95 9.763c-.282.146-.608.181-.914.098l-2.997-.814-4.63 1.89c-.392.162-.838.117-1.19-.12-.352-.236-.562-.632-.562-1.056v-6.157c0-.516.312-.981.79-1.175l18.462-7.597-18.55-9.557c-.424-.216-.69-.652-.69-1.128v-3.558c0-.424.212-.82.564-1.056.352-.236.799-.281 1.191-.12l2.405.989v-1.64c0-.465.231-.899.615-1.16.384-.261.873-.316 1.305-.146l1.033.407v-2.193c.002-.405.207-.781.547-1.001zm49.112 6.59l-55.068 22.642v5.207l4.164-1.706c.259-.104.544-.122.814-.05l2.975.808 47.115-24.274v-2.627zM474.5 245.58c.631 0 1.143.512 1.143 1.143s-.512 1.143-1.143 1.143-1.143-.512-1.143-1.143c0-.63.512-1.143 1.143-1.143zm-27.534-12.578v2.627l19.615 10.1 5.665-2.324L446.966 233zm50.911-2.024l-23.063 9.083c-.202.08-.426.08-.628 0l-23.063-9.083v1.88l23.377 9.61 23.377-9.602v-1.888zm-2.955-2.827c-1.116.27-2.27.345-3.412.224-2.101-.168-4.216-.032-6.279.402-4.347.919-6.857 2.388-8.197 3.455-.658.498-1.226 1.103-1.681 1.791v.829c5.36-3.55 11.964-4.927 12.266-4.99.464-.095.917.205 1.011.67.094.464-.206.917-.67 1.01-.073.016-7.41 1.55-12.607 5.403l.012.002v1.055l4.937-1.949 14.62-5.763zm-12.832-14.888c.068 0 .1.134.1.397l-.039 10.434c.02.335-.113.66-.363.885-.18.107-.36.212-.536.319-.093.076-.175.165-.244.263-.056.078-.11.117-.158.117-.049 0-.102-.04-.16-.117-.068-.1-.15-.188-.245-.263l-.533-.32c-.252-.222-.387-.548-.366-.884v-.244h-.73c-.044 0-.08-.003-.113-.009h-.67v.392c.021.335-.114.662-.365.884-.18.105-.359.212-.536.322-.101.077-.193.165-.276.26-.043.063-.11.105-.185.118-.075-.013-.141-.055-.185-.117-.081-.098-.174-.185-.275-.26-.176-.111-.354-.219-.534-.323-.25-.224-.382-.55-.36-.884v-.392h-1.694c-.016.559-.251 1.09-.656 1.476-.371.328-.854.503-1.35.488-.364-.004-.724-.073-1.064-.203-.176-.063-.266-.129-.266-.2 0-.07.115-.121.341-.112.528.066 1.06-.095 1.462-.443.287-.273.445-.654.434-1.05.002-.2-.038-.399-.117-.583-.051-.135-.158-.241-.292-.292-.134-.049-.205-.095-.215-.141-.01-.047.08-.132.258-.29.25-.223.428-.39.534-.505.13-.15.245-.313.341-.487.098-.168.159-.244.18-.244.071 0 .132.132.186.398l.231 1.091h.752c.04-.016.093-.024.162-.024h1.886v1.462c0 .134.078.2.231.2.154 0 .244-.066.244-.2V222.3h-1.296c-.173 0-.261-.1-.261-.302v-.597c-.012-.463.163-.91.487-1.24.183-.191.405-.34.65-.434l.673-.244c.18-.087.344-.202.488-.339.077-.08.167-.148.265-.2.08 0 .122.11.122.327v3.438h.758c.059 0 .108.006.147.018l1.485.002c.132 0 .21.029.244.087.018.055.025.113.022.17v1.075c-.007.051.01.103.046.14.024.024.056.04.089.045h.05c.052.009.104-.008.142-.044.037-.037.055-.089.048-.14v-8.275c.02-.243-.038-.485-.165-.692-.074-.093-.179-.157-.295-.18-.107-.032-.159-.076-.159-.127 0-.052.105-.134.317-.293.3-.222.51-.385.629-.487.167-.153.319-.321.455-.502.135-.168.215-.244.244-.244zm-15.358 7.373c.207.183.386.394.534.627.242.294.458.61.645.943l-.005-.005c.178.349.272.734.276 1.126.035.571-.26 1.112-.758 1.393-.275.161-1.004.244-2.193.244-.278 0-.417-.046-.417-.139 0-.034.061-.12.18-.244.166-.187.269-.307.308-.36.098-.154.18-.317.243-.488.061-.143.117-.216.168-.216.052 0 .103.056.232.17.098.099.229.159.368.168.463 0 .694-.207.694-.623 0-.378-.231-.568-.69-.568-.143 0-.216-.066-.216-.2.03-.108.076-.21.139-.302.087-.15.16-.307.217-.47.043-.233.07-.468.078-.705.014-.234.08-.35.197-.35zm2.72-7.331c.024 0 .102.082.23.243.138.174.289.337.452.488.126.114.34.282.64.504.212.17.317.268.317.307 0 .051-.051.095-.158.127-.119.023-.225.087-.302.18-.123.209-.178.45-.159.692v7.995h-1.12V213.7c0-.262.031-.396.1-.396zm13.966 0c.024 0 .102.082.232.243.137.174.288.337.45.488.127.114.342.282.641.504.212.17.317.268.317.307 0 .051-.051.095-.158.127-.119.023-.226.087-.303.18-.122.209-.178.45-.158.692v7.995h-1.123V213.7c0-.262.034-.396.102-.396zm-18.294 7.358c.21.087.347.292.346.52 0 .148-.058.292-.163.397-.106.106-.249.165-.398.165-.227 0-.431-.138-.518-.348-.087-.21-.04-.45.121-.612.16-.16.402-.21.612-.122zm11.793-.014c-.136.026-.26.094-.356.195-.093.09-.145.215-.146.346h.502v-.541zm.405-3.328c.247.067.418.292.416.547.003.15-.056.294-.163.398-.105.106-.248.166-.397.166-.15 0-.292-.06-.397-.166-.183-.18-.221-.46-.094-.682.127-.222.388-.33.635-.263zm-1.058.15c.108.104.168.248.166.397 0 .268-.188.498-.45.55-.262.053-.525-.087-.628-.333-.103-.247-.017-.532.205-.68.221-.15.517-.122.707.066zm-4.388-5.918c0 .62-.263.931-.79.933H469.1c-.31-.022-.61.122-.787.38 0-.622.263-.932.787-.93h1.986c.313.02.613-.125.79-.383z" transform="translate(144 1501)"/>
            </g>
        </g>
    </g>
</svg>
