<svg xmlns="http://www.w3.org/2000/svg" width="50" height="35" viewBox="0 0 50 35">
    <g fill="none" fill-rule="evenodd">
        <g fill="#2F4D60" fill-rule="nonzero">
            <g>
                <g>
                    <path d="M66.095 36c-2.214 0-4.028 1.853-4.028 4.116 0 2.264 1.814 4.117 4.028 4.117 2.214 0 4.028-1.853 4.028-4.117 0-2.263-1.814-4.116-4.028-4.116zm0 2.058c1.125 0 2.014.909 2.014 2.058 0 1.15-.889 2.059-2.014 2.059-1.125 0-2.014-.909-2.014-2.059 0-1.15.89-2.058 2.014-2.058zm-36.25 5.146c-2.214 0-4.027 1.853-4.027 4.116s1.813 4.117 4.028 4.117c2.214 0 4.028-1.854 4.028-4.117s-1.814-4.116-4.028-4.116zm38.39 1.576c-.232-.004-.457.02-.693.064-1.891.362-3.185 2.247-2.831 4.18l.786 4.31-11.642 2.187c-.46-1.753-2.014-3.055-3.87-3.055-2.215 0-4.028 1.853-4.028 4.116 0 .14.02.282.031.418l-9.88 1.833-.724-3.923c-.307-1.693-1.774-2.895-3.398-2.927-.233-.004-.457.02-.693.065-1.892.361-3.186 2.247-2.832 4.18l.724 3.924-4.185.772.346 2.026 21.366-3.988c.212.301.476.57.755.804-.437.217-.66.716-.539 1.194.126.474.559.8 1.042.768h4.028c.48.024.913-.306 1.027-.784.114-.479-.118-.969-.555-1.178.669-.55 1.164-1.282 1.385-2.155L66.693 55.2l.189-.032c.043-.008.086-.02.126-.032l4.248-.772c.354.14.755.068 1.038-.193L75 53.656l-.346-2.026-2.266.418-.755-4.342c-.307-1.692-1.774-2.894-3.398-2.926zm-38.39.482c1.126 0 2.015.908 2.015 2.058s-.89 2.058-2.014 2.058c-1.125 0-2.014-.908-2.014-2.058s.889-2.058 2.014-2.058zm38.358 1.576c.704.008 1.314.518 1.448 1.254l.786 4.31-2.957.578-.787-4.341c-.154-.84.374-1.612 1.196-1.769.102-.02.212-.032.314-.032zm-36.249 7.204c.704.008 1.314.518 1.448 1.254l.723 3.923-2.958.547-.723-3.924c-.154-.84.373-1.612 1.195-1.768.103-.02.213-.032.315-.032zm18.03.482c1.125 0 2.014.908 2.014 2.058s-.889 2.058-2.014 2.058c-1.125 0-2.014-.908-2.014-2.058s.89-2.058 2.014-2.058zm17.275 2.573l-2.108.418 2.171 3.762c.189.326.535.515.881.515.173 0 .342-.032.504-.129.48-.29.63-.924.346-1.415l-1.794-3.151zm-29.515 5.531l-2.077.418-.566 3.699c-.087.562.267 1.069.818 1.157.05.008.106.033.157.033.488 0 .932-.394 1.007-.901l.66-4.406zm9.943.129c-.554.08-.944.607-.865 1.174.079.566.594.964 1.148.884h4.028c.362.004.7-.189.885-.51.181-.322.181-.716 0-1.038-.185-.321-.523-.514-.885-.51h-4.311zm0 3.087c-.554.08-.944.607-.865 1.174.079.567.594.965 1.148.884h4.028c.362.004.7-.189.885-.51.181-.322.181-.716 0-1.037-.185-.322-.523-.515-.885-.51h-4.311zm-2.014 3.087c-.554.08-.944.607-.865 1.174.079.567.594.965 1.149.885h8.055c.362.004.7-.19.885-.51.18-.322.18-.716 0-1.038-.185-.322-.523-.515-.885-.51h-8.339z" transform="translate(-195 -1438) translate(170 1315) translate(0 87)"/>
                </g>
            </g>
        </g>
    </g>
</svg>
