<svg xmlns="http://www.w3.org/2000/svg" xmlns:xlink="http://www.w3.org/1999/xlink" width="125" height="125" viewBox="0 0 125 125">
    <defs>
        <radialGradient id="hye8ivmqjb" cx="50.682%" cy=".005%" r="50%" fx="50.682%" fy=".005%">
            <stop offset="0%" stop-color="#547F9B"/>
            <stop offset="100%" stop-color="#304E60"/>
        </radialGradient>
        <path id="me322x7bpa" d="M62.5 0C27.982 0 0 27.983 0 62.5 0 97.018 27.982 125 62.5 125c34.517 0 62.5-27.982 62.5-62.5C125 27.983 97.017 0 62.5 0z"/>
    </defs>
    <g fill="none" fill-rule="evenodd">
        <g>
            <g>
                <g>
                    <mask id="yz329c03zc" fill="#fff">
                        <use xlink:href="#me322x7bpa"/>
                    </mask>
                    <path fill="url(#hye8ivmqjb)" d="M62.5 0C27.982 0 0 27.983 0 62.5 0 97.018 27.982 125 62.5 125c34.517 0 62.5-27.982 62.5-62.5C125 27.983 97.017 0 62.5 0z" mask="url(#yz329c03zc)"/>
                </g>
                <g fill="#FEFEFE">
                    <path d="M80.584 85.439c-2.071 0-3.757-1.685-3.757-3.755 0-.888.992-2.899 3.757-5.7 2.767 2.802 3.758 4.812 3.758 5.7 0 2.07-1.686 3.755-3.758 3.755zm.703-10.772c-.387-.382-1.018-.382-1.405 0-1.347 1.331-4.482 4.68-4.482 7.017 0 2.857 2.326 5.182 5.184 5.182 2.86 0 5.185-2.325 5.185-5.182 0-2.337-3.135-5.686-4.482-7.017zm4.152-3.909c0 .006-.006.012-.012.012h-9.685c-.006 0-.012-.006-.012-.012v-1.405c0-.006.006-.011.012-.011h9.685c.006 0 .012.005.012.011v1.405zM61.602 44.964c-.394 0-.714-.32-.714-.714v-3.975c0-.394.32-.714.714-.714h4.652c.394 0 .714.32.714.714v3.975c0 .394-.32.714-.714.714h-4.652zm1.332 4.129h1.987v-2.701h-1.987v2.7zm-12.427 10.73h5.063V52.97h-5.063v6.853zm-1.428.714c0 .394-.32.714-.714.714-.393 0-.713-.32-.713-.714v-8.28c0-.394.32-.714.713-.714.394 0 .714.32.714.713v8.281zM59.46 43.31h-7.097c-.577 0-1.047-.47-1.047-1.047 0-.57.477-1.05 1.047-1.047h7.097v2.094zm8.935-2.094h7.097c.578 0 1.047.47 1.047 1.047 0 .566-.478 1.05-1.047 1.047h-7.097v-2.094zM85.44 67.915v-2.123c0-.394-.32-.714-.714-.714-.394 0-.714.32-.714.714v2.122h-6.853V61.56c0-.957-.778-1.736-1.735-1.736h-3.137V52.97h6.033c3.139 0 5.692 2.554 5.692 5.692v3.798c0 .395.32.714.714.714.394 0 .714-.32.714-.714v-3.798c0-3.925-3.194-7.12-7.12-7.12h-6.214c-.47-1.42-1.811-2.45-3.389-2.45H66.35V46.39c.971-.043 1.776-.735 1.99-1.652h7.153c1.341.006 2.475-1.132 2.475-2.474 0-1.365-1.11-2.475-2.475-2.475H68.34c-.221-.947-1.072-1.655-2.085-1.655h-4.652c-1.013 0-1.864.708-2.085 1.655h-7.154c-1.354-.007-2.475 1.125-2.475 2.475 0 1.364 1.11 2.474 2.475 2.474h7.153c.215.917 1.02 1.61 1.99 1.652v2.704H59.14c-1.577 0-2.918 1.028-3.388 2.45h-5.367c-.294-.831-1.088-1.428-2.019-1.428-.93 0-1.724.597-2.018 1.428h-7.5c-.394 0-.714.32-.714.713 0 .395.32.714.714.714h7.377v6.853h-7.377c-.394 0-.714.32-.714.714 0 .395.32.714.714.714h7.5c.294.831 1.088 1.428 2.018 1.428.931 0 1.725-.597 2.02-1.428h5.365c.471 1.422 1.812 2.45 3.39 2.45h1.206c.394 0 .714-.319.714-.714 0-.394-.32-.713-.714-.713h-1.207c-1.069 0-1.957-.787-2.116-1.813l-.001-.007c.029-.131-.03-7.865 0-8.115v-.005c.159-1.025 1.048-1.814 2.117-1.814h9.577c1.07 0 1.958.789 2.117 1.814v.005c.111.95.097 7.282 0 8.115v.007c-.16 1.026-1.048 1.813-2.117 1.813h-5.039c-.394 0-.713.32-.713.713 0 .395.32.714.713.714h5.04c1.577 0 2.917-1.028 3.388-2.45h3.318c.17 0 .307.138.307.308v6.356c-.788.006-1.427.648-1.427 1.438v1.405c0 .794.645 1.44 1.439 1.44h9.685c.794 0 1.44-.646 1.44-1.44v-1.405c0-.79-.64-1.432-1.428-1.438z"/>
                    <path d="M62.5.122C28.05.122.122 28.049.122 62.5c0 34.45 27.927 62.378 62.378 62.378 34.45 0 62.378-27.927 62.378-62.378C124.878 28.05 96.951.122 62.5.122m0 2.924c8.028 0 15.813 1.571 23.141 4.67 7.08 2.995 13.438 7.283 18.9 12.744 5.46 5.46 9.748 11.82 12.742 18.899 3.1 7.328 4.671 15.113 4.671 23.141 0 8.028-1.571 15.813-4.67 23.141-2.995 7.08-7.283 13.438-12.744 18.9-5.46 5.46-11.82 9.748-18.899 12.742-7.328 3.1-15.113 4.671-23.141 4.671-8.028 0-15.813-1.571-23.141-4.67-7.08-2.995-13.438-7.283-18.9-12.744C15 99.08 10.712 92.72 7.718 85.641c-3.1-7.328-4.671-15.113-4.671-23.141 0-8.028 1.571-15.813 4.67-23.141 2.995-7.08 7.283-13.438 12.744-18.9C25.92 15 32.28 10.712 39.359 7.718c7.328-3.1 15.113-4.671 23.141-4.671"/>
                    <path d="M26.2 98.461c-.063 0-.126-.024-.174-.073-.998-1.013-1.965-2.082-2.876-3.176-.23-.277-.458-.557-.683-.839-.084-.105-.066-.258.039-.342.105-.084.258-.067.342.039.223.279.448.555.677.83.902 1.084 1.86 2.143 2.849 3.147.094.096.093.25-.003.344-.048.047-.11.07-.171.07m69.176 3.176c-.069 0-.138-.029-.186-.086-.087-.102-.074-.256.029-.343 11.416-9.66 17.963-23.768 17.963-38.708 0-27.946-22.736-50.682-50.682-50.682S11.818 34.554 11.818 62.5c0 10.035 2.927 19.735 8.465 28.052.074.112.044.263-.068.338-.113.075-.264.044-.338-.068-5.591-8.397-8.546-18.19-8.546-28.322 0-28.215 22.954-51.17 51.17-51.17 28.214 0 51.169 22.955 51.169 51.17 0 15.083-6.61 29.327-18.137 39.08-.045.038-.101.057-.157.057M62.5 113.67c-12.847 0-25.131-4.78-34.59-13.461-.098-.091-.105-.246-.014-.344.09-.1.245-.107.344-.015 9.368 8.597 21.535 13.332 34.26 13.332 10.11 0 19.872-2.968 28.23-8.584.111-.075.263-.045.338.067.075.112.045.263-.066.338-8.439 5.67-18.294 8.667-28.502 8.667"/>
                </g>
            </g>
        </g>
    </g>
</svg>
