<svg xmlns="http://www.w3.org/2000/svg" width="1440" height="335" viewBox="0 0 1440 335">
    <defs>
        <linearGradient id="prefix__a" x1="50%" x2="50%" y1="0%" y2="100%">
            <stop offset="0%" stop-color="#59C2E9"/>
            <stop offset="100%" stop-color="#2D8FCE"/>
        </linearGradient>
    </defs>
    <g fill="none" fill-rule="evenodd">
        <path fill="url(#prefix__a)" d="M0 0H1440V335H0z"/>
        <g opacity=".311">
            <path fill="#48CBFE" d="M914.883 79.385C787.585-18.012 642.39-25.787 479.295 56.06c-30.47 15.292-111.841 61.35-178.467 109.267C234.2 213.244 98.053 287.432 0 273.043c39.463 17.581 164.159 40.415 288.563 23.768C412.968 280.164 637.331 87.14 763.854 72.067c68.146-8.12 118.49-5.68 151.029 7.318z" transform="translate(523 15)"/>
            <path fill="#ADADB1" d="M822.999 83.155c-41.567 1.441-80.734 11.727-117.502 30.856-64.134 33.366-178.28 115.616-239.037 159.395 20.9 4.097 149.446-.19 266.958-87.858 41.97-31.311 71.83-65.442 89.58-102.393z" transform="translate(523 15)"/>
        </g>
    </g>
</svg>
