<svg xmlns="http://www.w3.org/2000/svg" width="25" height="25" viewBox="0 0 25 25">
    <g fill="none" fill-rule="evenodd">
        <g fill="#2F4D60" fill-rule="nonzero">
            <path d="M273.469 597c-.125.01-.242.065-.328.157l-1.235 1.234-2.156-1.297c-.193-.12-.443-.095-.61.063l-1.234 1.234-2.156-1.297c-.193-.12-.443-.095-.61.063l-1.234 1.234-2.156-1.297c-.193-.12-.443-.095-.61.063l-1.234 1.234-2.156-1.297c-.098-.062-.213-.091-.328-.078-.158.024-.297.121-.371.264-.074.142-.076.312-.004.455 0 0 1.453 2.978 1.453 5.277 0 1.15-.332 1.93-.703 2.733-.115.25-.233.502-.344.765H256c-1.07 0-2 .875-2 1.999V622h25v-13.491c0-1.07-.875-1.999-2-1.999h-2.563c.083-.177.174-.347.266-.53.375-.75.797-1.619.797-2.968 0-2.697-1.547-5.715-1.547-5.715-.084-.189-.277-.308-.484-.296zm-11.875 1.14l2.156 1.297c.193.12.443.095.61-.063l1.234-1.233 2.156 1.296c.193.12.443.095.61-.063l1.234-1.233 2.156 1.296c.193.12.443.095.61-.063l.968-.968c.36.806 1.172 2.742 1.172 4.606 0 1.15-.328 1.78-.703 2.53-.375.75-.797 1.618-.797 2.967 0 2.172.857 4.151 1.25 4.997h-14.906c-.088-.21-.313-.719-.625-1.656-.367-1.102-.719-2.467-.719-3.341 0-.875.324-1.536.703-2.358.379-.822.797-1.79.797-3.139 0-1.657-.502-3.167-.953-4.294l1.203.719c.193.12.443.095.61-.063l1.234-1.233zM256 607.51h1.125c-.072.31-.125.638-.125.999 0 1.124.398 2.508.781 3.654.383 1.145.766 2.045.766 2.045.08.18.258.295.453.297h16c.174.002.334-.088.426-.232.094-.147.103-.33.027-.486 0 0-1.453-2.979-1.453-5.278 0-.383.047-.709.11-1H277c.576 0 1 .47 1 1V621h-23v-12.492c0-.576.47-1 1-1zm2.656 7.495c-.635 0-1.156.46-1.156 1.093v2.748c0 .634.521 1.155 1.156 1.155h15.688c.635 0 1.11-.449 1.203-1.015v-2.826c0-.634-.506-1.155-1.14-1.155h-15.75zm0 .999h15.75c.065 0 .14.092.14.156v2.67c-.023.045-.144.172-.202.172h-15.688c-.064 0-.156-.092-.156-.156v-2.748c0 .033.092-.094.156-.094zm2.844.546c-.25 0-.453.203-.453.453v1.046c0 .25.203.453.453.453h1.047c.25 0 .453-.203.453-.453v-1.046c0-.25-.203-.453-.453-.453H261.5zm4.5 0c-.25 0-.453.203-.453.453v1.046c0 .25.203.453.453.453h1.047c.25 0 .453-.203.453-.453v-1.046c0-.25-.203-.453-.453-.453H266zm4.5 0c-.25 0-.453.203-.453.453v1.046c0 .25.203.453.453.453h1.047c.25 0 .453-.203.453-.453v-1.046c0-.25-.203-.453-.453-.453H270.5z" transform="translate(-254 -597)"/>
        </g>
    </g>
</svg>
