<svg xmlns="http://www.w3.org/2000/svg" width="125" height="125" viewBox="0 0 125 125">
    <defs>
        <radialGradient id="cnp6k5xzma" cx="48.865%" cy="-78.321%" r="256.859%" fx="48.865%" fy="-78.321%">
            <stop offset="0%" stop-color="#547F9B"/>
            <stop offset="100%" stop-color="#304E60"/>
        </radialGradient>
    </defs>
    <g fill="none" fill-rule="evenodd">
        <g fill="url(#cnp6k5xzma)" fill-rule="nonzero" transform="translate(-144 -1683)">
            <g>
                <path d="M62.378 182c34.45 0 62.378 27.929 62.378 62.378 0 34.45-27.929 62.378-62.378 62.378C27.928 306.756 0 278.827 0 244.378 0 209.928 27.929 182 62.378 182zm-.005 2.923l-.79.005c-7.68.087-15.274 1.671-22.353 4.667-30.256 12.782-44.421 47.672-31.639 77.928 12.783 30.256 47.672 44.42 77.928 31.638 26.041-11.024 40.719-38.861 35.103-66.577-5.617-27.715-29.972-47.643-58.251-47.66l.002-.001zm-34.261 96.804c17.24 15.811 43.059 17.773 62.49 4.75.111-.067.255-.034.326.073.072.108.048.253-.056.33-8.424 5.666-18.35 8.684-28.501 8.668-12.81.014-25.157-4.79-34.588-13.46-.1-.091-.107-.245-.016-.345.09-.1.245-.107.345-.016zM62.37 193.21c28.214 0 51.17 22.955 51.17 51.17.009 15.062-6.627 29.361-18.137 39.078-.044.038-.1.059-.158.059-.101-.001-.192-.065-.226-.16-.035-.096-.007-.203.07-.27 11.4-9.625 17.972-23.788 17.963-38.708 0-27.946-22.736-50.682-50.682-50.682s-50.682 22.736-50.682 50.682c-.016 9.983 2.93 19.746 8.465 28.053.073.11.047.257-.059.334-.054.036-.12.05-.184.036-.063-.012-.119-.05-.155-.104-5.59-8.386-8.567-18.24-8.555-28.319 0-28.214 22.956-51.17 51.17-51.17zm-39.652 82.758c.222.28.449.555.678.83.901 1.085 1.859 2.143 2.848 3.146.069.07.089.175.05.266-.038.09-.127.15-.225.149v-.01c-.065 0-.127-.025-.173-.07-.997-1.014-1.964-2.084-2.876-3.168-.23-.278-.458-.558-.682-.839-.058-.067-.074-.16-.042-.244.031-.083.105-.142.193-.155.088-.013.176.024.23.095zm59.669-55.46c1.076-.808 2.604-.59 3.411.487l.451.602c.807 1.076.59 2.603-.487 3.41l-6.682 5.013c-.14.105-.311.161-.487.16-.038.003-.076.003-.114 0-.214-.028-.408-.143-.537-.316l-.711-.95-1.706 1.272c-.317.238-.495.62-.472 1.016l.08 1.462c.054.939-.366 1.843-1.118 2.407l-1.706 1.27 3.67 4.892c.326.435.448.99.333 1.52h1.49c.215 0 .423.086.575.239.153.152.239.36.238.576v7.31h5.685c.448 0 .811.363.811.811v8.121c0 .449-.363.813-.811.814h-5.685v7.31c0 .216-.086.423-.239.575-.152.152-.36.237-.575.237H38.816c-.215 0-.422-.086-.574-.238-.152-.152-.238-.359-.238-.574v-8.124c0-.448.364-.81.812-.81h5.687v-6.5h-5.687c-.448 0-.812-.363-.812-.81v-8.112c0-.216.085-.423.237-.576.152-.153.36-.238.575-.238h19.062l6.674-12.427c.292-.547.844-.905 1.462-.948.644-.046 1.267.241 1.652.76l3.65 4.9 1.705-1.272c.318-.238.496-.62.473-1.016l-.08-1.462c-.054-.939.366-1.843 1.118-2.407l1.706-1.27-.714-.95c-.269-.36-.196-.868.163-1.138zm-18.392 40.116H52.624v6.496h11.372v-6.496zm12.995 0H65.619v6.496H76.99v-6.496zm-26-.005H39.623l.008 6.497h11.362v-6.497zm19.501-8.118h-11.37v6.498h11.37V252.5zm12.997 0H72.117v6.498H83.49V252.5zm-25.991-.005h-11.38l.008 6.503h11.372v-6.503zm-.488-8.117h-4.386v6.501h11.372v-4.386l-5.178 1.102c-.72.154-1.465-.133-1.895-.731-.446-.58-.507-1.372-.156-2.018l.243-.468zm19.98 0h-3.045l-8.326 1.767v4.732H76.99v-6.499zm-25.998 0h-11.37v1.62h1.623c.448 0 .812.364.812.812 0 .448-.364.811-.812.811h-1.623l.008 3.256h11.362v-6.499zm-3.241 1.625c.448 0 .811.364.811.812 0 .448-.363.811-.811.811h-3.248c-.448 0-.811-.363-.811-.811 0-.448.363-.812.81-.812zm18.397-15h-.013c-.063.003-.12.039-.148.095l-7.805 14.508c-.044.092-.03.2.034.278.058.083.159.126.259.11l16.113-3.426c.062-.012.113-.057.132-.117.028-.084.011-.175-.044-.244l-3.655-4.893-3.36 2.515c-.359.27-.868.197-1.137-.162s-.196-.868.162-1.137l3.36-2.514-3.681-4.898c-.05-.07-.13-.113-.217-.115zm17.816-9.36c-.213-.03-.43.025-.601.155l-6.053 4.54 1.425 1.902 6.053-4.542c.359-.268.432-.776.163-1.135l-.453-.602c-.129-.173-.32-.287-.534-.318z" transform="translate(144 1501)"/>
            </g>
        </g>
    </g>
</svg>
