<svg xmlns="http://www.w3.org/2000/svg" xmlns:xlink="http://www.w3.org/1999/xlink" width="125" height="125" viewBox="0 0 125 125">
    <defs>
        <radialGradient id="svmaqwmlwb" cx="50.682%" cy=".005%" r="50%" fx="50.682%" fy=".005%" gradientTransform="scale(-.99379 -1) rotate(-89.404 -.002 .514)">
            <stop offset="0%" stop-color="#547F9B"/>
            <stop offset="100%" stop-color="#304E60"/>
        </radialGradient>
        <path id="919qmrkeca" d="M62.38 0C27.928 0 0 27.755 0 61.993c0 34.237 27.928 61.992 62.38 61.992 34.451 0 62.38-27.755 62.38-61.992C124.76 27.755 96.831 0 62.38 0z"/>
    </defs>
    <g fill="none" fill-rule="evenodd">
        <g>
            <g>
                <g transform="translate(0 .387)">
                    <mask id="f18ipzzmfc" fill="#fff">
                        <use xlink:href="#919qmrkeca"/>
                    </mask>
                    <path fill="url(#svmaqwmlwb)" d="M62.38 0C27.928 0 0 27.755 0 61.993c0 34.237 27.928 61.992 62.38 61.992 34.451 0 62.38-27.755 62.38-61.992C124.76 27.755 96.831 0 62.38 0z" mask="url(#f18ipzzmfc)"/>
                </g>
                <path fill="#FEFEFE" d="M62.767 1.282c34.171 0 61.872 27.528 61.872 61.485 0 33.958-27.7 61.485-61.872 61.485-34.17 0-61.871-27.527-61.871-61.485 0-33.957 27.7-61.485 61.871-61.485zm0 2.883c-7.962 0-15.685 1.548-22.953 4.604-7.022 2.951-13.329 7.177-18.746 12.56-5.416 5.383-9.669 11.65-12.639 18.628-3.074 7.224-4.633 14.898-4.633 22.81 0 7.913 1.559 15.587 4.633 22.81 2.97 6.978 7.223 13.246 12.64 18.629 5.416 5.383 11.723 9.609 18.745 12.56 7.268 3.055 14.991 4.604 22.953 4.604 7.963 0 15.685-1.549 22.954-4.604 7.022-2.951 13.329-7.177 18.746-12.56 5.416-5.383 9.669-11.65 12.639-18.629 3.074-7.223 4.633-14.897 4.633-22.81 0-7.912-1.559-15.586-4.633-22.81-2.97-6.978-7.223-13.245-12.64-18.628-5.416-5.383-11.723-9.609-18.745-12.56-7.269-3.056-14.991-4.604-22.954-4.604zM28.786 99.582c9.292 8.475 21.36 13.142 33.982 13.142 10.028 0 19.71-2.926 28-8.46.11-.075.26-.045.336.065.074.11.045.26-.066.333-8.37 5.588-18.145 8.542-28.27 8.542-12.743 0-24.927-4.712-34.309-13.268-.098-.09-.105-.242-.015-.339.09-.098.243-.105.342-.015zm33.982-87.251c27.985 0 50.754 22.625 50.754 50.436 0 14.868-6.557 28.908-17.99 38.52-.045.039-.1.057-.155.057-.069 0-.137-.028-.185-.085-.086-.1-.073-.252.029-.338 11.323-9.521 17.817-23.427 17.817-38.154 0-27.546-22.551-49.956-50.27-49.956-27.72 0-50.271 22.41-50.271 49.956 0 9.891 2.903 19.453 8.396 27.65.074.111.043.26-.067.334-.112.074-.262.043-.336-.067-5.545-8.277-8.477-17.93-8.477-27.917 0-27.81 22.768-50.436 50.755-50.436zm-39.33 81.554c.22.275.444.548.67.818.895 1.069 1.846 2.112 2.826 3.102.094.095.093.247-.002.34-.047.046-.109.069-.17.069-.063 0-.125-.024-.172-.072-.99-1-1.95-2.053-2.853-3.131-.228-.273-.454-.549-.677-.827-.083-.103-.066-.254.038-.337.104-.082.257-.066.34.038zM82.62 39.23c1.068-.795 2.582-.58 3.384.48l.448.593c.8 1.061.584 2.566-.483 3.362l-6.647 4.955c-.14.104-.31.16-.484.16-.038 0-.076-.002-.114-.008-.211-.03-.402-.142-.53-.312l-.707-.937-1.681 1.253c-.315.235-.491.611-.47 1.002l.081 1.442c.053.925-.364 1.816-1.11 2.372l-1.682 1.253 3.64 4.822c.323.429.444.975.33 1.499h1.478c.446 0 .806.358.806.8v7.206h5.64c.444 0 .805.358.805.8v8.007c0 .441-.36.8-.806.8H78.88v7.205c0 .442-.36.8-.806.8h-38.67c-.445 0-.805-.358-.805-.8V77.98c0-.443.36-.801.806-.801h5.639v-6.405h-5.64c-.445 0-.805-.358-.805-.8v-8.007c0-.442.36-.8.806-.8h18.91l6.62-12.241c.289-.536.834-.888 1.445-.932.64-.047 1.258.236 1.64.749l3.64 4.822 1.68-1.253c.316-.235.492-.611.47-1.002l-.08-1.442c-.054-.926.364-1.816 1.11-2.371l1.68-1.253-.706-.937c-.267-.354-.195-.856.161-1.12zM51.49 78.779H40.21v6.405H51.49v-6.405zm25.78 0h-11.28v6.405h11.28v-6.405zm-12.89 0H53.1v6.405H64.38v-6.405zm-6.445-8.006H46.655v6.405h11.279v-6.405zm25.78 0h-11.28v6.405h11.28v-6.405zm-12.89 0H59.545v6.405h11.279v-6.405zm-19.335-8.006H40.21v1.601h1.611c.445 0 .806.359.806.8 0 .443-.36.802-.806.802h-1.61v3.202h11.278v-6.405zm5.96 0H53.1v6.405H64.38V64.85l-5.136 1.086c-.714.152-1.45-.127-1.88-.714-.445-.574-.51-1.355-.164-1.993l.25-.462zm19.82 0h-3.033L65.99 64.51v4.662h11.279v-6.405zm-29.003 1.601c.445 0 .806.359.806.8 0 .443-.36.802-.806.802h-3.222c-.445 0-.806-.359-.806-.801 0-.442.361-.8.806-.8zM66.517 49.59h-.016c-.063.003-.12.038-.147.094l-7.736 14.304c-.044.09-.03.197.034.274.057.082.156.124.255.109l15.983-3.378c.062-.01.113-.054.132-.114.03-.085.014-.18-.044-.25l-3.64-4.822-3.324 2.477c-.357.266-.861.194-1.128-.16-.267-.354-.195-.855.161-1.12l3.323-2.479-3.64-4.822c-.048-.07-.127-.112-.213-.113zm18.199-8.919c-.267-.353-.772-.425-1.128-.16l-6.002 4.475L79 46.86l6.003-4.476c.355-.265.428-.766.16-1.12z"/>
            </g>
        </g>
    </g>
</svg>
