<svg xmlns="http://www.w3.org/2000/svg" width="38" height="39" viewBox="0 0 38 39">
    <g fill="none" fill-rule="evenodd">
        <g fill="#2F4D60" fill-rule="nonzero">
            <g>
                <g>
                    <path d="M39.79 49.26h-6.478c-1.25 0-2.278 1.026-2.278 2.27v1.278c-.084.269-.01.559.19.757l2.942 5.156c.136.237.391.381.664.379h3.37l1.495 9.2c.02.284.201.533.465.642.264.11.57.062.786-.124.217-.186.312-.476.243-.754l-1.566-9.721v-.095c-.006-.074-.02-.145-.047-.213l-.19-1.206h21.261l-1.803 11.235c-.069.278.026.568.243.754.216.186.522.233.786.124.264-.11.445-.358.466-.642l1.495-9.2h3.369c.273.002.528-.142.664-.379l3.038-5.298c.065-.115.098-.245.095-.379v-1.513c0-1.204-.967-2.182-2.16-2.247-.035-.825-.15-1.552-.474-2.2-.297-.594-.742-1.1-1.33-1.537.105-.258.167-.536.167-.828 0-1.245-1.03-2.27-2.278-2.27-1.249 0-2.278 1.025-2.278 2.27s1.03 2.27 2.278 2.27c.395 0 .765-.106 1.092-.283.483.346.777.677.972 1.064.19.375.291.854.333 1.49H60.22c-.49-.87-19.944-.908-20.43 0zm5.742-9.697c-.027.023-.012.05-.048.07-.053.03-.1.039-.142.048.033-.006.125-.089.19-.118zm17.393 4.399c.427 0 .76.331.76.757 0 .183-.066.343-.167.473-.053.041-.1.089-.142.142-.125.088-.282.142-.45.142-.428 0-.76-.331-.76-.757s.332-.757.76-.757zm-29.613 6.812h26.244c.145.044.305.044.45 0h6.716c.42 0 .759.337.759.757v.757H32.552v-.757c0-.42.338-.757.76-.757zM66.935 53.8l-2.183 3.785h-2.681l.095-.568c.154-.925-.56-1.703-1.448-1.703H39.315c-.878 0-1.59.858-1.448 1.703l.095.568h-2.681L33.098 53.8h33.837zM43.487 44c.284 0 .513.212.513.473 0 .262-.23.474-.513.474-1.958 0-3.448 1.213-4.496 3.748-.1.245-.397.367-.661.274-.265-.094-.397-.367-.296-.611C39.22 45.488 41.047 44 43.487 44zM53.5 44c2.38 0 4.099.952 5.256 3.982.098.258-.03.547-.289.646-.258.098-.547-.031-.645-.29C56.799 45.662 55.41 45 53.5 45c-.276 0-.5-.224-.5-.5s.224-.5.5-.5zm-7.716-7.086c.062-.002.121.026.16.074.04.047.055.11.042.171-.04.218-.075.475-.095.706l-.019.183h-.183c-.2 0-.34.046-.435.138-.096.092-.17.25-.17.548 0 .28.089.522.214.687.124.166.28.24.372.24.024 0 .048.004.07.012.091-.006.183 0 .271.025.156.045.303.132.436.24.264.216.506.52.732.831.226.311.433.632.612.863.09.116.17.208.234.265.064.057.107.063.088.063.172 0 .352-.111.543-.258.192-.148.38-.347.67-.347.29 0 .477.2.669.347.192.147.37.258.543.258-.018 0 .025-.007.088-.063s.145-.15.234-.265c.177-.23.38-.546.606-.856.225-.31.467-.61.732-.826.197-.16.43-.278.67-.277.033-.021.073-.032.113-.031.162 0 .294-.074.404-.233.11-.16.183-.404.183-.693 0-.274-.077-.428-.177-.523-.1-.096-.244-.145-.43-.145h-.188l-.013-.183c-.02-.251-.055-.486-.095-.706-.01-.052 0-.107.03-.152.029-.045.075-.077.128-.087.11-.019.215.054.234.164.032.176.059.384.082.592.195.028.382.087.53.227.193.182.303.461.303.813 0 .355-.084.675-.252.92-.119.171-.286.3-.48.365-.244 2.503-1.396 5.037-2.52 6.136-.05.051-.168.064-.22.044-.052-.02-.069-.043-.082-.057-.026-.029-.034-.045-.044-.063l-.007.107c-.006.071-.013.133-.025.19-.006.028-.013.051-.025.081-.012.03-.018.067-.076.114-.34.276-.629.447-.915.447-.292 0-.607-.17-.992-.46-.384-.29-.816-.714-1.23-1.272-.061-.08-.065-.128-.083-.202-.017-.074-.028-.16-.038-.258v-.013c-.054.012-.115.011-.164-.013-.056-.026-.092-.064-.12-.1-.748-1.052-1.12-2.98-1.288-4.669-.166-.067-.316-.193-.435-.352-.179-.238-.297-.56-.297-.927s.098-.652.29-.837c.149-.143.343-.202.543-.227.023-.2.05-.41.082-.586.013-.08.073-.145.152-.164.013-.003.025-.005.038-.006zm.028 3.173c.162 1.534.523 3.23 1.09 4.148.032-.06.05-.104.095-.175.053-.079.155-.11.244-.073.088.036.138.13.12.223-.034.16-.035.357-.02.519.008.08.02.155.032.206.012.05.042.09.012.05.39.532.796.925 1.141 1.187.346.261.654.375.746.375.073 0 .334-.109.62-.331.007-.03.014-.073.02-.132.011-.122.014-.287.018-.45.004-.18.006-.358.006-.482v-.16c.001-.098.07-.18.166-.197.095-.016.19.037.223.127 0 0 .086.252.175.494.022.056.036.098.057.15.927-1.054 1.923-3.27 2.168-5.473-.103.013-.214.058-.35.169-.21.17-.437.452-.652.75-.216.297-.423.607-.615.855-.095.125-.185.234-.282.319-.096.085-.202.162-.35.162-.331 0-.583-.19-.784-.343-.2-.154-.367-.256-.42-.256-.052 0-.22.102-.42.256-.2.154-.453.343-.783.343-.15 0-.254-.076-.351-.162-.097-.086-.192-.194-.289-.319-.193-.25-.397-.563-.614-.862-.217-.299-.449-.58-.658-.75-.136-.11-.244-.157-.345-.168zm3.426-10.019c.542.071 1.09.187 1.78.367l.175.046.846.23c.631.185 1.245.866 1.877 1.984.09-.026.162-.053.215-.08l.046-.026.016-.012c.036-.133.166-.223.307-.205.156.019.266.16.247.315-.02.168-.125.302-.306.407.069-.022.144-.024.219-.004.211.058.336.276.278.487-.046.167-.172.293-.376.39.115.25.232.513.35.79l.07.165.073.178c.427 1.05 1.183 3.066 1.302 3.372l.028.068c.43 1.092-.455 2.743-2.604 5.008l-.17.178-.094.033c-.212.073-.373.11-.495.11-.229 0-.394-.154-.34-.389l.002-.012c.072-.24 1.04-2.635 1.332-3.372l.064-.163c.336-.873.398-1.47.239-1.903-.124-.337-.367-.583-.864-.91l-.125-.082c-.386-.261-.537-.613-.587-1.15l-.009-.104-.018-.27-.005-.07c-.04-.442-.12-.587-.378-.678-.289-.102-.522-.065-1.19.162l-.193.067-.111.037c-.805.266-1.308.316-1.916.09l-.188-.073c-1.053-.404-1.764-.611-2.417-.638-.88-.037-1.29.306-1.223 1.226l.008.101c.078 1.107-.269 2.505-.91 4.01l-.036.085c-.511 1.182-1.191 2.366-1.574 2.805-.072.083-.137.136-.218.16-.152.044-.284-.04-.335-.175-.04-.11-.037-.262-.006-.506l.004-.03c.024-.177.063-.398.123-.71l.2-1.016.044-.234.053-.288.024-.138.025-.151c.103-.623.16-1.126.164-1.527v-.106c.02-1.297.686-3.271 1.579-4.91-.203-.13-.34-.272-.421-.429-.1-.195-.023-.434.172-.534.17-.087.375-.039.49.105l.044.068.006.01c.02.034.054.069.101.104l.107-.17c-.322-.17-.497-.337-.497-.512 0-.157.127-.284.283-.284.11 0 .205.063.252.154.02.016.047.034.08.054l.054.032.053.03c.031.017.064.034.1.051.187-.255.377-.488.567-.693.823-.883 2.032-1.131 3.607-.925zm4.888 4.04l-.041.01c-.236.052-.52.09-.85.119l-.257.02-.098.007c-.182.011-.37.02-.565.025.053.012.11.029.17.05.29.102.477.29.578.553.062.163.086.305.105.583l.017.26.009.11c.04.426.144.66.413.832l.098.064c.573.378.874.683 1.04 1.132.202.553.13 1.256-.24 2.221l-.244.612c-.299.748-.76 1.896-.994 2.491l-.072.188c.047-.013.102-.03.164-.05l.125-.133c2.004-2.12 2.814-3.635 2.48-4.492l-.047-.12c-.186-.485-.987-2.616-1.366-3.523l-.114-.268-.06-.137c-.084-.192-.168-.377-.25-.554zm-9.485-.892l-.143.27c-.788 1.52-1.365 3.283-1.383 4.435v.105c-.005.446-.068.994-.183 1.673l-.026.149-.03.17-.05.269-.046.242-.204 1.039-.018.097-.038.214-.019.112c.36-.538.85-1.44 1.24-2.338.638-1.477.982-2.842.91-3.88l-.008-.1c-.089-1.214.56-1.763 1.694-1.715.702.03 1.427.236 2.486.64l.258.098c.512.19.945.136 1.724-.13l.202-.07c.284-.097.502-.164.686-.202-.622-.004-1.286-.04-1.962-.107l-.51-.056-.2-.025c-2.138-.268-3.556-.535-4.38-.89zm6.13 7.193c.057.092.023.207-.075.26-.144.074-.336.116-.568.152-.233.037-.499.06-.746.06s-.512-.023-.745-.06c-.233-.036-.425-.078-.569-.153-.097-.052-.131-.167-.075-.259.056-.09.18-.122.278-.07.037.02.224.072.435.106.212.034.458.059.676.059.218 0 .464-.025.676-.06.212-.033.398-.085.436-.105.098-.052.222-.02.278.07zm-5.616-8.056l-.033.052-.08.126c.679.255 2.001.52 3.912.767l.365.045.118.015c1.258.147 2.49.18 3.485.108.325-.024.611-.057.842-.099l-.026-.045c-.256.05-.563.085-.913.11-1.061.077-2.43.03-3.814-.14-1.303-.16-2.465-.433-3.392-.763-.169-.06-.324-.118-.464-.176zm9.162.802l-.108.046-.018.006.023.043.016-.005.013-.017c.022-.028.047-.052.074-.073zm-8.354-1.853c-.159.17-.317.362-.473.571.099.042.206.082.319.122.887.316 2.01.58 3.27.734 1.35.166 2.683.212 3.705.138.246-.018.47-.042.663-.072-.546-.936-1.06-1.507-1.531-1.648l-.652-.178-.36-.095-.172-.044c-.593-.15-1.077-.25-1.553-.312-1.445-.19-2.513.03-3.216.784zm8.218 1.313l.001-.01-.001.01.003-.018z" transform="translate(-1251 -2639) translate(0 2260) translate(1220 349)"/>
                </g>
            </g>
        </g>
    </g>
</svg>
