<svg xmlns="http://www.w3.org/2000/svg" width="33" height="35" viewBox="0 0 33 35">
    <g fill="none" fill-rule="evenodd">
        <g fill="#2F4D60" fill-rule="nonzero">
            <g>
                <g>
                    <path d="M791.696 36c-2.115 0-3.846 1.712-3.846 3.804 0 2.093 1.73 3.805 3.846 3.805 2.115 0 3.845-1.712 3.845-3.805 0-2.092-1.73-3.804-3.845-3.804zm16.151 0c-2.115 0-3.846 1.712-3.846 3.804 0 2.093 1.73 3.805 3.846 3.805 2.115 0 3.846-1.712 3.846-3.805 0-2.092-1.731-3.804-3.846-3.804zm-16.151 1.522c1.282 0 2.307 1.013 2.307 2.282 0 1.27-1.025 2.283-2.307 2.283-1.283 0-2.308-1.014-2.308-2.283s1.025-2.282 2.308-2.282zm16.151 0c1.283 0 2.307 1.013 2.307 2.282 0 1.27-1.024 2.283-2.307 2.283s-2.307-1.014-2.307-2.283 1.024-2.282 2.307-2.282zm-19.612 6.848c-2.326 0-4.23 1.884-4.23 4.184v9.369c-.007.047-.007.095 0 .142-.003.072.006.146.024.214.114 1.15 1.093 2.069 2.283 2.069.27 0 .526-.057.769-.143v8.774c0 1.112.92 2.021 2.043 2.021h1.298c.496 0 .916-.229 1.274-.523.357.294.778.523 1.273.523h1.298c1.124 0 2.043-.91 2.043-2.021v-4.97c.244.087.499.143.77.143v4.946c0 1.04.87 1.902 1.922 1.902h2.308c1.051 0 1.922-.862 1.922-1.902v-4.946c.27 0 .526-.056.77-.142v4.707c0 1.252 1.042 2.283 2.307 2.283.589 0 1.13-.229 1.538-.594.409.365.95.594 1.538.594 1.265 0 2.308-1.031 2.308-2.283V62.63h1.994c.505 0 .983-.258 1.25-.665v-.024c.268-.41.328-.9.193-1.355v-.024l-.313-.975c.778 0 1.481-.375 1.85-.975.37-.6.427-1.35.193-2.069-.706-2.157-3.1-9.368-3.1-9.368-.145-.44-.415-1.09-.986-1.688-.57-.597-1.472-1.117-2.62-1.117h-4.614c-1.151 0-2.05.52-2.62 1.117-.292.31-.277.794.036 1.082.312.288.802.273 1.093-.036.349-.368.779-.642 1.49-.642h4.615c.71 0 1.142.277 1.49.642.349.366.586.847.673 1.118 0 0 2.37 7.192 3.077 9.344.123.375.072.654-.024.809-.096.154-.222.261-.553.261-.318 0-.595-.205-.697-.475-.003-.006.003-.018 0-.024-.012-.074-.036-.146-.072-.214l-2.14-6.372c-.113-.354-.468-.577-.84-.523-.229.03-.43.16-.55.353-.123.193-.15.431-.075.645l2.163 6.42c.015.065.039.13.072.19l.985 2.972v.024c.003.024-.02.036-.024.048h-8.099v-4.566c0-1.673-1.385-3.043-3.077-3.043h-4.614c-1.692 0-3.077 1.37-3.077 3.043v12.435c0 .292-.213.5-.505.5h-1.298c-.294 0-.504-.208-.504-.5v-9.653c.003-.22-.093-.428-.259-.573-.165-.146-.387-.214-.607-.187-.387.047-.675.374-.672.76v9.654c0 .291-.214.5-.505.5h-1.298c-.295 0-.505-.209-.505-.5V50.457c.01-.22-.08-.431-.24-.58-.162-.152-.382-.226-.601-.205-.033.006-.066.015-.096.024-.358.08-.61.398-.601.76v7.609c0 .431-.334.761-.77.761-.417 0-.744-.306-.768-.713v-.048c.006-.047.006-.095 0-.142v-9.369c0-1.474 1.198-2.663 2.692-2.663h6.922c.576 0 1.102.173 1.538.476.222.184.529.229.793.116.267-.113.448-.363.466-.648.02-.285-.124-.556-.37-.705-.685-.475-1.53-.76-2.427-.76h-6.922zm11.92 2.282c-1.69 0-3.076 1.37-3.076 3.044 0 1.673 1.385 3.043 3.077 3.043 1.691 0 3.076-1.37 3.076-3.043 0-1.674-1.385-3.044-3.076-3.044zm0 1.522c.86 0 1.54.672 1.54 1.522s-.68 1.521-1.54 1.521c-.858 0-1.537-.671-1.537-1.521 0-.85.679-1.522 1.538-1.522zm-2.306 6.848h4.614c.86 0 1.538.671 1.538 1.521v5.327c0 .43-.333.76-.769.76h-.769c-.423 0-.769.342-.769.761v5.707c0 .217-.165.38-.384.38h-2.308c-.22 0-.384-.163-.384-.38V63.39c0-.419-.346-.76-.77-.76h-.769c-.435 0-.769-.33-.769-.761v-5.327c0-.85.68-1.521 1.539-1.521zm7.69 7.608h1.539v6.087c0 .431-.334.761-.77.761-.435 0-.768-.33-.768-.76V62.63zm3.077 0h1.538v6.087c0 .431-.333.761-.769.761-.435 0-.769-.33-.769-.76V62.63z" transform="translate(-954 -1438) translate(170 1315) translate(0 87)"/>
                </g>
            </g>
        </g>
    </g>
</svg>
