<svg xmlns="http://www.w3.org/2000/svg" width="16" height="16" viewBox="0 0 16 16">
    <g fill="none" fill-rule="evenodd">
        <g fill="#000" fill-rule="nonzero">
            <g>
                <g>
                    <path d="M8 0C3.586 0 0 3.586 0 8s3.586 8 8 8 8-3.586 8-8-3.586-8-8-8zm0 .696c4.038 0 7.304 3.266 7.304 7.304S12.038 15.304 8 15.304.696 12.038.696 8 3.962.696 8 .696zM3.478 5.217c-.125-.001-.242.065-.305.173-.063.108-.063.242 0 .35.063.109.18.175.305.173h9.044c.125.002.242-.064.305-.172.063-.109.063-.243 0-.351-.063-.108-.18-.174-.305-.173H3.478zM4.522 8c-.126-.002-.242.064-.306.172-.063.109-.063.243 0 .351.064.109.18.174.306.173h6.956c.126.001.242-.064.306-.173.063-.108.063-.242 0-.35-.064-.109-.18-.175-.306-.173H4.522zm.695 2.783c-.125-.002-.242.064-.305.172-.063.108-.063.242 0 .35.063.11.18.175.305.173h5.566c.125.002.242-.064.305-.172.063-.109.063-.243 0-.35-.063-.11-.18-.175-.305-.173H5.217z" transform="translate(-179 -532) translate(120 521) translate(59 11)"/>
                </g>
            </g>
        </g>
    </g>
</svg>
