<svg xmlns="http://www.w3.org/2000/svg" width="192" height="192" viewBox="0 0 192 192">
    <g fill="none" fill-rule="evenodd">
        <g fill-rule="nonzero">
            <circle cx="4.923" cy="44.308" r="4.923" fill="#88AE45"/>
            <circle cx="162.462" cy="4.923" r="2.462" fill="#F1BC19"/>
            <circle cx="96" cy="96" r="91.077" fill="#85D0FF" opacity=".526"/>
            <circle cx="177.231" cy="9.846" r="9.846" fill="#F1BC19"/>
            <circle cx="187.077" cy="32" r="4.923" fill="#88AE45"/>
            <circle cx="172.308" cy="160" r="4.923" fill="#FBCD59"/>
            <circle cx="9.846" cy="128" r="9.846" fill="#FBCD59"/>
            <circle cx="34.462" cy="187.077" r="4.923" fill="#88AE45"/>
            <circle cx="18.462" cy="104.615" r="6.154" fill="#FFF"/>
            <circle cx="24.615" cy="137.846" r="2.462" fill="#F1BC19"/>
            <circle cx="169.846" cy="56.615" r="2.462" fill="#FFF"/>
        </g>
        <path fill="#426880" d="M107.81 121.181c.206.87.236 1.832.13 2.725-.144 1.223-1.048 1.656-2.107 1.097-.55-.291-1.036-.715-1.691-1.178-1.067 1.067-2.183 2.119-3.23 3.241-2.988 3.207-6.741 4.125-10.912 3.902.477-.22.945-.469 1.434-.657 3.427-1.32 6.814-2.757 9.728-5.102 1.355-1.09 2.487-2.483 3.71-3.75.26-.269.452-.612.72-.87.985-.95 1.899-.75 2.218.592zM117.473 61c2.887 4.078 5.023 8.16 6.38 12.61l-.298.2-2.561-2.186-.318.127c.136 1.17.217 2.35.418 3.51.891 5.144 1.808 10.285 2.733 15.423.421 2.337.36 4.62-.727 6.788-.483.963-.241 1.509.835 1.701 2.958.529 5.916 1.056 8.874 1.583.185.033.372.071.558.078 1.222.049 1.947.516 1.908 1.858-.03 1.039.44 1.608 1.669 1.43.878-.128 1.792-.026 2.866-.026l-.314-2.028h8.387l.117.294c-.225.265-.436.543-.679.792-.83.852-1.781 1.615-2.484 2.557-1.144 1.532-2.6 1.95-4.48 1.94-8.706-.048-17.05 1.75-24.965 5.245-3.344 1.476-3.317 1.445-1.282 4.617 1.537 2.395 3.777 4.088 6.434 5.188.767.318.987.712.969 1.468-.045 1.862-.015 3.726-.015 5.814-1.027-.373-1.999-.629-2.88-1.06-6.685-3.27-11.059-8.588-13.883-15.208-.75-1.755-1.224-3.623-1.818-5.44-.18-.553-.337-1.112-.751-1.691-.21.876-.454 1.746-.621 2.63-1.747 9.258-7.713 15.254-15.878 19.52-.979.51-2.102.816-3.196 1.053-3.774.82-7.003-.748-8.34-4.296-.663-1.758-.966-3.702-1.089-5.583-.22-3.4.45-6.733 1.36-10.012.166-.6.298-1.278 1.383-1.024-.18.954-.355 1.907-.54 2.858-.563 2.904-.908 5.82-.351 8.761.13.682.33 1.362.594 2.005.626 1.527 1.831 2.297 3.507 2.302 2.235.006 4.322-.652 6.268-1.64 5.888-2.986 10.462-7.367 13.97-12.836 2.13-3.323 2.505-6.79.818-10.401-2.138-4.576-4.286-9.146-6.431-13.718-.079-.167-.178-.324-.273-.482-1.835-3.072-2.06-4.134-1.657-7.79l.326-.235c1.219 1.464 2.439 2.927 3.656 4.393 2.964 3.568 4.391 7.807 5.681 12.138 1.585 5.32 3.239 10.626 5.063 15.872.618 1.775 1.818 3.363 2.81 5.003.33.546.838.99 1.265 1.48l.282-.202c.084-.42.189-.838.248-1.262.388-2.757 1.861-4.718 4.387-6.024 3.348-1.731 6.856-3.01 10.532-3.872.292-.068.584-.14.872-.223.06-.017.104-.088.279-.245-6.519-2.294-13.23-2.487-19.948-2.476-.086-3.203 2.083-5.596 5.152-5.699 2.777-.092 5.557-.074 8.335-.108.329-.004.656-.028 1.103-.048-.41-2.516-.78-4.94-1.205-7.356-1.101-6.264-2.22-12.526-3.352-18.785-.143-.794-.292-1.614-.622-2.342-1.095-2.418.17-4.47.92-6.94zm-49.909 58c-.25.608-.511 1.21-.748 1.824-.493 1.275-1.068 2.524-1.42 3.847-.193.727-.292 1.861.698 2.04.945.171 1.13-.842 1.313-1.657.08-.356.139-.718.207-1.078.63 1.561.493 3.092-.438 4.34-.352.47-1.21.772-1.758.66-.49-.098-.964-.808-1.267-1.37-.197-.365-.176-.975-.079-1.428.585-2.719 1.826-5.066 3.492-7.178zm-7.175-1.631c1.176 1.156 1.862 2.554 1.525 4.294-.231 1.193-1.133 1.493-2.113 1.366-1.195-.156-2.053.257-3.026.989-2.897 2.176-6.26 2.952-9.8 2.982-.152.001-.307-.029-.455-.069-.107-.028-.204-.097-.52-.257 3.588-1.515 7.67-1.205 10.888-4.221-1.89-.432-1.694-1.537-1.421-2.78.164-.747-.025-1.576.118-2.332.084-.443.44-1.066.796-1.175 1.536-.47 2.885.098 4.008 1.203zm71.206-3.567c.154.148.247.612.148.778-.345.582-.748 1.138-1.199 1.63-.978 1.066-2.137 1.975-2.966 3.157-.865 1.231-.37 2.252 1.063 2.516 1.786.328 3.556.28 5.359-.832-.882 2.965-5.214 3.627-6.98 2.287-.868-.659-1.173-1.7-.708-2.718.55-1.204 1.29-2.314 1.998-3.428.372-.585.853-1.09 1.344-1.702-1.22-.818-2.32-.524-3.654.248.14-.638.125-1.115.331-1.414 1.044-1.509 3.95-1.79 5.264-.522zm8.093-5.802c.46 5.122.711 10.207-1.472 15l-.556-.028c-.027-2.458.009-4.919-.099-7.373-.109-2.486-.36-4.965-.561-7.599h2.688zm-80.737 10.907v1.902l1.288.119.215-.312-1.503-1.709zm-1.777-.336l-1.11 1.403 1.351.497v-1.791l-.241-.109zM48.971 80l.252.206c-.658 1.2-1.405 2.363-1.95 3.61-.542 1.242-1 2.546-1.263 3.867-.14.697-.249 1.735.922 1.96.951.185 1.598-.404 1.895-1.633.14-.574.242-1.157.371-1.734.013-.057.098-.1.149-.149.95 1.735.376 4.96-1.077 6.2-.27.23-.553.542-.643.866-1.11 4.008-1.624 8.082-.639 12.163.304 1.261 1.12 2.503 1.998 3.51 1.013 1.159 2.637.91 3.29-.472.803-1.702 1.442-3.496 1.96-5.302 1.072-3.732 1.777-7.576 3.784-11.003.873-1.491 1.84-2.898 3.426-3.775.122-.067.272-.084.454-.138 0 1.56.089 3.061-.021 4.549-.163 2.21-.492 4.41-.702 6.618-.207 2.175-.363 4.355.381 6.482 1 2.855 3.467 4.074 6.416 3.161 4.094-1.269 6.439-4.497 5.9-8.619-.475-3.622-1.231-7.214-1.978-10.797-.443-2.128.768-3.708 1.37-5.497l.47-.02c.726 2.62 1.562 5.215 2.15 7.863.6 2.703.972 5.456 1.417 8.19.423 2.603 1.317 4.947 3.679 6.5 2.501 1.644 5.715 1.299 7.583-.746.533-.584.555-1.05.182-1.762-1.566-2.988-3.237-5.946-4.496-9.058-1.007-2.49-1.67-5.154-2.103-7.8-.233-1.424.34-2.972.721-4.511 2.229 2.413 4.44 4.776 5.38 7.93l-.232.207-2.173-1.364c.196.636.264 1 .417 1.328 1.1 2.355 2.307 4.666 3.303 7.06 1.184 2.844 1.729 5.827 1.28 8.906-.497 3.397-2.262 5.38-5.22 5.967-3.322.659-6.447-.592-8.146-3.38-.673-1.106-1.132-2.335-1.684-3.51-.14-.298-.263-.604-.608-.92-.144.723-.313 1.442-.426 2.17-.459 2.967-1.684 5.49-4.594 6.846-1.14.53-2.444.868-3.705.993-3.066.304-5.487-1.215-6.758-4.079-1.42-3.2-1.31-6.557-1.027-9.933.146-1.73.22-3.466.31-5.2.016-.313-.054-.63-.337-1.023-.338.628-.82 1.222-.99 1.89-.812 3.222-1.533 6.465-2.302 9.697-.435 1.832-.712 3.726-1.391 5.47-1.217 3.127-4.416 3.54-6.302.742-1.095-1.625-1.868-3.57-2.303-5.476-.95-4.157-.397-8.309.725-12.394.147-.535.263-1.078.385-1.62.023-.103.003-.216.003-.315-2.487-1.292-2.948-2.36-2.052-4.995.979-2.876 2.655-5.367 4.55-7.726zm81.583-18c2.75 3.862 4.98 7.905 6.364 12.345l-.25.206-2.588-2.43-.357.115c1.05 10.632 3.41 21.074 5.277 31.643-.306.05-.521.11-.738.113-.644.014-1.288.005-2.057.005-.541-2.828-1.095-5.58-1.59-8.342-1.465-8.159-2.9-16.322-4.365-24.48-.156-.872-.268-1.81-.688-2.568-1.36-2.456.06-4.46.992-6.607zm13.001 23.01c-.174.402-.353.802-.523 1.208-.688 1.643-1.443 3.257-2.03 4.945-.27.78-.285 1.708-.268 2.565.009.395.386 1.114.574 1.105.514-.024 1.14-.22 1.486-.61.305-.343.292-1.041.42-1.582l.318-1.327.283.07c.323 1.914.315 3.794-.786 5.466-.605.92-1.455 1.374-2.49 1.041-1.004-.322-1.511-1.21-1.534-2.295-.02-.965.01-2.05.376-2.883 1.132-2.572 2.432-5.05 3.676-7.56.057-.115.196-.178.498-.144zm-36.425-.16c1.992 1.8 2.469 5.138 1.06 7.419-.717 1.16-2.489 1.962-3.775 1.67-1.443-.326-1.848-1.474-2.092-2.703-.095-.48-.08-.98-.116-1.47l-.207-.068c.418-1.402.69-2.87 1.292-4.19.809-1.774 2.387-1.969 3.838-.657zm-2.226 2.312c-.683.31-1.042 1.312-1.543 2.01l.273.19c-.033.976.486 1.643 1.316 1.69.833.047 2.493-1.225 2.503-1.918.009-.612-1.859-2.285-2.549-1.972zM128.406 80l.248.169c-.268.648-.534 1.297-.803 1.944-.443 1.067-.954 2.102-1.306 3.21-.19.6-.223 1.355-.112 1.985.075.423.593 1.1.794 1.044.39-.11.81-.583 1.009-1.04.235-.54.25-1.22.36-1.84.134.025.269.05.404.073-.084 1.19-.055 2.41-.28 3.559-.282 1.429-1.382 2.151-2.41 1.814-.909-.298-1.584-1.569-1.2-2.886.619-2.128 1.45-4.17 2.249-6.216.257-.658.693-1.214 1.047-1.816zm-65.434-2.968c.413 3.275-3.76 7.358-8.972 6.938l6.104-4.183-.131-.38c-1.818.072-3.695-.5-5.39.892-.164-1.506.593-3.159 1.656-3.225 2.236-.137 4.485-.042 6.733-.042zM76.594 71c1.035 2.57 1.818 5.105 1.17 7.827-.394 1.655-2.365 2.078-3.741.904-.312-.265-.568-.598-.933-.99-.21.354-.407.651-.568.967-.542 1.06-1.399 1.433-2.524 1.246-1.154-.192-1.662-1.014-1.76-2.081-.092-.978-.02-1.972-.02-3.154l-.97.564-.248-.144 1.999-3.587.297.157c0 1.445-.049 2.893.017 4.335.045.97.398 1.937 1.53 1.913 1.08-.024 1.528-.967 1.578-1.926.053-1.019-.035-2.071-.236-3.072-.189-.937-.073-1.652.871-2.316.195 1.25.327 2.434.578 3.59.175.81.412 1.644.818 2.35.215.372.852.49 1.298.723.203-.408.601-.832.572-1.223-.089-1.172-.284-2.345-.552-3.49-.233-.997-.096-1.804.824-2.593zm35.742-1l.214.181c-.479 1.028-1.033 2.023-1.416 3.094-.37 1.036-.653 2.136-.792 3.237-.05.394.433.871.673 1.31.406-.328.93-.571 1.186-1.01.277-.471.304-1.126.454-1.76.63 1.356.382 3.792-.62 4.544-.53.398-1.39.468-2.056.356-.755-.128-1.083-.973-.95-1.763.223-1.32.493-2.658.947-3.895.444-1.21 1.132-2.31 1.736-3.443.166-.311.414-.569.624-.851zm-20.133-7.997c.803.047 1.242.526 1.378 1.238.096.5.112 1.035.043 1.54-.125.918-.156 1.723 1.376 1.796-.693.72-.588 1.88-1.974 1.58-.212-.046-.674.407-.81.717-1.64 3.769-5.063 5.047-8.7 6.036-.25.068-.52.083-.783.09-.135.003-.273-.065-.733-.185 3.564-2.161 7.678-3.15 9.557-7.127-.37-.268-.744-.559-1.14-.822-1.114-.742-1.412-1.557-.984-2.748.433-1.202 1.711-2.177 2.77-2.115zm-31.82 1.259c1.034.916.706 2.998-.518 3.814l-.678-1.632-.392-.094c-.389.664-.932 1.286-1.137 2-.5 1.746-.837 3.536-1.254 5.305-.106.45-.265.888-.4 1.331L55.6 74c-.199-.715-.368-1.439-.605-2.14-.231-.686-.53-1.349-.828-2.09-.46.155-.783.269-1.109.373-1.398.447-2.319.092-2.82-1.086-.503-1.183-.188-2.368.757-2.85 1.205-.612 2.505-.331 3.166.848.637 1.136 1.097 2.369 1.774 3.867.207-.993.306-1.695.503-2.37.4-1.371.79-2.753 1.316-4.08.214-.539.69-1.087 1.199-1.365.354-.194 1.128-.113 1.43.155zM111.984 63c.118 1.315-.414 2.027-2.083 2.75-3.643 1.574-7.29 3.14-10.922 4.74-1.013.447-1.974 1.004-2.959 1.51-.129-1.372.34-2.063 1.956-2.771 2.812-1.232 5.642-2.425 8.449-3.667 1.873-.828 3.72-1.712 5.56-2.562zM68.08 62c3.58.618 5.279 6.62 2.626 10 0-.64.011-1.034-.002-1.427-.038-1.14.062-2.315-.183-3.407-.163-.728-.718-1.456-1.279-1.976-1.303-1.209-1.347-1.158-1.162-3.19zm23.45 1.907c-.018-.022-.426.25-.652.385L91.95 65.6l.506-.347c-.3-.456-.59-.918-.927-1.346z"/>
    </g>
</svg>
