<svg xmlns="http://www.w3.org/2000/svg" xmlns:xlink="http://www.w3.org/1999/xlink" width="125" height="125" viewBox="0 0 125 125">
    <defs>
        <radialGradient id="viiinkfubb" cx="50.682%" cy=".005%" r="50%" fx="50.682%" fy=".005%">
            <stop offset="0%" stop-color="#547F9B"/>
            <stop offset="100%" stop-color="#304E60"/>
        </radialGradient>
        <path id="cbkzwg4d0a" d="M62.5 0C27.982 0 0 27.983 0 62.5 0 97.018 27.982 125 62.5 125c34.517 0 62.5-27.982 62.5-62.5C125 27.983 97.017 0 62.5 0z"/>
    </defs>
    <g fill="none" fill-rule="evenodd">
        <g>
            <g>
                <g>
                    <mask id="zan7sqjs2c" fill="#fff">
                        <use xlink:href="#cbkzwg4d0a"/>
                    </mask>
                    <path fill="url(#viiinkfubb)" d="M62.5 0C27.982 0 0 27.983 0 62.5 0 97.018 27.982 125 62.5 125c34.517 0 62.5-27.982 62.5-62.5C125 27.983 97.017 0 62.5 0z" mask="url(#zan7sqjs2c)"/>
                </g>
                <g fill="#FEFEFE">
                    <path d="M80.865 69.894c-2.234 0-4.045-1.811-4.045-4.045s1.81-4.046 4.045-4.046c2.234 0 4.045 1.812 4.045 4.046-.002 2.233-1.812 4.042-4.045 4.045zm-31.553 1.618c-.728 0-.809-1.133-.809-1.618v-1.717c.065.008.131.012.197.018.08.009.162.015.242.022.383.034.77.057 1.158.058h.04c.389 0 .774-.024 1.154-.058.081-.007.167-.013.25-.022.064-.007.13-.01.194-.018v1.717c0 .485-.08 1.618-.809 1.618h-1.617zm-9.708-14.498v-.065h2.427v.092c.06 3.517 2.4 6.586 5.775 7.575 1.768.56 3.666.56 5.435 0 3.377-.988 5.718-4.057 5.78-7.575v-.092h1.618v.065c0 4.5-3.47 8.46-8.253 9.419-1.123.225-2.273.281-3.413.167-.375-.036-.748-.093-1.117-.169-4.783-.956-8.252-4.916-8.252-9.417zm5.663-16.246c.447 0 .809.362.809.81 0 .446-.362.808-.809.808-.447 0-.81-.362-.81-.809 0-.447.363-.809.81-.809zm9.709 1.618c-.447 0-.81-.362-.81-.809 0-.447.363-.809.81-.809.446 0 .808.362.808.81 0 .446-.362.808-.808.808zm31.494 22.66c-.358-2.485-2.31-4.437-4.796-4.796v-1.47c0-4.06-3.085-7.363-6.877-7.363-3.683 0-6.766 3.204-6.877 7.142h.047l-.047.008v15.944c0 5.097-3.81 9.236-8.495 9.236-4.684 0-8.495-4.145-8.495-9.236v-1.38c1.173 0 2.427-.851 2.427-3.237v-2.035c5.193-1.328 8.9-5.786 8.9-10.841V55.33h-1.618l-.034-10.53c-.012-1.949-1.41-3.613-3.329-3.96-.413-1.267-1.776-1.96-3.044-1.546-1.267.414-1.96 1.777-1.546 3.045.414 1.267 1.777 1.959 3.045 1.545.678-.221 1.224-.732 1.49-1.394 1.037.294 1.755 1.237 1.763 2.315l.037 10.525h-1.618v1.71c-.065 2.815-1.952 5.26-4.657 6.037-1.448.46-3.003.46-4.45 0-2.703-.78-4.585-3.225-4.647-6.037v-1.71h-2.427V44.813c.004-1.093.74-2.049 1.796-2.333.492 1.254 1.908 1.87 3.161 1.378 1.254-.492 1.87-1.908 1.378-3.161-.492-1.254-1.908-1.87-3.161-1.378-.68.267-1.203.824-1.428 1.518-1.94.331-3.36 2.01-3.364 3.976v10.518h-1.619v1.683c0 5.06 3.71 9.52 8.9 10.845v2.035c0 2.386 1.254 3.236 2.427 3.236v1.38c0 5.988 4.536 10.855 10.113 10.855s10.113-4.873 10.113-10.854V58.606c.081-3.07 2.442-5.569 5.26-5.569 2.899 0 5.258 2.576 5.258 5.745v1.468c-3.096.447-5.243 3.318-4.796 6.414.447 3.096 3.318 5.243 6.414 4.797 3.096-.447 5.243-3.32 4.796-6.415z" transform="translate(.243 .243)"/>
                    <path d="M62.257.121C27.941.121.121 27.941.121 62.257c0 34.317 27.82 62.136 62.136 62.136 34.317 0 62.136-27.819 62.136-62.136 0-34.316-27.819-62.136-62.136-62.136m0 2.913c7.997 0 15.752 1.565 23.052 4.653 7.052 2.983 13.386 7.253 18.825 12.693 5.44 5.44 9.71 11.774 12.694 18.826 3.087 7.3 4.653 15.055 4.653 23.051 0 7.997-1.566 15.752-4.653 23.052-2.983 7.052-7.254 13.386-12.694 18.825-5.44 5.44-11.773 9.71-18.825 12.694-7.3 3.087-15.055 4.653-23.052 4.653-7.996 0-15.752-1.566-23.051-4.653-7.052-2.983-13.386-7.254-18.826-12.694-5.44-5.44-9.71-11.773-12.693-18.825-3.088-7.3-4.653-15.055-4.653-23.052 0-7.996 1.565-15.752 4.653-23.051C10.67 32.154 14.94 25.82 20.38 20.38c5.44-5.44 11.774-9.71 18.826-12.693 7.3-3.088 15.055-4.653 23.051-4.653" transform="translate(.243 .243)"/>
                    <path d="M26.098 98.079c-.063 0-.125-.024-.173-.073-.994-1.01-1.957-2.074-2.865-3.164-.23-.276-.456-.554-.68-.835-.084-.105-.066-.258.039-.341.104-.083.257-.067.34.038.222.278.447.554.674.827.9 1.08 1.854 2.135 2.838 3.135.094.095.093.249-.002.343-.048.047-.11.07-.17.07m68.907 3.164c-.069 0-.137-.03-.186-.086-.086-.102-.073-.256.03-.342 11.37-9.622 17.893-23.676 17.893-38.558 0-27.837-22.648-50.485-50.486-50.485-27.837 0-50.485 22.648-50.485 50.485 0 9.996 2.915 19.658 8.432 27.943.074.112.044.263-.068.337-.112.074-.262.044-.336-.068-5.57-8.364-8.513-18.12-8.513-28.212 0-28.105 22.865-50.97 50.97-50.97 28.106 0 50.971 22.865 50.971 50.97 0 15.025-6.584 29.214-18.066 38.928-.045.039-.1.058-.156.058m-32.749 11.985c-12.797 0-25.033-4.762-34.455-13.409-.099-.09-.105-.244-.015-.342.091-.099.245-.106.344-.015 9.331 8.564 21.451 13.28 34.126 13.28 10.072 0 19.796-2.956 28.12-8.55.112-.075.262-.045.337.066.075.112.046.263-.066.337-8.405 5.648-18.222 8.633-28.39 8.633" transform="translate(.243 .243)"/>
                </g>
            </g>
        </g>
    </g>
</svg>
