<svg xmlns="http://www.w3.org/2000/svg" width="35" height="35" viewBox="0 0 35 35">
    <g fill="none" fill-rule="evenodd">
        <g fill="#2F4D60" fill-rule="nonzero">
            <g>
                <g>
                    <path d="M297.317 36c-2.978 0-5.855 1.139-7.892 3.832-1.919 2.538-3.087 6.395-3.217 11.867-.018.068-.027.138-.027.208 0 1.073-.347 1.96-.753 3.165-.406 1.204-.837 2.695-.837 4.79 0 .863-.269 1.222-.673 1.862-.404.64-.918 1.54-.918 2.91 0 .75.25 1.483.757 2.039.268.294.596.535.974.74-.975 1.648-.936 3.583-.936 3.583h1.591s.05-1.727.757-2.857v-.001l.113-.152c1.749.462 4.182.624 7.58.624.04 0 .078-.002.116-.008 2.156 1.296 4.72 1.893 6.882 2.164 2.24.282 4.105.23 4.436.23 1.66 0 4.662-.208 7.339-.83 1.022-.238 1.993-.533 2.837-.922.143.915.164 1.752.164 1.752h1.59s.012-1.286-.299-2.648c.603-.518 1.03-1.177 1.081-1.969.01-.05.015-.103.014-.155 0-.128-.015-.27-.045-.42-.004-.02-.013-.038-.018-.058-.04-.17-.107-.343-.196-.516-.046-.09-.093-.175-.145-.255-.009-.013-.016-.026-.026-.039-.032-.048-.064-.101-.096-.146-.264-.36-.537-.657-.797-1.053-.522-.793-1.063-2.001-1.063-4.671 0-8.003-.713-13.078-2.347-16.445-1.635-3.368-4.292-4.907-7.63-5.61-1.033-.217-1.927-.212-2.564-.153-.637.058-1.016.172-1.016.172-.045.013-.09.03-.132.05-1.28-.666-2.803-1.08-4.604-1.08zm0 1.59c2.364 0 4.057.801 5.36 1.929-.684-.202-1.4-.338-2.179-.338-2.607 0-4.724 1.169-6.041 3.255-1.318 2.086-1.913 5.008-1.913 8.676 0 2.85.605 6.16 2.312 8.84 1.707 2.68 4.605 4.681 8.824 4.681 2.49 0 4.039-.515 5.092-.957.526-.22.925-.41 1.227-.504.302-.095.484-.116.757-.052.117.028.182.072.321.232.14.16.31.427.549.736.478.618 1.377 1.34 2.791 1.34 1.091 0 1.603.222 1.794.374.05.038.06.069.087.102.07.117.108.21.108.32 0 .417-.282.817-1.03 1.265-.75.447-1.881.837-3.128 1.127-2.492.58-5.456.79-6.978.79-.464 0-2.127.047-4.237-.218-2.11-.265-4.597-.855-6.472-2.044-.127-.081-.275-.124-.426-.125 0 0-.288.009-.854-.19-.567-.2-1.343-.602-2.147-1.45-1.608-1.697-3.362-5.246-3.362-12.676 0-5.809 1.18-9.608 2.92-11.91 1.742-2.303 4.035-3.202 6.625-3.202zm6.832.823c.341.018.729.065 1.157.155 3.075.647 5.091 1.793 6.526 4.749 1.435 2.956 2.187 7.844 2.187 15.749 0 2.282.406 3.767.906 4.797-.167-.01-.324-.025-.508-.025-.972 0-1.185-.272-1.535-.724-.175-.226-.347-.51-.606-.808-.258-.297-.645-.613-1.157-.733-.573-.135-1.123-.069-1.595.08-.472.147-.887.355-1.367.557-.96.403-2.196.833-4.477.833-1.668 0-3.03-.339-4.175-.905.321.065.651.11.996.11 2.359 0 4.147-1.618 5.366-3.314 1.219-1.696 1.927-3.501 2.164-4.448.229-.915.409-2.472.418-3.301.002-.024.003-.049.003-.073 0-.266-.012-.525-.028-.783l-.002-.01c-.011-.18-.03-.356-.05-.532-.057-.544-.134-1.065-.195-1.605.062-.131.088-.277.073-.422 0 0-.103-.709-.25-1.467-.01-.049-.016-.104-.027-.152-.231-1.112-.633-2.575-1.446-4.187-.625-1.239-1.501-2.497-2.675-3.538.105 0 .181-.01.297-.003zm-3.65 2.36c2.164 0 3.627.82 4.695 2.511.171.27.325.575.47.895-1.344-1.163-3.126-1.816-5.166-1.816-2.041 0-3.824.654-5.17 1.82.147-.322.302-.627.474-.899 1.069-1.692 2.531-2.512 4.696-2.512zm0 3.18c2.004 0 3.544.702 4.632 1.922 1.087 1.22 1.73 3.005 1.73 5.237 0 .486-.211 2.337-.374 2.989-.161.644-.845 2.418-1.913 3.904-1.067 1.485-2.457 2.651-4.073 2.651-1.618 0-3.011-1.166-4.08-2.651-1.067-1.486-1.75-3.26-1.911-3.904-.2-.795-.375-1.465-.375-2.989 0-2.232.643-4.016 1.73-5.237 1.089-1.22 2.629-1.921 4.633-1.921zM286.44 57.325c.57 4.75 2.007 7.534 3.537 9.149.162.17.324.308.486.453-1.806-.1-3.209-.28-4.133-.567-.718-.222-1.159-.493-1.4-.758-.241-.264-.34-.526-.34-.968 0-1.016.281-1.44.672-2.058.391-.619.918-1.453.918-2.714 0-1 .105-1.814.26-2.537zm5.333 1.73c-.238-.007-.468.092-.625.272-.157.18-.225.42-.186.655 0 0 .333 2.062 2.215 4.012 1.883 1.95 5.318 3.822 11.297 3.822.287.004.554-.147.698-.395.145-.247.145-.554 0-.802-.144-.247-.411-.398-.698-.394-5.653 0-8.58-1.708-10.153-3.337-1.573-1.629-1.787-3.146-1.787-3.146-.053-.383-.374-.673-.761-.686z" transform="translate(-453 -1438) translate(170 1315) translate(0 87)"/>
                </g>
            </g>
        </g>
    </g>
</svg>
