<svg xmlns="http://www.w3.org/2000/svg" width="40" height="42" viewBox="0 0 40 42">
    <path fill="#2F4D60" d="M4.795 0C2.15 0 0 2.157 0 4.807V6.18c0 1.894 1.536 3.433 3.425 3.433h4.794V35.02c0 1.135.924 2.06 2.055 2.06h6.165v3.433c0 .24.123.459.324.585.203.126.455.134.669.03l3.17-1.248 3.155 1.285c.07.024.144.035.216.035.142 0 .284-.043.402-.129.179-.129.283-.338.283-.558V37.08h13.014c1.132 0 2.055-.925 2.055-2.06V4.807c0-2.65-2.15-4.807-4.794-4.807H4.795zm0 1.373c1.985 0 3.424 1.443 3.424 3.434V8.24H6.146c.436-.577.704-1.285.704-2.06v-.687c0-.38-.305-.686-.685-.686-.38 0-.685.305-.685.686v.687c0 1.135-.923 2.06-2.055 2.06-1.132 0-2.055-.925-2.055-2.06V4.807c0-1.894 1.536-3.434 3.425-3.434zm3.42 0h26.718c1.889 0 3.424 1.54 3.424 3.434V28.84H28.083c-.38 0-.685.306-.685.687 0 .38.305.686.685.686h10.274v4.807c0 .378-.307.687-.685.687H24.658V32.49l1.584-.529c.209-.067.37-.23.44-.44.066-.206.031-.434-.097-.611l-.99-1.384.99-1.384c.128-.18.16-.405.096-.615-.07-.206-.23-.37-.439-.44l-1.61-.533-.014-1.706c0-.218-.104-.421-.28-.55-.177-.129-.405-.166-.61-.102l-1.62.52-1.008-1.373c-.26-.354-.846-.354-1.105 0l-1.006 1.373-1.619-.52c-.209-.064-.436-.027-.61.102-.177.129-.281.332-.284.55l-.01 1.706-1.611.536c-.209.067-.37.23-.439.44-.067.207-.032.435.096.612l.99 1.384-.99 1.384c-.128.18-.16.405-.096.614.07.207.23.37.439.44l1.584.526v3.216h-6.165c-.377 0-.685-.309-.685-.687v-4.807h3.425c.38 0 .685-.305.685-.686 0-.381-.305-.687-.685-.687H9.59V4.807c0-1.371-.516-2.575-1.375-3.434zm3.43 1.374c-.38 0-.686.305-.686.686v1.374c0 .38.305.686.685.686.38 0 .685-.305.685-.686V3.433c0-.38-.305-.686-.685-.686zm3.424 0c-.38 0-.685.305-.685.686v1.374c0 .38.305.686.685.686.38 0 .685-.305.685-.686V3.433c0-.38-.305-.686-.685-.686zm3.425 0c-.38 0-.685.305-.685.686v1.374c0 .38.305.686.685.686.38 0 .685-.305.685-.686V3.433c0-.38-.305-.686-.685-.686zm3.425 0c-.38 0-.685.305-.685.686v1.374c0 .38.305.686.685.686.38 0 .684-.305.684-.686V3.433c0-.38-.305-.686-.684-.686zm3.424 0c-.38 0-.685.305-.685.686v1.374c0 .38.305.686.685.686.38 0 .685-.305.685-.686V3.433c0-.38-.305-.686-.685-.686zm3.425 0c-.38 0-.685.305-.685.686v1.374c0 .38.305.686.685.686.38 0 .685-.305.685-.686V3.433c0-.38-.305-.686-.685-.686zm3.425 0c-.38 0-.685.305-.685.686v1.374c0 .38.305.686.685.686.38 0 .685-.305.685-.686V3.433c0-.38-.305-.686-.685-.686zm3.425 0c-.38 0-.685.305-.685.686v1.374c0 .38.305.686.685.686.38 0 .685-.305.685-.686V3.433c0-.38-.305-.686-.685-.686zM15.754 12.36c-.38 0-.685.306-.685.687 0 .38.305.686.685.686h5.48c.38 0 .685-.305.685-.686 0-.381-.305-.687-.685-.687h-5.48zm8.22 0c-.38 0-.686.306-.686.687 0 .38.305.686.685.686h8.22c.38 0 .685-.305.685-.686 0-.381-.305-.687-.685-.687h-8.22zm-8.22 4.12c-.38 0-.685.306-.685.687 0 .38.305.686.685.686h10.96c.38 0 .684-.305.684-.686 0-.381-.305-.687-.685-.687h-10.96zm13.699 0c-.38 0-.685.306-.685.687 0 .38.305.686.685.686h2.74c.38 0 .685-.305.685-.686 0-.381-.305-.687-.685-.687h-2.74zm-8.904 8.428l.749 1.016c.174.24.479.336.757.247l1.201-.38.008 1.263c.003.295.19.555.471.649l1.194.397-.734 1.024c-.17.239-.17.56 0 .8l.734 1.03-1.194.397c-.28.094-.468.354-.47.646l-.009 1.263-1.201-.38c-.278-.089-.586.01-.76.246l-.746 1.02-.75-1.017c-.13-.18-.337-.279-.548-.279-.072 0-.14.01-.209.032l-1.201.381-.008-1.266c-.003-.292-.19-.552-.471-.646l-1.193-.397.733-1.028c.171-.238.171-.56 0-.799l-.733-1.027 1.193-.397c.28-.094.468-.354.47-.647l.009-1.263 1.201.383c.279.086.584-.01.757-.246l.75-1.022zm-1.56 9.428l1.008 1.373c.129.177.335.28.552.28.219 0 .422-.103.553-.28l1.007-1.373 1.18.378v4.844l-2.524-1.07c-.07-.024-.144-.035-.216-.035-.105 0-.212.024-.308.073l-2.432.877v-4.689l1.18-.378z"/>
</svg>
