<svg xmlns="http://www.w3.org/2000/svg" width="18" height="18" viewBox="0 0 18 18">
    <path fill="#616161" d="M17.023 12.488c-.63-.015-1.423-.052-1.924-.14-.542-.096-1.194-.282-1.653-.425-.36-.112-.752-.013-1.019.253L10.21 14.38c-1.532-.807-2.759-1.747-3.798-2.792C5.367 10.549 4.427 9.322 3.62 7.79l2.204-2.218c.266-.267.365-.659.253-1.019-.142-.458-.329-1.11-.424-1.652-.089-.501-.125-1.294-.141-1.924C5.499.432 5.055 0 4.51 0H1C.562 0 0 .328 0 1c0 4.539 1.84 8.874 4.966 12.034C8.126 16.16 12.461 18 17 18c.672 0 1-.562 1-1v-3.51c0-.545-.432-.989-.977-1.002z"/>
</svg>
