<svg xmlns="http://www.w3.org/2000/svg" width="14" height="14" viewBox="0 0 14 14">
    <g fill="none" fill-rule="evenodd">
        <g fill="#FF5050" fill-rule="nonzero">
            <g>
                <g>
                    <path d="M649.304 187c-1.153 0-2.099.901-2.099 2h-3.673c-.189-.003-.365.092-.46.248-.096.156-.096.348 0 .504.095.156.271.25.46.248h.875v8.5c0 1.011.863 1.833 1.924 1.833h3.544c-.299-.296-.553-.632-.755-1h-2.79c-.481 0-.874-.374-.874-.833V190h7.696v3c.362 0 .712.044 1.05.12V190h.874c.19.003.365-.092.46-.248.096-.156.096-.348 0-.504-.095-.156-.27-.25-.46-.248h-3.673c0-1.099-.946-2-2.099-2zm0 1c.586 0 1.05.442 1.05 1h-2.1c0-.558.464-1 1.05-1zm-1.232 3.66c-.29.004-.521.23-.517.507v5c-.003.18.097.348.26.439.164.09.366.09.53 0 .163-.091.262-.259.26-.44v-5c.002-.135-.054-.265-.154-.36-.1-.096-.238-.149-.38-.146zm2.456.007c-.29 0-.524.223-.524.5v2.044c.31-.285.663-.527 1.05-.72v-1.324c0-.277-.236-.5-.526-.5zm2.624 2c-2.125 0-3.848 1.641-3.848 3.666s1.723 3.667 3.848 3.667 3.848-1.642 3.848-3.667-1.723-3.666-3.848-3.666zm-1.749 1.666c.09 0 .179.033.247.098l1.502 1.431 1.502-1.431c.137-.13.358-.13.494 0 .137.13.137.341 0 .471l-1.501 1.431 1.501 1.431c.137.13.137.341 0 .472-.068.065-.157.097-.247.097s-.179-.032-.247-.097l-1.502-1.431-1.502 1.43c-.068.066-.157.098-.247.098s-.18-.032-.247-.097c-.137-.13-.137-.341 0-.472l1.501-1.43-1.501-1.432c-.137-.13-.137-.34 0-.471.068-.065.158-.098.247-.098z" transform="translate(-763 -514) translate(120 175) translate(0 152)"/>
                </g>
            </g>
        </g>
    </g>
</svg>
