<?xml version="1.0" encoding="UTF-8"?>
<svg width="20px" height="20px" viewBox="0 0 20 20" version="1.1" xmlns="http://www.w3.org/2000/svg" xmlns:xlink="http://www.w3.org/1999/xlink">
    <title>icons8-multiply</title>
    <g id="Page-1" stroke="none" stroke-width="1" fill="none" fill-rule="evenodd">
        <g id="iPhone-11-Copy" transform="translate(-374.000000, -20.000000)" fill="#FFFFFF" fill-rule="nonzero">
            <g id="icons8-multiply" transform="translate(374.000000, 20.000000)">
                <path d="M2.95138889,0 C2.63020889,0 2.33941,0.125867778 2.11805556,0.347222222 L0.347222222,2.11805556 C-0.0954855556,2.56076444 -0.0954855556,3.33333333 0.347222222,3.88888889 L6.45833333,10 L0.347222222,16.1111111 C-0.0954855556,16.6666667 -0.0954855556,17.4392367 0.347222222,17.8819444 L2.11805556,19.6527778 C2.67361111,20.0954867 3.44618111,20.0954867 3.88888889,19.6527778 L10,13.5416667 L16.1111111,19.6527778 C16.6666667,20.0954867 17.4392367,20.0954867 17.8819444,19.6527778 L19.6527778,17.8819444 C20.0954867,17.3263889 20.0954867,16.55382 19.6527778,16.1111111 L13.5416667,10 L19.6527778,3.88888889 C20.0954867,3.33333333 20.0954867,2.56076444 19.6527778,2.11805556 L17.8819444,0.347222222 C17.3263889,-0.0954855556 16.55382,-0.0954855556 16.1111111,0.347222222 L10,6.45833333 L3.88888889,0.347222222 C3.61111111,0.125867778 3.27257,0 2.95138889,0 Z" id="Path"></path>
            </g>
        </g>
    </g>
</svg>