<svg xmlns="http://www.w3.org/2000/svg" width="42" height="40" viewBox="0 0 42 40">
    <path fill="#2F4D60" d="M21 0c-2.171 0-3.938 1.766-3.938 3.938 0 2.17 1.767 3.937 3.938 3.937 2.171 0 3.938-1.766 3.938-3.938C24.938 1.768 23.17 0 21 0zm0 1.313c1.448 0 2.625 1.176 2.625 2.625 0 1.448-1.177 2.624-2.625 2.624s-2.625-1.176-2.625-2.625c0-1.448 1.177-2.624 2.625-2.624zm-9.844 1.312c-1.81 0-3.281 1.471-3.281 3.281s1.471 3.282 3.281 3.282 3.281-1.472 3.281-3.282-1.47-3.281-3.28-3.281zm19.688 0c-1.81 0-3.282 1.471-3.282 3.281s1.472 3.282 3.282 3.282 3.281-1.472 3.281-3.282-1.471-3.281-3.281-3.281zM11.156 3.938c1.085 0 1.969.884 1.969 1.968 0 1.085-.884 1.969-1.969 1.969-1.084 0-1.969-.884-1.969-1.969 0-1.084.885-1.968 1.97-1.968zm19.688 0c1.084 0 1.968.884 1.968 1.968 0 1.085-.884 1.969-1.968 1.969-1.085 0-1.969-.884-1.969-1.969 0-1.084.884-1.968 1.969-1.968zm-9.88 4.593c-.918.003-1.835.131-2.727.387-1.187.341-2.259.972-3.118 1.838-.425-.235-.884-.42-1.363-.558-.026-.008-.067-.013-.105-.018-1.641-.454-3.366-.449-5.007.018-1.333.379-2.494 1.156-3.36 2.237-.757.946-1.218 2.108-1.323 3.315H1.969C.884 15.75 0 16.634 0 17.719v19.687c0 1.085.884 1.969 1.969 1.969H40.03c1.085 0 1.969-.884 1.969-1.969V17.72c0-1.085-.884-1.969-1.969-1.969h-1.9c-.104-1.207-.566-2.369-1.322-3.315-.866-1.081-2.033-1.858-3.366-2.237-.026-.008-.067-.013-.105-.018-1.64-.454-3.366-.449-5.006.018-.493.138-.96.335-1.392.579-.867-.882-1.938-1.518-3.138-1.859-.026-.007-.067-.012-.113-.018-.892-.25-1.807-.374-2.725-.369zM21 9.844c.807 0 1.615.11 2.402.336.026.005.067.01.105.018.887.261 1.68.722 2.343 1.338.21.192.4.407.585.63.09.118.182.244.266.367.585.874.908 1.917.908 2.981v.236H14.437v-.236c0-1.076.32-2.125.926-3.004.08-.12.164-.23.249-.344.184-.23.39-.446.605-.648.676-.623 1.489-1.085 2.381-1.338.787-.226 1.595-.336 2.402-.336zm-9.82 1.312c.732 0 1.463.103 2.173.303.028.013.067.018.108.018.274.087.543.192.8.315-.736 1.097-1.136 2.397-1.136 3.722v.236H5.296c.098-.907.438-1.78 1.01-2.494.695-.867 1.628-1.49 2.705-1.797.707-.2 1.438-.303 2.168-.303zm19.687 0c.733 0 1.464.103 2.174.303.028.013.066.018.107.018 1.044.315 1.954.925 2.638 1.779.572.715.913 1.587 1.013 2.494H28.92v-.236c0-1.32-.395-2.612-1.13-3.701.29-.144.592-.262.907-.354.708-.2 1.438-.303 2.169-.303zM1.969 17.062H40.03c.362 0 .657.295.657.657v19.687c0 .362-.295.657-.657.657H1.97c-.362 0-.657-.295-.657-.657V17.72c0-.362.295-.657.657-.657zm9.187 1.97c-.361 0-.656.294-.656.655V21c0 .361.295.656.656.656.362 0 .656-.295.656-.656v-1.313c0-.36-.294-.656-.656-.656zm3.281 0c-.36 0-.656.294-.656.655V21c0 .361.295.656.656.656.362 0 .657-.295.657-.656v-1.313c0-.36-.295-.656-.656-.656zm3.282 0c-.362 0-.657.294-.657.655V21c0 .251.147.461.352.572-1.715 1.297-2.846 3.499-2.846 5.99 0 2.492 1.13 4.694 2.846 5.991-.205.11-.352.32-.352.572v1.313c0 .361.295.656.657.656.361 0 .656-.295.656-.657v-1.291c.613.31 1.274.52 1.969.597v.694c0 .362.295.657.656.657.361 0 .656-.295.656-.657v-.694c.695-.077 1.356-.287 1.969-.597v1.291c0 .362.295.657.656.657.362 0 .657-.295.657-.657v-1.312c0-.251-.147-.461-.352-.572 1.715-1.297 2.846-3.499 2.846-5.99 0-2.492-1.13-4.694-2.846-5.991.205-.11.352-.32.352-.572v-1.313c0-.36-.295-.656-.657-.656-.361 0-.656.295-.656.657v1.291c-.613-.31-1.274-.52-1.969-.597v-.695c0-.36-.295-.656-.656-.656-.361 0-.656.295-.656.657v.694c-.695.077-1.356.287-1.969.597v-1.291c0-.362-.295-.657-.656-.657zm9.843 0c-.36 0-.656.294-.656.655V21c0 .361.295.656.657.656.36 0 .656-.295.656-.656v-1.313c0-.36-.295-.656-.657-.656zm3.282 0c-.362 0-.657.294-.657.655V21c0 .361.295.656.657.656.361 0 .656-.295.656-.656v-1.313c0-.36-.295-.656-.656-.656zm-26.25.655c-.362 0-.657.295-.657.657 0 .361.295.656.657.656h3.281c.361 0 .656-.295.656-.656 0-.362-.295-.657-.656-.657H4.594zm29.531 0c-.361 0-.656.295-.656.657 0 .361.295.656.656.656h3.281c.362 0 .657-.295.657-.656 0-.362-.295-.657-.657-.657h-3.281zM21 21.657c2.822 0 5.12 2.65 5.12 5.905 0 3.256-2.298 5.907-5.12 5.907s-5.12-2.65-5.12-5.907c0-3.255 2.298-5.906 5.12-5.906zm-15.094 3.28c-1.448 0-2.625 1.177-2.625 2.625 0 1.449 1.177 2.625 2.625 2.625 1.449 0 2.625-1.176 2.625-2.625 0-1.448-1.176-2.625-2.625-2.625zm30.188 0c-1.449 0-2.625 1.177-2.625 2.625 0 1.449 1.176 2.625 2.625 2.625 1.448 0 2.625-1.176 2.625-2.625 0-1.448-1.177-2.625-2.625-2.625zm0 1.108c.835 0 1.517.682 1.517 1.517 0 .836-.682 1.518-1.517 1.518-.836 0-1.518-.682-1.518-1.517 0-.836.682-1.518 1.518-1.518zm-30.188.013c.83 0 1.505.674 1.505 1.505 0 .83-.674 1.504-1.505 1.504-.83 0-1.505-.674-1.505-1.505 0-.83.675-1.504 1.505-1.504zm5.25 7.41c-.361 0-.656.296-.656.657v1.313c0 .361.295.656.656.656.362 0 .656-.295.656-.657v-1.312c0-.361-.294-.656-.656-.656zm3.281 0c-.36 0-.656.296-.656.657v1.313c0 .361.295.656.656.656.362 0 .657-.295.657-.657v-1.312c0-.361-.295-.656-.656-.656zm13.126 0c-.362 0-.657.296-.657.657v1.313c0 .361.295.656.657.656.36 0 .656-.295.656-.657v-1.312c0-.361-.295-.656-.657-.656zm3.28 0c-.36 0-.655.296-.655.657v1.313c0 .361.294.656.656.656.361 0 .656-.295.656-.657v-1.312c0-.361-.295-.656-.656-.656zm-26.25.657c-.36 0-.655.295-.655.656 0 .362.294.657.656.657h3.281c.361 0 .656-.295.656-.657 0-.361-.295-.656-.656-.656H4.594zm29.532 0c-.361 0-.656.295-.656.656 0 .362.295.657.656.657h3.281c.362 0 .657-.295.657-.657 0-.361-.295-.656-.657-.656h-3.281z"/>
</svg>
