<svg xmlns="http://www.w3.org/2000/svg" width="43" height="44" viewBox="0 0 43 44">
    <path fill="#2F4D60" d="M11.49 0c-.462 0-.767.307-.767.771v4.55H7.734c-.766 0-1.454.386-1.915 1.004L3.447 9.95c-1.15.232-1.915 1.157-1.915 2.314 0 1.003.613 1.853 1.532 2.16v27.924H.766c-.46 0-.766.307-.766.77 0 .465.305.772.766.772h41.36c.462 0 .767-.307.767-.771s-.305-.771-.766-.771h-2.298V23.834h.766c.46 0 .766-.307.766-.771s-.305-.771-.766-.771H33.7v-1.543c0-.85-.688-1.543-1.531-1.543h-3.064v-4.782c.918-.307 1.532-1.157 1.532-2.16 0-1.157-.766-2.082-1.84-2.24L26.425 6.4c-.46-.693-1.224-1.079-1.99-1.079H15.32v-.693c0-.464-.305-.771-.766-.771-.46 0-.766.307-.766.771v.693h-1.532V.771c0-.464-.305-.771-.766-.771zM7.66 6.864h3.063v1.618c0 .464.305.772.766.772.46 0 .766-.308.766-.772V6.864h1.532v1.618c0 .464.305.772.766.772.46 0 .766-.308.766-.772V6.864h9.116c.228 0 .458.154.61.31l1.838 2.776H5.287l1.76-2.776c.152-.232.382-.31.612-.31zm-3.83 4.628h24.51c.46 0 .766.308.766.772s-.305.771-.766.771H3.83c-.461 0-.766-.307-.766-.771s.305-.772.766-.772zm.766 3.086h22.978v27.77H15.319v-4.629c0-.85-.688-1.543-1.532-1.543H9.191c-.843 0-1.532.694-1.532 1.543v4.629H4.596V28.463h14.553c.46 0 .765-.308.765-.772s-.305-.771-.765-.771H4.596V14.578zm3.83 1.543c-.461 0-.767.307-.767.771s.306.771.766.771h1.532c.461 0 .766-.307.766-.771s-.305-.771-.766-.771H8.425zm4.595 0c-.46 0-.766.307-.766.771s.305.771.766.771h1.532c.46 0 .766-.307.766-.771s-.305-.771-.766-.771H13.02zm4.596 0c-.461 0-.766.307-.766.771s.305.771.766.771h1.532c.46 0 .765-.307.765-.771s-.305-.771-.765-.771h-1.532zm4.595 0c-.46 0-.766.307-.766.771s.306.771.766.771h1.532c.461 0 .766-.307.766-.771s-.305-.771-.766-.771h-1.532zM8.425 19.206c-.46 0-.766.307-.766.772 0 .464.306.77.766.77h1.532c.461 0 .766-.306.766-.77 0-.465-.305-.772-.766-.772H8.425zm4.596 0c-.46 0-.766.307-.766.772 0 .464.305.77.766.77h1.532c.46 0 .766-.306.766-.77 0-.465-.305-.772-.766-.772H13.02zm4.596 0c-.461 0-.766.307-.766.772 0 .464.305.77.766.77h1.532c.46 0 .765-.306.765-.77 0-.465-.305-.772-.765-.772h-1.532zm4.595 0c-.46 0-.766.307-.766.772 0 .464.306.77.766.77h1.532c.461 0 .766-.306.766-.77 0-.465-.305-.772-.766-.772h-1.532zm6.894 1.543h3.064v2.314c0 .464.305.771.766.771h5.361v9.257h-7.66c-.46 0-.765.307-.765.771s.305.772.766.772h7.66v7.714h-9.192v-21.6zm-20.68 1.543c-.461 0-.767.307-.767.771s.306.771.766.771h1.532c.461 0 .766-.307.766-.771s-.305-.771-.766-.771H8.425zm4.595 0c-.46 0-.766.307-.766.771s.305.771.766.771h1.532c.46 0 .766-.307.766-.771s-.305-.771-.766-.771H13.02zm4.596 0c-.461 0-.766.307-.766.771s.305.771.766.771h1.532c.46 0 .765-.307.765-.771s-.305-.771-.765-.771h-1.532zm4.595 0c-.46 0-.766.307-.766.771s.306.771.766.771h1.532c.461 0 .766-.307.766-.771s-.305-.771-.766-.771h-1.532zm9.958 3.085c-.461 0-.766.308-.766.772s.305.77.766.77H33.7c.461 0 .766-.306.766-.77s-.305-.772-.766-.772H32.17zm-9.958 1.543c-.46 0-.766.307-.766.771s.306.772.766.772h3.064c.46 0 .766-.308.766-.772s-.305-.771-.766-.771h-3.064zm9.958 1.543c-.461 0-.766.307-.766.771s.305.771.766.771H33.7c.461 0 .766-.307.766-.77 0-.465-.305-.772-.766-.772H32.17zM8.425 31.548c-.46 0-.766.308-.766.772s.306.771.766.771h1.532c.461 0 .766-.307.766-.771s-.305-.772-.766-.772H8.425zm4.596 0c-.46 0-.766.308-.766.772s.305.771.766.771h1.532c.46 0 .766-.307.766-.771s-.305-.772-.766-.772H13.02zm4.596 0c-.461 0-.766.308-.766.772s.305.771.766.771h1.532c.46 0 .765-.307.765-.771s-.305-.772-.765-.772h-1.532zm4.595 0c-.46 0-.766.308-.766.772s.306.771.766.771h1.532c.461 0 .766-.307.766-.771s-.305-.772-.766-.772h-1.532zm-4.595 3.086c-.461 0-.766.307-.766.771s.305.771.766.771h1.532c.46 0 .765-.307.765-.77 0-.465-.305-.772-.765-.772h-1.532zm4.595 0c-.46 0-.766.307-.766.771s.306.771.766.771h1.532c.461 0 .766-.307.766-.77 0-.465-.305-.772-.766-.772h-1.532zm-13.02 3.085h4.595v4.629H9.191v-4.629zm8.425 0c-.461 0-.766.308-.766.772s.305.771.766.771h1.532c.46 0 .765-.307.765-.771s-.305-.772-.765-.772h-1.532zm4.595 0c-.46 0-.766.308-.766.772s.306.771.766.771h1.532c.461 0 .766-.307.766-.771s-.305-.772-.766-.772h-1.532zm11.49 0c-.461 0-.766.308-.766.772s.305.771.765.771h1.532c.461 0 .766-.307.766-.771s-.305-.772-.766-.772h-1.532z"/>
</svg>
