<svg xmlns="http://www.w3.org/2000/svg" width="20" height="20" viewBox="0 0 20 20">
    <path fill="#FFF" d="M3.41 0L0 .018l.01 2 2.07-.01 3.295 7.904-1.197 1.916c-.4.64-.421 1.449-.055 2.108s1.06 1.068 1.814 1.068h12.06v-2H5.936l-.064-.117 1.176-1.883h7.469c.727 0 1.396-.395 1.748-1.03l3.603-6.484c.173-.31.168-.688-.012-.994-.18-.305-.509-.492-.863-.492H4.246L3.41 0zm1.668 4.004h12.217l-2.777 5H7.162l-2.084-5zm.918 12c-1.104 0-2 .895-2 2 0 1.104.896 2 2 2 1.105 0 2-.896 2-2 0-1.105-.895-2-2-2zm10 0c-1.104 0-2 .895-2 2 0 1.104.896 2 2 2 1.105 0 2-.896 2-2 0-1.105-.895-2-2-2z"/>
</svg>
