<svg xmlns="http://www.w3.org/2000/svg" width="37" height="30" viewBox="0 0 37 30">
    <path fill="#426880" d="M17.884 0c-.573 0-1.037.57-.837 1.169l6.077 18.226c.13.386.481.605.843.605.218 0 .44-.079.615-.25l12.15-11.837c.471-.46.296-1.253-.326-1.47L18.183.052c-.1-.036-.2-.053-.3-.053zM8.5 3C3.806 3 0 6.778 0 11.438v15.187C0 28.49 1.522 30 3.4 30h27.2c1.878 0 3.4-1.51 3.4-3.375v-9.944c0-.74-.902-1.111-1.431-.586l-.624.62-5.774 5.58-.083.082c-1.758 1.699-4.704.988-5.479-1.322l-.036-.109-5.927-17.33c-.138-.37-.494-.616-.89-.616H8.5zM22 5l10 3.507-2.164 2.108-3.245-2.048c-.541-.4-1.223.275-.828.821l1.909 3.338L25.334 15 22 5zM8 7c2.757 0 5 2.243 5 5v15H3V12c0-2.757 2.243-5 5-5zm.5 5c-.828 0-1.5.672-1.5 1.5S7.672 15 8.5 15s1.5-.672 1.5-1.5S9.328 12 8.5 12z"/>
</svg>
