<svg xmlns="http://www.w3.org/2000/svg" width="41" height="41" viewBox="0 0 41 41">
    <g fill="none" fill-rule="evenodd">
        <g fill="#2F4D60" fill-rule="nonzero">
            <g>
                <g>
                    <path d="M399.5 390.691c5.607 0 10.17 4.562 10.17 10.17v11.612h.116c.343 0 .648.219.758.544l2.008 5.925c.083.245.043.514-.108.724-.15.21-.392.334-.65.334h-24.589c-.258 0-.5-.124-.65-.334-.15-.21-.19-.48-.108-.724l2.008-5.925c.11-.325.415-.544.758-.544h.117V400.86c0-5.608 4.562-10.17 10.17-10.17zm9.711 23.383h-19.424l-1.465 4.325h22.355l-1.466-4.325zm-9.712-21.781c-4.724 0-8.568 3.843-8.568 8.568v11.612h17.137V400.86c0-4.725-3.844-8.568-8.569-8.568zm0 13.694c1.325 0 2.403 1.077 2.403 2.402 0 1.325-1.078 2.402-2.403 2.402-1.324 0-2.402-1.077-2.402-2.402 0-1.325 1.078-2.402 2.402-2.402zm0 1.601c-.441 0-.8.36-.8.801 0 .442.359.8.8.8.442 0 .801-.358.801-.8 0-.442-.359-.8-.8-.8zm0-11.851c1.325 0 2.403 1.078 2.403 2.402v3.844c0 1.324-1.078 2.402-2.403 2.402-1.324 0-2.402-1.077-2.402-2.402v-3.844c0-1.324 1.078-2.402 2.402-2.402zm0 1.601c-.441 0-.8.36-.8.801v3.844c0 .441.359.8.8.8.442 0 .801-.359.801-.8v-3.844c0-.441-.359-.8-.8-.8zm-12.852 3.096c.442 0 .801.358.801.8 0 .443-.359.801-.8.801h-3.678c-.442 0-.8-.358-.8-.8 0-.443.358-.801.8-.801zm-6.846 0c.21 0 .417.085.566.234.149.15.235.356.235.566 0 .211-.086.418-.235.567-.149.149-.356.234-.566.234-.21 0-.417-.085-.566-.234-.15-.15-.235-.356-.235-.567 0-.21.086-.417.235-.566.149-.149.355-.234.566-.234zm36.561 0c.442 0 .801.358.801.8 0 .443-.359.801-.8.801h-3.678c-.442 0-.8-.358-.8-.8 0-.443.358-.801.8-.801zm2.836 0c.21 0 .417.085.566.234.15.15.235.356.235.566 0 .211-.086.418-.235.567-.149.149-.355.234-.566.234-.21 0-.417-.085-.566-.234-.15-.15-.235-.356-.235-.567 0-.21.086-.417.235-.566.149-.149.355-.234.566-.234zm-37.86-6.723c.169-.408.637-.602 1.046-.433l2.62 1.085c.408.17.602.638.433 1.047-.128.308-.426.494-.74.494-.102 0-.206-.02-.306-.06l-2.62-1.086c-.409-.17-.603-.638-.434-1.047zm35.277-.433c.409-.169.877.025 1.047.433.169.409-.025.877-.434 1.047l-2.62 1.085c-.1.042-.204.061-.306.061-.314 0-.613-.186-.74-.494-.17-.409.024-.877.433-1.047zm-2.413-7.879c.313-.313.82-.313 1.133 0 .312.313.312.82 0 1.133l-3.94 3.94c-.157.156-.362.234-.567.234-.205 0-.41-.078-.566-.234-.313-.313-.313-.82 0-1.133zm-30.538 0c.313-.313.82-.313 1.133 0l3.94 3.94c.312.313.312.82 0 1.133-.157.156-.362.234-.567.234-.205 0-.41-.078-.566-.234l-3.94-3.94c-.313-.313-.313-.82 0-1.133zm15.835 1.526c.211 0 .418.085.567.234.149.15.234.355.234.567 0 .21-.086.416-.234.566-.15.149-.356.234-.567.234-.21 0-.417-.085-.566-.234-.149-.15-.234-.356-.234-.566 0-.212.085-.418.234-.567.15-.15.356-.234.566-.234zm-7.523-3.853c.409-.169.877.025 1.047.434l1.085 2.62c.17.408-.025.877-.433 1.046-.1.042-.204.061-.307.061-.314 0-.612-.186-.74-.494l-1.085-2.62c-.17-.409.025-.877.433-1.047zm14 .434c.17-.409.638-.602 1.046-.434.409.17.603.638.434 1.047l-1.086 2.62c-.127.308-.426.494-.74.494-.102 0-.206-.02-.306-.06-.408-.17-.603-.638-.433-1.047zM399.5 379c.443 0 .801.359.801.8v4.805c0 .443-.358.801-.8.801-.443 0-.801-.358-.801-.8V379.8c0-.442.358-.801.8-.801z" transform="translate(-379 -2639) translate(0 141) translate(0 2119)"/>
                </g>
            </g>
        </g>
    </g>
</svg>
