<svg xmlns="http://www.w3.org/2000/svg" width="15" height="15" viewBox="0 0 15 15">
    <path fill="#FFF" d="M7.5 0C3.362 0 0 3.362 0 7.5S3.362 15 7.5 15 15 11.638 15 7.5 11.638 0 7.5 0zm-.326.69v2.89H4.84c.124-.363.263-.701.416-1.007C5.792 1.5 6.472.846 7.174.69zm.652 0c.702.156 1.382.81 1.918 1.883.153.306.292.644.416 1.007H7.826V.69zM5.603.92c-.352.369-.665.83-.93 1.361-.198.394-.368.832-.516 1.299h-2.27c.888-1.268 2.19-2.222 3.716-2.66zm3.794 0c1.525.438 2.828 1.392 3.715 2.66h-2.269c-.148-.467-.318-.905-.515-1.299-.266-.53-.58-.992-.93-1.361zM1.472 4.246H3.97c-.222.893-.35 1.883-.373 2.928H.662c.05-1.056.336-2.05.81-2.928zm3.17 0h2.532v2.928H4.249c.025-1.056.163-2.051.394-2.928zm3.184 0h2.531c.23.877.369 1.872.394 2.928H7.826V4.246zm3.204 0h2.498c.474.878.76 1.872.81 2.928h-2.935c-.023-1.045-.151-2.035-.373-2.928zM.666 7.826h2.93c.022 1.046.152 2.035.374 2.928H1.472C.998 9.877.715 8.882.666 7.826zm3.581 0h2.927v2.928H4.643c-.231-.877-.371-1.872-.396-2.928zm3.58 0h2.926c-.025 1.056-.165 2.05-.396 2.928h-2.53V7.826zm3.578 0h2.93c-.05 1.056-.333 2.05-.807 2.928H11.03c.222-.893.352-1.882.375-2.928zM1.89 11.42h2.267c.148.467.318.905.515 1.299.266.53.58.992.93 1.361-1.524-.438-2.825-1.393-3.712-2.66zm2.95 0h2.334v2.89c-.702-.156-1.382-.81-1.918-1.883-.153-.306-.292-.644-.416-1.007zm2.986 0h2.334c-.124.363-.263.701-.416 1.007-.536 1.073-1.216 1.727-1.918 1.883v-2.89zm3.017 0h2.267c-.887 1.267-2.188 2.222-3.713 2.66.352-.369.665-.83.93-1.361.198-.394.368-.832.516-1.299z"/>
</svg>
