<svg xmlns="http://www.w3.org/2000/svg" width="15" height="15" viewBox="0 0 15 15">
    <path fill="#38B3FF" d="M4.432 0C1.988 0 0 1.988 0 4.432v6.136C0 13.012 1.988 15 4.432 15h6.136C13.012 15 15 13.012 15 10.568V4.432C15 1.988 13.012 0 10.568 0H4.432zm0 .682h6.136c2.075 0 3.75 1.675 3.75 3.75v6.136c0 2.075-1.675 3.75-3.75 3.75H4.432c-2.075 0-3.75-1.675-3.75-3.75V4.432c0-2.075 1.675-3.75 3.75-3.75zm7.159 2.045c-.377 0-.682.306-.682.682 0 .377.305.682.682.682.376 0 .682-.305.682-.682 0-.376-.306-.682-.682-.682zM7.5 3.75c-2.067 0-3.75 1.683-3.75 3.75s1.683 3.75 3.75 3.75 3.75-1.683 3.75-3.75S9.567 3.75 7.5 3.75zm0 .682c1.699 0 3.068 1.37 3.068 3.068 0 1.699-1.37 3.068-3.068 3.068-1.699 0-3.068-1.37-3.068-3.068 0-1.699 1.37-3.068 3.068-3.068z"/>
</svg>
