<svg xmlns="http://www.w3.org/2000/svg" width="25" height="25" viewBox="0 0 25 25">
    <path fill="#FFF" d="M7.386 0C3.314 0 0 3.314 0 7.386v10.228C0 21.686 3.314 25 7.386 25h10.228C21.686 25 25 21.686 25 17.614V7.386C25 3.314 21.686 0 17.614 0H7.386zm0 1.136h10.228c3.458 0 6.25 2.792 6.25 6.25v10.228c0 3.458-2.792 6.25-6.25 6.25H7.386c-3.458 0-6.25-2.792-6.25-6.25V7.386c0-3.458 2.792-6.25 6.25-6.25zm11.932 3.41c-.627 0-1.136.508-1.136 1.136 0 .627.509 1.136 1.136 1.136.628 0 1.137-.509 1.137-1.136 0-.628-.51-1.137-1.137-1.137zM12.5 6.25c-3.445 0-6.25 2.805-6.25 6.25s2.805 6.25 6.25 6.25 6.25-2.805 6.25-6.25-2.805-6.25-6.25-6.25zm0 1.136c2.83 0 5.114 2.283 5.114 5.114 0 2.83-2.283 5.114-5.114 5.114-2.83 0-5.114-2.283-5.114-5.114 0-2.83 2.283-5.114 5.114-5.114z"/>
</svg>
