<svg xmlns="http://www.w3.org/2000/svg" width="43" height="41" viewBox="0 0 43 41">
    <g fill="none" fill-rule="evenodd">
        <g fill="#2F4D60" fill-rule="nonzero">
            <g>
                <g>
                    <path d="M169.674 379.196c1.11-.436 2.363.11 2.799 1.22.435 1.109-.11 2.362-1.22 2.798-1.11.435-2.363-.11-2.799-1.22-.934.251-1.585 1.097-1.59 2.065v9.31h2.15v1.514c.054 2.49 1.72 4.654 4.113 5.343 1.281.407 2.657.407 3.939 0 2.395-.687 4.065-2.852 4.122-5.343v-1.514h1.432l-.032-9.316c-.008-.954-.643-1.789-1.56-2.05-.236.586-.72 1.038-1.32 1.235-1.122.366-2.329-.247-2.695-1.369-.366-1.122.246-2.328 1.368-2.694 1.122-.367 2.329.246 2.695 1.368 1.698.307 2.936 1.78 2.946 3.505l.03 9.321h1.433v1.493c0 4.475-3.282 8.422-7.878 9.597v1.801c0 2.112-1.11 2.865-2.148 2.865v1.222c0 4.507 3.373 8.176 7.52 8.176 4.146 0 7.519-3.664 7.519-8.176v-14.113l.041-.007h-.041c.098-3.487 2.827-6.323 6.087-6.323 3.357 0 6.087 2.925 6.087 6.518v1.301c2.2.318 3.929 2.046 4.246 4.246.396 2.74-1.505 5.282-4.246 5.678-2.74.395-5.282-1.505-5.677-4.246-.396-2.74 1.505-5.282 4.245-5.678v-1.3c0-2.804-2.088-5.084-4.655-5.084-2.494 0-4.583 2.211-4.655 4.93v14.078c0 5.295-4.015 9.608-8.952 9.608-4.936 0-8.952-4.308-8.952-9.608v-1.222c-1.038 0-2.148-.753-2.148-2.865v-1.801c-4.594-1.172-7.878-5.12-7.878-9.6v-1.49h1.432v-9.31c.005-1.741 1.262-3.226 2.978-3.52.2-.614.663-1.107 1.264-1.343zm6.5 25.544c-.057.008-.115.01-.172.016-.074.008-.15.014-.221.02-.337.03-.678.051-1.021.051h-.036c-.345 0-.686-.02-1.025-.05l-.215-.02c-.058-.007-.117-.01-.174-.017v1.52c0 .43.072 1.432.716 1.432h1.432c.644 0 .716-1.002.716-1.432zm25.782-5.641c-1.977 0-3.58 1.603-3.58 3.58 0 1.978 1.603 3.581 3.58 3.581 1.977-.002 3.579-1.604 3.581-3.58 0-1.978-1.603-3.581-3.58-3.581zm0 1.432c1.187 0 2.149.962 2.149 2.148 0 1.187-.962 2.149-2.149 2.149-1.186 0-2.148-.962-2.148-2.149 0-1.186.962-2.148 2.148-2.148zm0 1.432c-.395 0-.716.32-.716.716 0 .396.32.716.716.716.396 0 .716-.32.716-.716 0-.395-.32-.716-.716-.716zm-34.375-7.161h-2.149v.057c0 3.984 3.071 7.49 7.305 8.336.327.067.657.117.99.15 1.008.1 2.026.05 3.02-.149 4.235-.848 7.305-4.353 7.305-8.337v-.057h-1.432v.081c-.055 3.114-2.127 5.83-5.116 6.706-1.566.495-3.246.495-4.811 0-2.988-.877-5.059-3.593-5.112-6.706v-.081zm11.458-14.324c-.395 0-.716.321-.716.717 0 .395.32.716.716.716.396 0 .716-.32.716-.716 0-.396-.32-.717-.716-.717zm-8.594 0c-.395 0-.716.321-.716.717 0 .395.32.716.716.716.396 0 .717-.32.717-.716 0-.396-.321-.717-.717-.717z" transform="translate(-164 -2639) translate(0 141) translate(0 2119)"/>
                </g>
            </g>
        </g>
    </g>
</svg>
