<svg xmlns="http://www.w3.org/2000/svg" width="15" height="22" viewBox="0 0 15 22">
    <path fill="#616161" d="M7.402 0C3.325 0 0 3.325 0 7.402c0 1.156.469 2.483 1.105 3.932.636 1.449 1.455 2.988 2.288 4.42 1.664 2.87 3.34 5.27 3.34 5.27l.669.976.668-.977s1.677-2.4 3.341-5.268c.832-1.433 1.652-2.972 2.288-4.42.636-1.45 1.105-2.777 1.105-3.933C14.804 3.325 11.479 0 7.402 0zm0 1.645c3.19 0 5.757 2.567 5.757 5.757 0 .658-.354 1.905-.951 3.264-.598 1.359-1.423 2.866-2.236 4.266-1.292 2.23-2.095 3.409-2.57 4.112-.476-.703-1.279-1.882-2.57-4.112-.813-1.4-1.639-2.907-2.236-4.266-.598-1.359-.951-2.606-.951-3.264 0-3.19 2.567-5.757 5.757-5.757zm0 4.112c-.91 0-1.645.736-1.645 1.645s.736 1.645 1.645 1.645 1.645-.736 1.645-1.645c0-.91-.736-1.645-1.645-1.645z"/>
</svg>
