<svg xmlns="http://www.w3.org/2000/svg" width="47" height="41" viewBox="0 0 47 41">
    <defs>
        <radialGradient id="xjj4kr2wra" cx="48.821%" cy="-122.434%" r="244.429%" fx="48.821%" fy="-122.434%" gradientTransform="matrix(.87563 0 0 1 .06 0)">
            <stop offset="0%" stop-color="#547F9B"/>
            <stop offset="100%" stop-color="#304E60"/>
        </radialGradient>
    </defs>
    <g fill="none" fill-rule="evenodd">
        <g fill="url(#xjj4kr2wra)" fill-rule="nonzero" transform="translate(-804 -2639)">
            <g>
                <g>
                    <path d="M810.14 390.893c.272-.176.614-.203.91-.072.603.271 1.518.36 2.643.271 1.359-.109 2.726-.07 4.076.113.377.051.641.398.59.775-.05.377-.398.642-.775.59-1.253-.17-2.52-.205-3.782-.105-.913.097-1.837.036-2.73-.18v1.713l11.702 4.613 3.951 1.56v-.845c-4.16-3.083-10.032-4.312-10.09-4.324-.241-.048-.437-.222-.515-.454-.078-.233-.026-.49.136-.673.163-.184.41-.267.651-.218.242.05 5.528 1.152 9.818 3.994v-.663c-.298-.482-1.77-2.49-6.215-3.778-.352-.115-.55-.487-.447-.843.103-.355.468-.565.827-.475 2.38.688 4.289 1.654 5.68 2.87.302.262.584.547.844.85.977-1.152 3.298-3.106 8.308-4.165 1.78-.377 3.605-.494 5.418-.347 1.127.088 2.04-.004 2.643-.271.298-.13.641-.102.915.074.27.176.433.477.432.8v1.755l.827-.326c.347-.136.737-.092 1.045.117.307.21.492.557.492.928v1.313l1.925-.792c.314-.129.672-.092.954.097.281.189.45.506.45.845v2.848c-.005.379-.218.728-.557.9l-14.848 7.652 14.768 6.071c.382.155.632.527.632.94v4.923c0 .339-.17.655-.45.844-.282.19-.639.226-.953.098l-3.705-1.515-2.4.653c-.244.067-.505.039-.73-.078l-4.18-2.145c-.316-.184-.432-.583-.265-.908.167-.325.56-.462.893-.311l4.05 2.08 2.382-.645c.216-.059.444-.045.652.039l3.333 1.365v-4.164l-15.628-6.424-4.913 2.535 7.265 3.743c.23.104.386.328.402.581.017.253-.108.495-.324.628-.215.134-.487.138-.706.01l-8.135-4.191-15.168 7.815c-.225.116-.486.144-.731.078l-2.4-.652-3.705 1.514c-.313.129-.67.093-.952-.097-.282-.189-.45-.506-.45-.845v-4.929c0-.413.25-.785.632-.94l14.778-6.08-14.848-7.65c-.34-.173-.553-.522-.552-.903v-2.848c0-.339.169-.656.45-.845.282-.19.64-.225.954-.097l1.925.792v-1.312c0-.372.185-.72.492-.929.308-.209.699-.253 1.045-.117l.827.326v-1.755c.001-.324.166-.625.437-.802zm39.31 5.276l-44.077 18.122v4.168l3.333-1.365c.207-.084.436-.098.652-.041l2.38.647 37.712-19.429v-2.102zm-44.077 0v2.102l15.7 8.084 4.535-1.86-20.235-8.326zm40.75-1.621l-18.46 7.27c-.161.065-.341.065-.503 0l-18.46-7.27v1.506l18.712 7.692 18.711-7.686v-1.512zm-2.366-2.262c-.893.215-1.816.276-2.73.18-1.682-.135-3.375-.027-5.026.32-3.48.736-5.488 1.912-6.56 2.766-.528.398-.983.883-1.347 1.434v.663c4.291-2.842 9.576-3.944 9.818-3.994.372-.076.734.165.81.536.075.372-.165.734-.537.81-.058.011-5.93 1.24-10.09 4.323l.01.002v.845l3.95-1.56 11.702-4.613zm-10.27-11.917c.055 0 .08.107.08.318l-.031 8.351c.016.268-.09.53-.29.708-.145.086-.29.17-.43.256-.074.06-.14.132-.195.21-.045.063-.088.094-.127.094-.039 0-.082-.031-.128-.094-.054-.08-.12-.15-.195-.21l-.428-.256c-.201-.178-.31-.44-.292-.708v-.195h-.585c-.033 0-.061-.002-.086-.006l-.54-.001v.314c.017.268-.091.53-.293.707-.144.084-.287.17-.429.258-.08.062-.154.132-.22.209-.035.05-.089.083-.149.093-.06-.01-.113-.044-.148-.093-.065-.078-.139-.148-.22-.21-.14-.087-.283-.173-.427-.257-.171-.153-.274-.367-.289-.593v-.428h-1.355c-.013.447-.201.872-.525 1.181-.297.263-.684.403-1.08.39-.292-.003-.58-.057-.853-.161-.14-.051-.212-.104-.212-.16 0-.057.091-.098.273-.09.422.053.848-.076 1.17-.355.23-.218.356-.524.347-.84.002-.16-.03-.32-.094-.467-.04-.108-.126-.193-.234-.234-.107-.039-.163-.076-.171-.113-.008-.037.064-.105.206-.232.2-.178.343-.313.428-.404.104-.12.196-.25.273-.39.078-.134.126-.195.144-.195.057 0 .105.106.148.318l.185.874h.602c.032-.013.075-.02.13-.02h1.51v1.17c0 .108.062.16.185.16s.195-.052.195-.16v-1.505h-1.038c-.138 0-.209-.08-.209-.242v-.478c-.01-.37.131-.728.39-.992.146-.153.324-.272.521-.348l.539-.195c.143-.07.274-.161.39-.27.061-.065.133-.12.212-.16.065 0 .098.087.098.26v2.753h.606c.048 0 .088.005.12.015h1.187c.105 0 .168.024.195.07.014.044.02.09.018.137v.86c-.006.04.007.082.036.111.03.03.071.043.112.037.041.007.083-.007.113-.036.03-.029.044-.07.039-.112v-6.623c.016-.194-.03-.388-.133-.554-.059-.074-.143-.126-.236-.145-.085-.025-.126-.06-.126-.101 0-.04.083-.107.253-.234.24-.178.408-.308.503-.39.134-.123.256-.257.365-.402.107-.134.172-.195.195-.195zm-12.293 5.902c.166.146.31.315.427.501.195.236.368.488.517.755l-.004-.004c.142.28.218.588.22.901.029.457-.207.89-.606 1.116-.22.128-.804.195-1.755.195-.223 0-.334-.037-.334-.112 0-.027.049-.095.145-.195.132-.15.214-.245.245-.288.079-.123.144-.254.195-.39.05-.115.094-.174.135-.174.04 0 .082.045.185.137.079.079.183.127.295.134.37 0 .555-.166.555-.5 0-.301-.185-.453-.551-.453-.116 0-.174-.053-.174-.16.024-.087.061-.168.111-.242.07-.12.128-.246.174-.377.035-.186.056-.374.062-.563.012-.188.064-.281.158-.281zm2.177-5.869c.02 0 .082.067.185.195.11.14.23.27.36.39.102.092.274.227.514.404.17.137.253.215.253.246 0 .04-.04.076-.127.101-.094.02-.18.07-.241.145-.099.167-.143.36-.127.553v6.4h-.897v-8.116c0-.21.025-.318.08-.318zm11.179 0c.02 0 .082.067.185.195.11.14.23.27.361.39.101.092.273.227.513.404.17.137.254.215.254.246 0 .04-.041.076-.127.101-.095.019-.18.07-.242.145-.098.167-.143.36-.127.553v6.4h-.899v-8.116c0-.21.027-.318.082-.318zm-14.643 5.89c.168.07.277.234.277.416 0 .119-.047.234-.13.318-.085.085-.2.132-.319.132-.182 0-.345-.11-.415-.278-.07-.168-.03-.361.097-.49.129-.13.322-.168.49-.098zm9.44-.011c-.11.02-.21.075-.285.156-.075.073-.117.172-.117.277h.401v-.433zm.324-2.664c.197.053.334.233.333.438.002.12-.045.235-.13.318-.085.085-.2.133-.319.133-.12 0-.234-.048-.318-.133-.146-.143-.176-.367-.075-.545.102-.178.311-.264.509-.21zm-.847.12c.086.083.134.199.132.318 0 .214-.15.398-.36.44-.21.043-.42-.07-.502-.267-.083-.197-.014-.425.163-.544.178-.12.415-.097.567.053zM825.31 379c0 .497-.21.746-.632.747h-1.59c-.248-.018-.488.098-.63.304 0-.498.21-.746.63-.745h1.59c.25.017.49-.1.632-.306z" transform="translate(0 141) translate(0 2119)"/>
                </g>
            </g>
        </g>
    </g>
</svg>
