<svg xmlns="http://www.w3.org/2000/svg" width="25" height="30" viewBox="0 0 25 30">
    <path d="M12.128 0c-4.237 0-7.66 3.423-7.66 7.66v3.191H1.915c-1.05 0-1.915.865-1.915 1.915v15.32C0 29.134.865 30 1.915 30H22.34c1.05 0 1.915-.865 1.915-1.915V12.766c0-1.05-.865-1.915-1.915-1.915h-2.553V7.66c0-4.237-3.423-7.66-7.66-7.66zm0 1.277c3.553 0 6.383 2.83 6.383 6.383v3.191H5.745V7.66c0-3.553 2.83-6.383 6.383-6.383zM1.915 12.127H22.34c.354 0 .639.285.639.639v15.32c0 .353-.285.637-.639.637H1.915c-.354 0-.638-.284-.638-.638V12.766c0-.354.284-.638.638-.638zm10.213 5.107c-1.085 0-1.915.83-1.915 1.915 0 .573.254 1.077.638 1.396v1.795c0 .704.574 1.277 1.277 1.277s1.276-.573 1.276-1.277v-1.795c.384-.319.639-.823.639-1.396 0-1.085-.83-1.915-1.915-1.915z"/>
</svg>
