<svg xmlns="http://www.w3.org/2000/svg" width="24" height="20" viewBox="0 0 24 20">
    <path fill="#FFF" d="M16.455 0c-2.875 0-5.213 2.338-5.213 5.213 0 .173.043.342.06.511-3.555-.34-6.699-2.052-8.834-4.672-.1-.126-.254-.194-.415-.182-.16.01-.303.103-.381.242-.45.772-.707 1.66-.707 2.614 0 1.155.414 2.212 1.052 3.08-.124-.055-.26-.085-.376-.15-.148-.08-.326-.075-.47.01-.145.087-.234.243-.236.41v.06c0 1.771.917 3.31 2.269 4.252-.015-.002-.03.004-.045 0-.165-.028-.332.03-.443.156-.111.126-.147.3-.098.46.537 1.67 1.908 2.945 3.606 3.41-1.352.804-2.92 1.278-4.613 1.278-.366 0-.717-.02-1.066-.06-.226-.03-.442.101-.517.315-.077.214.008.453.201.571 2.17 1.392 4.744 2.209 7.512 2.209 4.487 0 8.006-1.875 10.367-4.553 2.36-2.678 3.59-6.156 3.59-9.405 0-.137-.01-.27-.014-.405.88-.675 1.667-1.465 2.283-2.39.122-.178.11-.416-.032-.581-.139-.166-.373-.216-.569-.124-.248.11-.537.122-.796.21.342-.456.635-.948.811-1.502.06-.19-.005-.399-.161-.523-.156-.122-.374-.137-.545-.033-.82.486-1.73.828-2.69 1.036C19.056.586 17.829 0 16.456 0zm0 .962c1.227 0 2.335.524 3.11 1.352.117.12.288.17.45.135.628-.124 1.223-.306 1.804-.54-.335.45-.748.835-1.232 1.126-.22.107-.323.36-.242.591.078.23.319.363.557.31.481-.058.91-.253 1.368-.375-.412.445-.862.847-1.353 1.202-.133.097-.206.255-.195.42.008.196.015.389.015.586 0 3.005-1.153 6.267-3.35 8.76-2.198 2.491-5.424 4.236-9.646 4.236-1.917 0-3.728-.424-5.363-1.172 2.028-.156 3.898-.873 5.408-2.058.158-.126.22-.336.156-.528-.064-.191-.24-.323-.441-.329-1.585-.028-2.913-.95-3.62-2.253h.074c.475 0 .945-.06 1.382-.18.21-.062.355-.258.348-.477-.008-.22-.164-.408-.378-.455-1.71-.345-2.993-1.739-3.29-3.47.485.167.98.298 1.518.315.22.013.418-.124.486-.332.068-.209-.015-.438-.201-.554-1.142-.765-1.893-2.066-1.893-3.546 0-.548.143-1.052.33-1.532 2.404 2.638 5.77 4.39 9.57 4.582.151.007.298-.055.395-.17.098-.116.135-.27.102-.416-.074-.312-.12-.642-.12-.977 0-2.355 1.896-4.251 4.251-4.251z"/>
</svg>
