<svg xmlns="http://www.w3.org/2000/svg" width="114" height="410" viewBox="0 0 114 410">
    <g fill="none" fill-rule="evenodd" opacity=".498">
        <g fill-rule="nonzero">
            <g>
                <g>
                    <g>
                        <g>
                            <g>
                                <path fill="#C4D0E8" d="M67.738 108.362l-.094.068-.063.047c-11.128 8.336-24.543 26.503-34.203 46.306-7.791 15.975-8.835 33.497-8.835 50.054 0 4.897.104 9.904.209 14.749.104 4.844.214 9.836.214 14.722 0 11.294-.486 24.548-4.068 37.251-3.655 12.977-10.1 23.667-19.692 32.69h-.062l-.737.692.136.22.94-.361.047-.047c4.96-1.99 9.756-4.367 14.344-7.11 10.444-6.255 17.943-13.154 22.308-20.516 15.457-26.057 17.441-50.122 17.436-68.158 0-8.022-.428-15.954-.846-23.625-.418-7.67-.815-14.88-.815-22.172 0-16.012 1.682-34.971 14.1-54.213l.041-.068.063-.094.684-1.2-1.107.765zM53.299 163.15c0 7.34.392 14.554.81 22.22.417 7.665.85 15.581.85 23.593 0 17.973-1.973 41.943-17.346 67.838-5.368 9.05-14.966 16.028-22.078 20.29-3.266 1.949-6.63 3.727-10.078 5.328-.898.419-1.78.807-2.611 1.164 9.018-8.856 15.143-19.29 18.668-31.83 3.598-12.793 4.073-26.105 4.073-37.446 0-4.897-.104-9.904-.209-14.748-.104-4.845-.214-9.836-.214-14.723 0-16.473 1.044-33.906 8.799-49.76 9.196-18.875 21.806-36.23 32.558-44.943C54.897 128.977 53.3 147.474 53.3 163.15z" transform="translate(-1326 -1231) translate(0 141) translate(0 994) rotate(-180 739.5 253)"/>
                                <path fill="#C4D0E8" d="M80.213 5.16v-.074h-.026l-.032-.11-.292.094h-.308v.115h-.026v.068c-.56 13.915-4.178 26.477-11.488 39.522-5.985 10.753-13.577 20.369-21.619 30.545-4.788 6.067-9.744 12.337-14.386 18.938-10.344 14.68-22.522 35.443-24.893 65.626-.078.986-.114 2.014-.114 3.052 0 8.205 2.38 17.574 7.07 27.85 2.039 4.485 4.4 8.815 7.065 12.956v.063l.564.844.235-.1-.198-.98.057-.032-.078-.078c-.97-4.699-1.464-9.484-1.473-14.282 0-24.218 13.102-44.104 27.676-64.027 1.097-1.493 2.195-2.984 3.295-4.473 13.122-17.794 26.689-36.176 30.187-57.872 1.519-9.394 2.296-18.894 2.324-28.411.058-11.681-1.222-22.057-3.54-29.235zM7.833 159.91c1.214-16.366 5.779-32.305 13.41-46.82 6.704-12.865 15.174-23.97 23.994-35.159l1.75-2.212c8.051-10.192 15.665-19.818 21.67-30.624 6.992-12.583 10.658-24.679 11.457-37.97 1.963 7.005 3.039 16.584 3.039 27.264-.03 9.483-.804 18.95-2.314 28.312-3.472 21.496-17.023 39.888-30.124 57.672l-3.238 4.404c-6.856 9.354-13.99 19.4-19.32 30.242-5.703 11.707-8.512 22.885-8.512 34.152.006 4.29.4 8.57 1.174 12.788-2.528-4.15-4.773-8.468-6.72-12.924-4.214-9.626-6.355-18.408-6.355-26.105-.02-1.017.02-2.029.089-3.02z" transform="translate(-1326 -1231) translate(0 141) translate(0 994) rotate(-180 739.5 253)"/>
                                <path fill="#3E78B8" d="M134.974.12c-3.06 61.747-67.31 79.405-73.915 153.96-1.812 20.448 13.52 43.847 13.52 43.847-11.395-58.464 52.343-89.23 61.1-140.254 3.964-23.07 3.165-45.221-.705-57.552" transform="translate(-1326 -1231) translate(0 141) translate(0 994) rotate(-180 739.5 253)"/>
                                <path fill="#2E5B8D" d="M57.816 171.77c-2.172 12.746 0 34.803 7.05 57.148 15.55 49.342 82.829 71.195 79.424 130.645 0 0 12.042-25.266 7.493-45.279-16.584-72.971-82.625-81.79-93.993-142.514" transform="translate(-1326 -1231) translate(0 141) translate(0 994) rotate(-180 739.5 253)"/>
                                <path fill="#C4D0E8" d="M142.609 363.825c-5.938-38.336-26.057-60.2-45.514-81.344-17.932-19.478-34.866-37.88-38.266-67.42l-.135-1.148h-.256l-.277 1.138c-3.3 13.542-2.089 36.176 3.044 57.636 5.112 21.354 20.042 38.693 34.464 55.46 19.64 22.812 39.953 46.405 35.608 80.359l-.13 1.048.24.084.522-.928c.157-.283 13.822-24.71 10.7-44.885zM96.197 327.65c-14.381-16.704-29.243-33.98-34.334-55.172-4.85-20.227-6.188-41.844-3.462-55.413 3.927 28.637 20.58 46.725 38.193 65.867 19.394 21.067 39.44 42.851 45.34 80.983 2.643 17.06-7.028 37.503-9.759 42.835 3.457-33.277-16.59-56.56-35.978-79.064v-.036z" transform="translate(-1326 -1231) translate(0 141) translate(0 994) rotate(-180 739.5 253)"/>
                            </g>
                        </g>
                    </g>
                </g>
            </g>
        </g>
    </g>
</svg>
