<svg xmlns="http://www.w3.org/2000/svg" width="30" height="35" viewBox="0 0 30 35">
    <g fill="none" fill-rule="evenodd">
        <g fill="#2F4D60" fill-rule="nonzero">
            <g>
                <g>
                    <path d="M1042.79 47.234c-.026.002-.052.007-.078.013-.162.039-.286.172-.312.337-.066.364-.122.795-.169 1.207-.412.052-.812.173-1.117.467-.397.38-.598.97-.598 1.725 0 .755.243 1.417.61 1.906.246.328.555.589.897.727.345 3.476 1.112 7.446 2.652 9.598v.013c.057.074.132.152.247.207.1.049.226.05.338.026v.026c.02.201.042.38.078.532.036.152.044.25.169.415.854 1.15 1.743 2.022 2.534 2.62.792.598 1.441.947 2.041.947.59 0 1.184-.352 1.885-.92.12-.097.131-.173.156-.234.024-.062.039-.11.052-.169.024-.117.039-.243.052-.39.006-.064.008-.15.013-.22.02.038.037.07.09.13.028.03.062.075.17.117.107.042.349.014.455-.091 2.311-2.263 4.684-7.48 5.186-12.633.4-.132.744-.4.987-.753.347-.502.52-1.16.52-1.893 0-.723-.227-1.299-.624-1.673-.303-.287-.688-.41-1.091-.467-.047-.428-.103-.856-.17-1.22-.038-.225-.254-.376-.48-.337-.11.021-.205.086-.265.178-.062.093-.083.206-.06.315.083.452.154.936.195 1.453l.026.376h.39c.382 0 .677.102.884.298.206.196.363.514.363 1.077 0 .595-.15 1.099-.376 1.426-.226.328-.5.48-.832.48-.083-.001-.164.021-.234.065-.49-.001-.972.24-1.378.571-.546.446-1.045 1.06-1.508 1.7-.463.638-.882 1.29-1.248 1.763-.182.237-.35.43-.48.545-.13.115-.22.13-.182.13-.355 0-.723-.229-1.118-.532-.395-.303-.78-.714-1.378-.714-.598 0-.983.41-1.378.714-.395.303-.763.532-1.118.532.04 0-.05-.013-.182-.13-.131-.117-.297-.307-.48-.545-.37-.477-.797-1.136-1.261-1.777-.465-.64-.964-1.268-1.508-1.712-.273-.222-.577-.4-.897-.493-.182-.052-.37-.065-.559-.052-.045-.016-.094-.026-.143-.026-.19 0-.51-.152-.767-.493-.256-.34-.441-.84-.441-1.413 0-.613.154-.94.35-1.129.197-.19.485-.285.897-.285h.377l.04-.376c.04-.477.113-1.006.194-1.453.028-.125-.003-.256-.084-.353-.082-.1-.203-.156-.332-.153zm.059 6.533c.206.023.429.12.71.347.43.35.908.928 1.355 1.544.446.616.866 1.26 1.264 1.775.198.257.394.479.594.656.2.177.414.334.722.334.681 0 1.2-.39 1.613-.707.413-.317.757-.527.865-.527.108 0 .451.21.864.527.413.317.933.707 1.613.707.307 0 .525-.159.723-.334.198-.175.384-.4.58-.656.396-.511.822-1.15 1.265-1.762.444-.613.91-1.192 1.342-1.544.28-.228.51-.32.723-.347-.505 4.536-2.557 9.097-4.465 11.267-.042-.107-.073-.193-.116-.308-.184-.499-.361-1.016-.361-1.016-.07-.187-.263-.296-.46-.263-.195.036-.339.205-.34.404 0 0 .001.656-.013 1.325-.008.334-.015.673-.039.926-.011.12-.026.209-.039.27-.59.458-1.127.682-1.277.682-.189 0-.824-.233-1.536-.772-.711-.539-1.545-1.349-2.348-2.431v-.013c.061.082-.002.002-.026-.103-.024-.104-.048-.257-.065-.424-.032-.333-.03-.738.04-1.068.038-.193-.065-.386-.248-.46-.182-.075-.392-.01-.501.152-.092.144-.13.236-.194.36-1.17-1.891-1.913-5.382-2.245-8.54zm7.053-20.626c1.116.146 2.243.385 3.663.754l.36.095 1.743.473c1.3.382 2.564 1.784 3.866 4.086.247-.072.428-.148.536-.219l.033-.023c.075-.275.342-.46.633-.424.32.04.547.33.508.65-.042.343-.253.616-.622.833.14-.042.292-.045.443-.004.435.119.69.568.571 1.003-.093.342-.352.602-.773.803.237.514.477 1.057.72 1.626l.144.34.15.367c.88 2.159 2.437 6.31 2.681 6.94l.058.142c.885 2.247-.937 5.646-5.36 10.31l-.351.367-.193.068c-.437.15-.77.227-1.02.227-.47 0-.811-.319-.702-.802l.007-.025c.148-.493 2.14-5.426 2.743-6.943l.131-.335c.692-1.796.819-3.027.49-3.918-.254-.693-.753-1.2-1.776-1.875l-.258-.168c-.795-.537-1.105-1.262-1.21-2.368l-.018-.214-.036-.553-.012-.145c-.081-.911-.246-1.21-.776-1.396-.596-.21-1.077-.135-2.45.333l-.398.137-.23.078c-1.657.547-2.692.649-3.944.183l-.386-.149c-2.168-.832-3.633-1.258-4.978-1.315-1.81-.076-2.655.632-2.518 2.527l.017.207c.16 2.279-.552 5.156-1.874 8.257l-.074.173c-1.052 2.433-2.452 4.871-3.239 5.775-.149.17-.282.28-.45.328-.312.092-.584-.081-.689-.36-.084-.224-.077-.537-.012-1.04l.009-.063c.049-.363.129-.818.252-1.46l.411-2.093.091-.481c.039-.206.074-.403.108-.594l.05-.283.053-.312c.212-1.283.328-2.317.336-3.143l.002-.217c.04-2.672 1.41-6.736 3.25-10.112-.417-.267-.702-.558-.867-.881-.206-.401-.047-.894.355-1.1.401-.205.893-.046 1.099.356l.012.021c.041.07.111.142.209.214.073-.118.147-.234.22-.349-.663-.352-1.024-.695-1.024-1.056 0-.322.261-.583.583-.583.226 0 .423.128.52.317.06.047.154.108.274.177l.11.061c.065.035.133.07.206.107.384-.527.774-1.007 1.166-1.428 1.695-1.819 4.183-2.33 7.427-1.904zm10.065 8.32l-.16.035c-.595.122-1.33.206-2.204.268l-.203.014c-.373.024-.76.042-1.159.053.111.025.225.06.345.102.596.21.982.596 1.19 1.139.128.335.177.628.218 1.2l.034.537.018.225c.083.876.297 1.358.85 1.713l.202.13c1.18.78 1.8 1.408 2.14 2.333.418 1.138.27 2.584-.494 4.572l-.5 1.26c-.616 1.539-1.567 3.904-2.046 5.129l-.15.386c.098-.026.21-.061.337-.104l.259-.272c4.125-4.364 5.793-7.484 5.106-9.249l-.098-.248c-.383-.998-2.03-5.386-2.812-7.252l-.235-.55-.123-.283c-.173-.394-.344-.774-.515-1.139zm-19.529-1.84l-.159.296c-1.69 3.187-2.946 6.952-2.984 9.391l-.001.216c-.01.919-.14 2.046-.376 3.445l-.052.306-.062.35-.103.553-.095.5-.42 2.138-.037.2c-.03.16-.056.307-.08.442l-.037.228c.741-1.106 1.751-2.962 2.551-4.813 1.314-3.04 2.024-5.85 1.874-7.989l-.016-.203c-.182-2.5 1.154-3.631 3.487-3.533 1.446.06 2.94.487 5.119 1.317l.531.204c1.055.391 1.947.28 3.55-.27l.417-.143c.583-.199 1.032-.337 1.41-.416-1.6-.01-3.335-.12-5.086-.335l-.412-.051c-4.403-.552-7.322-1.101-9.019-1.832zm12.05 14.665c.201-.108.456-.043.572.145.115.188.045.426-.156.533-.296.153-.691.24-1.17.315-.48.076-1.027.121-1.535.121-.51 0-1.055-.045-1.535-.12-.48-.076-.874-.163-1.17-.316-.202-.107-.272-.345-.156-.533.115-.188.37-.253.572-.145.078.04.462.148.897.218.436.07.943.12 1.392.12.448 0 .955-.05 1.391-.12.436-.07.82-.177.897-.218zm-10.99-16.441l-.159.244-.078.124c1.487.555 4.467 1.138 8.807 1.67l.243.03c2.59.303 5.128.37 7.175.222.668-.048 1.256-.117 1.731-.202-.017-.031-.033-.061-.048-.092-.533.101-1.163.174-1.883.226-2.184.156-5 .06-7.852-.29-2.682-.33-5.075-.89-6.984-1.57-.346-.123-.665-.244-.953-.362zm18.851 1.658c-.078.036-.16.068-.247.098l.045.091.033-.012.026-.035c.042-.053.09-.1.143-.142zm-17.19-3.821c-.327.35-.653.745-.974 1.176.204.084.424.167.657.25 1.827.65 4.137 1.192 6.734 1.511 2.78.342 5.521.435 7.626.284.508-.037.967-.087 1.367-.149-1.124-1.926-2.183-3.102-3.155-3.393l-1.34-.365-.74-.197-.356-.091c-1.221-.31-2.218-.514-3.197-.642-2.975-.39-5.175.062-6.623 1.616zm16.933 2.675l-.006.034.001-.007z" transform="translate(-1205 -1435) translate(170 1315) translate(0 87)"/>
                </g>
            </g>
        </g>
    </g>
</svg>
