<svg xmlns="http://www.w3.org/2000/svg" width="140" height="115" viewBox="0 0 140 115">
    <g fill="none" fill-rule="evenodd">
        <path fill="#FFF" d="M70.97 90.564v17.828h-4.53l.13.01c.188.025.356.1.505.22.184.152.278.367.278.647 0 .119-.03.257-.095.412-.062.156-.152.271-.273.348-.134-.134-.275-.245-.423-.333-.146-.09-.31-.134-.492-.134-.107 0-.208.018-.307.043-.098.03-.186.076-.263.132-.077.059-.139.137-.185.233-.045.09-.068.197-.068.326 0 .164.04.325.121.474.08.156.18.287.296.396.113.112.243.2.377.266.139.072.268.104.386.104.155 0 .407-.077.758-.233.35-.156.736-.35 1.158-.584-.057.29-.114.567-.173.816-.059.245-.109.442-.145.587-.481.212-.891.402-1.225.555-.332.149-.63.299-.883.457-.257.154-.49.332-.701.52-.211.192-.433.43-.665.738-.014-.277-.014-.51 0-.707.014-.201.052-.394.108-.566.034-.14.097-.264.187-.387s.19-.24.296-.36c-.233-.202-.412-.415-.542-.633-.13-.222-.196-.513-.196-.873 0-.255.048-.526.141-.82.096-.292.231-.559.405-.805.179-.246.39-.441.64-.603.243-.16.517-.242.819-.246h-5.05v-2.63h6.736V90.564h2.875zm23.152-.172v14.464h1.797v.658c.196-.11.365-.25.505-.42.429-.527.644-1.414.644-2.667 0-1.686.451-3.086 1.355-4.204 1.001-1.224 2.368-1.83 4.11-1.83 3.167 0 4.75 1.904 4.75 5.718v3.696h1.768v.016h.715c1.879 0 3.463-.253 4.751-.755-1.813-2.06-3.238-3.266-4.283-3.609l.221-2.333c2.09-1.822 4.055-2.734 5.891-2.734 1.438 0 2.532.403 3.297 1.215.673.725 1.007 1.669 1.007 2.836 0 1.756-.696 3.332-2.08 4.741.725.426 1.484.639 2.267.639h1.345v-.086h2.287V90.392h2.43v15.345h4.394V90.392H134v18h-13.468c-1.538 0-2.939-.508-4.205-1.53-1.885 1.022-4.127 1.53-6.73 1.53h-6.625c-2.268 0-3.836-.647-4.713-1.941-.425 1.294-1.537 1.941-3.333 1.941h-.32v-1.033h-.576c-.41 3.69-2.082 5.533-5.017 5.533-3.277 0-4.912-2.276-4.912-6.834 0-1.473.15-2.911.456-4.304l2.594-.6c-.358 1.603-.538 3.142-.538 4.62 0 3.097.87 4.642 2.614 4.642 1.59 0 2.384-1.545 2.384-4.642V90.392h2.51zM9.05 109.536c.374 0 .683.161.93.483.256.328.384.727.384 1.2 0 .459-.128.855-.383 1.177-.253.333-.564.496-.931.496-.357 0-.664-.162-.915-.483-.248-.323-.373-.72-.373-1.19 0-.464.125-.858.373-1.189.25-.332.558-.494.915-.494zm3.238 0c.359 0 .667.161.914.483.255.328.38.727.38 1.2 0 .454-.125.847-.38 1.177-.247.333-.555.496-.914.496-.357 0-.661-.162-.914-.483-.247-.323-.372-.72-.372-1.19 0-.464.125-.858.372-1.189.253-.332.557-.494.914-.494zM34.56 90.392v15.344h.954V104.3h1.065c.706 0 1.201-.198 1.478-.59.298-.412.447-1.175.447-2.284V97.2h2.81v4.293c0 1.117.086 1.876.262 2.279.201.472.603.708 1.207.708 1.138 0 1.707-.986 1.707-2.962v-5.245h2.706v5.818c0 .91.175 1.502.523 1.79.33.278.997.42 1.995.42h.553c.106-.866.156-1.799.156-2.783 0-2.136-.21-4.213-.624-6.221l2.75-.405c.455 2.076.686 4.216.686 6.419 0 .864-.037 1.857-.104 2.99h2.08v1.61h2.033V97.18h3.148v11.212h-6.494l-.001-1.68h-4.503c-1.161 0-2.021-.103-2.583-.314-.603-.237-1.059-.665-1.367-1.279-.503 1.185-1.576 1.773-3.214 1.773-1.52 0-2.464-.596-2.83-1.797-.41 1.011-1.268 1.547-2.572 1.61v1.687h-5.253v-18h2.985zm41.661 0v18h-2.626v-18h2.626zm-59.54 5.17c1.638 0 2.817.488 3.544 1.46.64.874.962 2.205.962 4v3.91h3.82v-9.056h2.572v11.629h-8.888v-6.132c0-1.19-.16-2.034-.477-2.512-.318-.486-.88-.727-1.688-.727-.432 0-.86.052-1.283.147v9.224h-4.08c-2.546 0-4.405-.656-5.574-1.968-1.06-1.18-1.59-2.964-1.59-5.35 0-1.418.168-2.715.504-3.89l2.754-.565c-.444 1.23-.67 2.593-.67 4.08 0 1.8.357 3.086 1.062 3.865.741.836 2.003 1.255 3.781 1.255h1.335v-8.9c1.206-.314 2.512-.47 3.916-.47zm85.642 3.415c-.774 0-1.389.315-1.847.947-.437.612-.658 1.415-.658 2.407 0 2.317 1.052 3.476 3.153 3.476h1.6v-3.3c0-2.353-.75-3.53-2.248-3.53zM63.32 90.392l3.183 13.471h-2.92l-3.117-13.016 2.854-.455zm52.721 8.386c-.845 0-1.875.494-3.095 1.483.53.259 1.788 1.399 3.77 3.416.843-.803 1.267-1.75 1.267-2.824 0-.612-.16-1.102-.482-1.473-.343-.398-.828-.602-1.46-.602zm-57.222-6.886c.454 0 .838.161 1.166.476.32.327.48.714.48 1.166 0 .452-.16.839-.48 1.168-.328.316-.712.476-1.166.476-.458 0-.848-.154-1.163-.468-.32-.318-.48-.71-.48-1.176 0-.452.16-.84.48-1.166.327-.315.712-.476 1.163-.476zm-32.526-1.5c.368 0 .687.167.953.494.263.339.391.74.391 1.209 0 .469-.128.87-.391 1.21-.266.329-.585.495-.953.495-.372 0-.691-.16-.952-.486-.262-.33-.386-.736-.386-1.219 0-.47.124-.87.386-1.209.27-.327.586-.494.952-.494z"/>
        <g>
            <path fill="#888" d="M126.1 13.736C115.036 33.79 95.67 47.094 73.625 47.094c-.718 0-1.422-.033-2.137-.063 17.843-12.943 34.233-33.233 54.61-33.295" transform="translate(0 .392)"/>
            <path fill="#2D8ECD" d="M0 46.994C42.714 48.876 58.851 0 110.625 0 124.825 0 140 13.573 140 13.573 100.434.661 75.304 48.22 39.61 51.523 23.472 53.017 8.259 50.864 0 46.992" transform="translate(0 .392)"/>
        </g>
        <path fill="#FFF" d="M60.086 67.392v9.455h-10.4v.303H48.42v.025c0 .954-.314 1.713-.946 2.274-.704.628-1.744.943-3.123.943-.652 0-1.312-.057-1.98-.169l.106-1.388c.679.146 1.352.22 2.028.22 1.5 0 2.251-.57 2.251-1.708v-.197h-1.015c-2.322 0-3.484-.993-3.484-2.983 0-.914.273-1.664.825-2.25.617-.653 1.49-.98 2.62-.98 1.02 0 1.925.151 2.718.448v4.426h1.266v-.31h4.357c-.085-1.958-1.285-3.174-3.597-3.648v-1.252l5.821-3.209v1.693l-3.585 1.9c2.033.814 3.112 2.32 3.242 4.516h1.19v-.05h1.439v-8.059h1.533zm-32.003 9.953c.27 0 .497.092.682.27.186.182.277.405.277.667 0 .253-.091.471-.277.655-.19.184-.418.273-.682.273-.27 0-.498-.088-.681-.266-.185-.18-.28-.401-.28-.662 0-.257.095-.476.28-.66.187-.185.414-.277.68-.277zm53.486 0c.27 0 .497.092.685.27.184.182.274.405.274.667 0 .253-.09.471-.274.655-.193.184-.419.273-.685.273-.269 0-.5-.088-.681-.266-.188-.18-.28-.401-.28-.662 0-.257.092-.476.28-.66.189-.185.414-.277.68-.277zm-41.754 0c.257 0 .477.092.652.27.176.182.265.405.265.667 0 .253-.089.471-.265.655-.18.184-.4.273-.652.273-.26 0-.48-.088-.654-.266-.179-.18-.27-.401-.27-.662 0-.257.091-.476.27-.66.18-.185.4-.277.654-.277zm-14.149 0c.272 0 .508.092.694.27.188.182.278.405.278.667 0 .256-.09.475-.278.655-.186.184-.422.273-.694.273-.271 0-.496-.088-.686-.266-.182-.18-.277-.401-.277-.662 0-.257.095-.476.277-.66.192-.185.418-.277.686-.277zm81.04-.014c.288 0 .531.092.728.272.205.183.308.405.308.667 0 .259-.103.482-.308.661-.197.185-.44.28-.728.28-.281 0-.52-.092-.722-.272-.202-.182-.305-.404-.305-.669 0-.259.103-.479.305-.667.202-.18.44-.272.722-.272zm-69.206.014c.263 0 .484.092.665.27.178.182.265.405.265.667 0 .256-.087.475-.265.655-.181.184-.402.273-.665.273-.26 0-.478-.088-.655-.266-.177-.18-.264-.401-.264-.662 0-.257.087-.476.264-.66.18-.185.4-.277.655-.277zm41.653 0c.274 0 .507.092.697.27.186.182.278.405.278.667 0 .256-.092.475-.278.655-.19.184-.423.273-.697.273-.271 0-.498-.088-.683-.266-.184-.18-.277-.401-.277-.662 0-.257.093-.476.277-.66.188-.185.42-.277.683-.277zm2.72-7.59v5.033h1.984v1.43h-5.943v.629h-3.949c-2.318 0-3.48-1.07-3.48-3.218 0-.98.274-1.789.826-2.42.616-.705 1.492-1.056 2.62-1.056 1.018 0 1.923.162 2.711.481v4.77h1.272v-.616h2.04v-5.032h1.919zm33.184-2.363v9.455h-2.971v-.618h-8.915v.618h-4.374c-1.629 0-2.762-.319-3.392-.956-.19.397-.573.67-1.148.82v.136h-1.486v-.01c-.9-.052-1.73-.3-2.489-.743-1.28.502-2.8.753-4.565.753h-.374V75.58h.489c1.272 0 2.346-.124 3.22-.372-1.228-1.014-2.199-1.608-2.903-1.777l.146-1.148c1.42-.897 2.753-1.346 4-1.346.973 0 1.72.198 2.236.598.456.356.683.821.683 1.396 0 .865-.47 1.64-1.41 2.335.39.165.793.266 1.207.3.471-.029.827-.143 1.069-.345.309-.259.466-.696.466-1.313 0-.83.327-1.519.979-2.07.716-.602 1.702-.901 2.954-.901 2.283 0 3.423.938 3.423 2.816v1.82h1.27v-.76h5.782c.047-.363.071-.706.071-1.035 0-.886-.217-1.535-.658-1.95-.466-.44-1.223-.66-2.272-.66-.555 0-1.126.039-1.717.113v-1.399c.705-.088 1.336-.127 1.914-.127 1.646 0 2.847.333 3.598 1.001.728.64 1.09 1.623 1.09 2.956 0 .384-.022.752-.06 1.101h1.166v.638h1.44v-8.06h1.531zm-86.67 2.364v5.032h1.984v.617h2.306V70.33h2.174v5.075h1.463v-.617h2.621v-5.032h1.836v6.462h-4.457v.629h-5.943v-.629H24.43v.629h-3.945c-2.32 0-3.484-1.07-3.484-3.218 0-.98.276-1.789.826-2.42.617-.705 1.488-1.056 2.62-1.056 1.018 0 1.922.162 2.714.481v4.77h1.269v-.616h2.041v-5.032h1.917zm37.642-2.364v9.455h-2.972v-9.455h2.972zm54.971 0v9.455h-2.971v-9.455H121zm-75.48 4.884c-.48 0-.858.163-1.136.49-.278.317-.413.733-.413 1.246 0 1.2.648 1.8 1.956 1.8h.83v-3.303c-.327-.155-.744-.233-1.237-.233zm52.81-.065c-.56 0-1 .155-1.328.466-.318.302-.475.697-.475 1.185 0 1.141.756 1.712 2.27 1.712h1.155v-1.626c0-1.158-.542-1.737-1.622-1.737zm-78.068-.616c-.48 0-.856.176-1.137.528-.273.342-.412.79-.412 1.342 0 1.293.652 1.94 1.953 1.94h.83v-3.558c-.326-.167-.74-.252-1.234-.252zm53.485 0c-.48 0-.857.176-1.137.528-.275.342-.413.79-.413 1.342 0 1.293.655 1.94 1.953 1.94h.831v-3.558c-.327-.167-.739-.252-1.234-.252zm16.339.518c-.571 0-1.273.243-2.102.73.36.127 1.215.688 2.562 1.682.573-.396.858-.862.858-1.39 0-.302-.108-.544-.325-.726-.234-.196-.562-.296-.993-.296zm-68.733-4.72c.24 0 .442.09.606.275.167.181.25.406.25.672 0 .258-.083.477-.25.664-.164.184-.366.277-.606.277s-.444-.093-.609-.277c-.166-.18-.25-.404-.25-.664 0-.263.084-.485.25-.672.169-.185.371-.276.61-.276zm-2.158 0c.246 0 .453.09.623.275.163.181.247.406.247.672 0 .258-.084.477-.247.664-.17.184-.377.277-.623.277-.239 0-.445-.093-.607-.277-.168-.18-.25-.404-.25-.664 0-.263.082-.485.25-.672.169-.185.372-.276.607-.276zm15.623 0c.306 0 .562.09.77.275.21.181.314.406.314.672 0 .258-.104.477-.313.664-.214.184-.469.277-.77.277-.307 0-.562-.093-.775-.277-.208-.18-.312-.404-.312-.664 0-.263.104-.485.312-.672.217-.185.473-.276.774-.276zm-2.733 0c.312 0 .571.09.787.275.213.181.316.406.316.672 0 .258-.103.477-.316.664-.216.184-.475.277-.787.277-.306 0-.566-.093-.773-.277-.21-.18-.314-.404-.314-.664 0-.263.104-.485.314-.672.216-.185.472-.276.773-.276zm42.751 0c.24 0 .444.09.611.275.163.181.246.406.246.672 0 .258-.083.477-.246.664-.167.184-.372.277-.61.277-.243 0-.445-.093-.609-.277-.167-.18-.249-.404-.249-.664 0-.263.082-.485.25-.672.167-.185.372-.276.607-.276zm-2.155 0c.245 0 .45.09.621.275.165.181.25.406.25.672 0 .258-.085.477-.25.664-.172.184-.376.277-.62.277-.24 0-.446-.093-.61-.277-.166-.18-.25-.404-.25-.664 0-.263.084-.485.25-.672.17-.185.37-.276.61-.276z"/>
    </g>
</svg>
