<svg xmlns="http://www.w3.org/2000/svg" width="66" height="68" viewBox="0 0 66 68">
    <g fill="none" fill-rule="evenodd">
        <path fill="#38B3FF" d="M0 0h36c16.569 0 30 13.431 30 30v38H30C13.431 68 0 54.569 0 38V0z"/>
        <path fill="#FFF" fill-rule="nonzero" d="M40.367 23.479c-.598-.468-1.455-.371-1.913.216l-.385.492c-2.238-.988-4.916-.408-6.463 1.572l-3.32 4.25-2.552.288-.553.708 4.529 3.538c-.296.116-.554.308-.749.557-.61.782-.46 1.922.338 2.545s1.94.494 2.552-.288c.193-.25.317-.547.357-.861l4.53 3.539.554-.708-.338-2.546 3.32-4.25c1.547-1.98 1.462-4.719-.038-6.65l.385-.493c.458-.587.344-1.442-.254-1.91zm-2.213 2.833c1.593 1.245 1.896 3.528.676 5.09l-3.32 4.25-.46.587.03.219-6.027-4.709.22-.025.457-.586 3.32-4.25c1.222-1.563 3.51-1.821 5.104-.576z"/>
    </g>
</svg>
