<svg xmlns="http://www.w3.org/2000/svg" xmlns:xlink="http://www.w3.org/1999/xlink" width="125" height="125" viewBox="0 0 125 125">
    <defs>
        <radialGradient id="hbsey5b6mb" cx="50.682%" cy=".005%" r="50%" fx="50.682%" fy=".005%">
            <stop offset="0%" stop-color="#547F9B"/>
            <stop offset="100%" stop-color="#304E60"/>
        </radialGradient>
        <path id="7krl6dcqwa" d="M62.5 0C27.982 0 0 27.983 0 62.5 0 97.018 27.982 125 62.5 125c34.517 0 62.5-27.982 62.5-62.5C125 27.983 97.017 0 62.5 0z"/>
    </defs>
    <g fill="none" fill-rule="evenodd">
        <g>
            <g>
                <g>
                    <mask id="jb28cir93c" fill="#fff">
                        <use xlink:href="#7krl6dcqwa"/>
                    </mask>
                    <path fill="url(#hbsey5b6mb)" d="M62.5 0C27.982 0 0 27.983 0 62.5 0 97.018 27.982 125 62.5 125c34.517 0 62.5-27.982 62.5-62.5C125 27.983 97.017 0 62.5 0z" mask="url(#jb28cir93c)"/>
                </g>
                <g fill="#FEFEFE">
                    <path d="M47.88 61.596l-1.954 1.954-.391-.39c-.71-.71-.71-1.865 0-2.575.665-.665 1.72-.707 2.434-.126l.524.524-.613.613zm27.693 23.227L70.48 79.73c-.178-.177-.42-.277-.67-.277h-.002l-2.732.004h-.018c-1.508 0-3.019-.278-4.433-.807l1.64-1.1c.67-.45 1.122-1.134 1.27-1.929.148-.794-.025-1.596-.489-2.258-.576-.823-1.504-1.27-2.449-1.27h-.046l3.777-3.775c1.145-1.146 1.145-3.01 0-4.156-.28-.279-.604-.494-.958-.64.262-.446.402-.955.402-1.486 0-.785-.305-1.523-.86-2.078-.555-.555-1.293-.86-2.078-.86-.53 0-1.04.14-1.486.402-.146-.354-.361-.679-.64-.958-.555-.555-1.293-.86-2.078-.86-.785 0-1.523.305-2.078.86l-1.356 1.356c-.144-.318-.345-.61-.6-.865-.554-.555-1.292-.86-2.077-.86-.785 0-1.523.305-2.078.86l-.601.601-2.444-2.43c-.71-.709-.71-1.864 0-2.574.666-.664 1.72-.706 2.435-.126l2.366 2.366c.186.186.428.278.67.278.244 0 .486-.092.671-.278.37-.37.37-.97 0-1.34l-4.082-4.083c-.71-.71-.71-1.864 0-2.574.71-.71 1.865-.71 2.574 0l7.153 7.166c.185.185.428.278.67.278.243 0 .486-.093.67-.278.37-.37.37-.97 0-1.34l-5.436-5.45c-.58-.715-.539-1.77.126-2.435.71-.71 1.865-.71 2.575 0l1.992 1.991c.37.37.97.37 1.34 0 .37-.37.37-.97 0-1.34l-1.991-1.992c-1.45-1.45-3.807-1.45-5.257 0-.478.479-.798 1.057-.96 1.669-.628-.453-1.38-.698-2.169-.698-.992 0-1.926.386-2.628 1.088-1.304 1.305-1.434 3.345-.39 4.796-.612.163-1.19.483-1.67.961-1.367 1.368-1.443 3.545-.23 5.004-.598.165-1.163.481-1.632.95-1.45 1.45-1.45 3.808 0 5.257l.423.423c-1.6 1.921-2.47 4.318-2.466 6.85l.002 1.57-3.89 3.89c-.37.37-.37.97 0 1.34.185.186.428.279.67.279.243 0 .486-.093.67-.278l4.17-4.169c.178-.178.278-.42.277-.671l-.003-1.964c-.003-2.357.913-4.573 2.58-6.239l4.704-4.705.452-.451c.197-.197.458-.306.737-.306.278 0 .54.109.737.306.197.196.305.458.305.737 0 .238-.08.465-.228.649l-1.253 1.253c-.37.37-.37.97 0 1.341l.002.003.003.002c.185.185.428.278.67.278.243 0 .486-.093.67-.278l4.468-4.477c.196-.197.458-.305.737-.305.278 0 .54.109.737.305.378.379.404.978.077 1.386l-4.55 4.56c-.37.37-.37.97 0 1.341.186.185.428.278.67.278.244 0 .486-.093.672-.278l5.86-5.871c.198-.197.46-.305.738-.305.278 0 .54.108.737.305.406.406.406 1.068 0 1.474l-5.871 5.86c-.37.371-.37.971 0 1.342.37.37.97.37 1.34 0l4.56-4.55c.409-.326 1.008-.3 1.386.078.407.406.407 1.067 0 1.474l-6.4 6.401c-.452.451-.494 1.142-.1 1.644s1.075.626 1.62.296l1.934-1.173c.488-.296 1.126-.161 1.453.306.169.241.232.533.178.823-.054.289-.219.538-.463.702l-4.474 3c-1.456.977-3.151 1.492-4.904 1.492h-.012l-3.04-.004c-.252 0-.493.1-.67.278l-4.17 4.168c-.37.37-.37.97 0 1.341.186.185.428.278.671.278.243 0 .486-.093.67-.278l3.89-3.89 2.646.003h.015c2.13 0 4.19-.626 5.96-1.813l.958-.642c1.958.945 4.136 1.444 6.31 1.444h.02l2.338-.003 4.815 4.814c.185.185.428.278.67.278.243 0 .486-.093.67-.278.37-.37.37-.97 0-1.341zM86.251 74.145c-.176-.177-.42-.278-.67-.278-.25 0-.494.1-.67.278-.177.176-.278.42-.278.67 0 .25.101.494.278.67.176.177.42.278.67.278.25 0 .494-.101.67-.278.177-.177.278-.42.278-.67 0-.25-.101-.494-.278-.67M83.702 71.595l-2.265-2.264.006-3.834c.004-2.896-.847-5.699-2.46-8.104L74.81 51.17c-.57-.85-1.438-1.422-2.444-1.61-1.006-.188-2.022.032-2.86.62-1.374.96-1.92 2.696-1.434 4.235l-2.478-2.478c-.37-.37-.97-.37-1.341 0-.37.37-.37.97 0 1.34l5.323 5.324c.492.492 1.248.538 1.796.108.548-.43.684-1.175.322-1.77l-1.63-2.69c-.512-.845-.28-1.95.53-2.517.417-.292.923-.401 1.424-.308.501.094.933.378 1.217.802l4.173 6.223c1.403 2.091 2.142 4.527 2.138 7.045l-.006 4.227c0 .252.1.494.278.672l2.543 2.543c.185.185.428.278.67.278.243 0 .486-.093.67-.278.371-.37.371-.97 0-1.34" transform="translate(.243 .243)"/>
                    <path d="M63.365 49.708c-.176-.176-.42-.278-.67-.278-.25 0-.494.102-.67.278-.177.177-.279.421-.279.67 0 .25.102.495.278.67.177.177.421.279.671.279.25 0 .493-.102.67-.278.177-.176.278-.421.278-.67 0-.25-.101-.494-.278-.67M72.164 64.421c.37-.37.37-.97 0-1.34-.37-.37-.97-.37-1.341 0l-.414.413c-1.77 1.77-1.77 4.652 0 6.422.185.185.428.278.67.278.243 0 .486-.093.671-.278.37-.37.37-.97 0-1.341-1.031-1.031-1.031-2.71 0-3.74l.414-.414zM81.538 50.192c-1.585-1.316-3.095-2.995-3.095-3.736 0-.802.625-1.454 1.393-1.454.383 0 .74.158 1.005.446.18.194.432.305.697.305.265 0 .517-.11.697-.305.265-.288.622-.446 1.004-.446.769 0 1.394.652 1.394 1.454 0 .74-1.511 2.419-3.095 3.736m1.701-7.086c-.603 0-1.192.17-1.701.483-.51-.313-1.099-.483-1.702-.483-1.814 0-3.29 1.502-3.29 3.35 0 1.047.753 2.304 2.301 3.844 1.043 1.036 2.072 1.825 2.115 1.858.17.13.373.195.576.195.203 0 .406-.065.576-.195.043-.033 1.071-.822 2.114-1.858 1.548-1.54 2.301-2.797 2.301-3.844 0-1.848-1.476-3.35-3.29-3.35M42.977 45.072c-1.585-1.316-3.095-2.995-3.095-3.736 0-.802.625-1.454 1.393-1.454.383 0 .74.158 1.005.446.18.195.432.305.697.305.265 0 .517-.11.697-.305.265-.287.622-.446 1.004-.446.769 0 1.394.652 1.394 1.454 0 .74-1.511 2.419-3.095 3.736m1.701-7.086c-.603 0-1.192.17-1.701.483-.51-.312-1.099-.483-1.702-.483-1.813 0-3.29 1.502-3.29 3.35 0 1.047.753 2.304 2.302 3.844 1.042 1.037 2.07 1.826 2.114 1.859.17.13.373.195.576.195.203 0 .406-.065.576-.195.043-.033 1.071-.822 2.114-1.86 1.548-1.539 2.301-2.796 2.301-3.843 0-1.847-1.476-3.35-3.29-3.35" transform="translate(.243 .243)"/>
                    <path d="M62.257.121C27.941.121.121 27.941.121 62.257c0 34.317 27.82 62.136 62.136 62.136 34.317 0 62.136-27.819 62.136-62.136 0-34.316-27.819-62.136-62.136-62.136m0 2.913c7.997 0 15.752 1.565 23.052 4.653 7.052 2.983 13.386 7.253 18.825 12.693 5.44 5.44 9.71 11.774 12.694 18.826 3.087 7.3 4.653 15.055 4.653 23.051 0 7.997-1.566 15.752-4.653 23.052-2.983 7.052-7.254 13.386-12.694 18.825-5.44 5.44-11.773 9.71-18.825 12.694-7.3 3.087-15.055 4.653-23.052 4.653-7.996 0-15.752-1.566-23.051-4.653-7.052-2.983-13.386-7.254-18.826-12.694-5.44-5.44-9.71-11.773-12.693-18.825-3.088-7.3-4.653-15.055-4.653-23.052 0-7.996 1.565-15.752 4.653-23.051C10.67 32.154 14.94 25.82 20.38 20.38c5.44-5.44 11.774-9.71 18.826-12.693 7.3-3.088 15.055-4.653 23.051-4.653" transform="translate(.243 .243)"/>
                    <path d="M26.098 98.079c-.063 0-.125-.024-.173-.073-.994-1.01-1.957-2.074-2.865-3.164-.23-.276-.456-.554-.68-.835-.084-.105-.066-.258.039-.341.104-.083.257-.067.34.038.222.278.447.554.674.827.9 1.08 1.854 2.135 2.838 3.135.094.095.093.249-.002.343-.048.047-.11.07-.17.07m68.907 3.164c-.069 0-.137-.03-.186-.086-.086-.102-.073-.256.03-.342 11.37-9.622 17.893-23.676 17.893-38.558 0-27.837-22.648-50.485-50.486-50.485-27.837 0-50.485 22.648-50.485 50.485 0 9.996 2.915 19.658 8.432 27.943.074.112.044.263-.068.337-.112.074-.262.044-.336-.068-5.57-8.364-8.513-18.12-8.513-28.212 0-28.105 22.865-50.97 50.97-50.97 28.106 0 50.971 22.865 50.971 50.97 0 15.025-6.584 29.214-18.066 38.928-.045.039-.1.058-.156.058m-32.749 11.985c-12.797 0-25.033-4.762-34.455-13.409-.099-.09-.105-.244-.015-.342.091-.099.245-.106.344-.015 9.331 8.564 21.451 13.28 34.126 13.28 10.072 0 19.796-2.956 28.12-8.55.112-.075.262-.045.337.066.075.112.046.263-.066.337-8.405 5.648-18.222 8.633-28.39 8.633" transform="translate(.243 .243)"/>
                </g>
            </g>
        </g>
    </g>
</svg>
