<svg xmlns="http://www.w3.org/2000/svg" width="20" height="25" viewBox="0 0 20 25">
    <g fill="none" fill-rule="evenodd">
        <g fill="#2F4D60" fill-rule="nonzero">
            <g>
                <g>
                    <path d="M14 0v25h20V7.288L26.324 0H14zm1.111 1.087h10.556v7.065h7.222v15.761H15.11V1.087zm11.667.858l5.393 5.12h-5.393v-5.12zm-3.462 7.77c-.416 0-.848.231-1.037.575-.19.342-.204.71-.156 1.091.074.603.354 1.285.716 1.983-.18.594-.267 1.112-.538 1.747-.345.81-.768 1.45-1.174 2.123-.53.242-1.198.459-1.589.71-.438.282-.785.534-.99.936-.1.2-.151.484-.051.74.1.257.308.425.523.533.455.236.98.09 1.36-.161.38-.25.719-.618 1.06-1.066.17-.227.307-.594.477-.86.544-.235.93-.48 1.55-.687.835-.283 1.579-.402 2.36-.567.653.43 1.348.766 2.107.766.43 0 .762-.019 1.086-.19.325-.173.52-.587.52-.903 0-.257-.115-.53-.297-.707-.184-.176-.401-.27-.625-.33-.443-.116-.946-.107-1.526-.05-.306.032-.716.19-1.056.252-.046-.033-.09-.048-.135-.087-.692-.583-1.341-1.39-1.823-2.193-.028-.048-.024-.082-.052-.131.117-.429.347-.928.4-1.304.071-.52.086-.974-.042-1.39-.065-.208-.173-.418-.362-.58-.19-.161-.456-.25-.706-.25zm-.045 1.082c.006 0 .017.005.026.007.002.004.006.002.024.055.03.1.013.382.002.633-.013-.064-.09-.183-.096-.24-.032-.253.01-.414.026-.442.005-.01.011-.013.018-.013zm.336 3.813c.343.482.723.932 1.148 1.346-.568.149-1.078.202-1.651.395-.122.04-.191.098-.31.14.169-.346.38-.603.531-.96.139-.324.163-.598.282-.92z" transform="translate(-1162 -417) translate(628 245) translate(520 172)"/>
                </g>
            </g>
        </g>
    </g>
</svg>
