<svg xmlns="http://www.w3.org/2000/svg" width="25" height="25" viewBox="0 0 25 25">
    <g fill="none" fill-rule="evenodd">
        <g fill="#2F4D60" fill-rule="nonzero">
            <path d="M12.5 0C5.608 0 0 5.608 0 12.5S5.608 25 12.5 25 25 19.392 25 12.5 19.392 0 12.5 0zm0 1.875c5.88 0 10.625 4.746 10.625 10.625 0 5.88-4.746 10.625-10.625 10.625-5.88 0-10.625-4.746-10.625-10.625 0-5.88 4.746-10.625 10.625-10.625zM12.5 5c-2.06 0-3.75 1.69-3.75 3.75v1.425c-1.085.39-1.875 1.425-1.875 2.637v3.126c0 1.542 1.27 2.812 2.813 2.812h5.624c1.543 0 2.813-1.27 2.813-2.813v-3.124c0-1.543-1.27-2.813-2.813-2.813h-4.687V8.75c0-1.046.829-1.875 1.875-1.875.825 0 1.513.526 1.769 1.251.172.489.708.745 1.196.573.489-.173.745-.708.573-1.197C15.522 6.042 14.125 5 12.5 5zm-2.662 6.875h5.475c.529 0 .937.408.937.938v3.124c0 .53-.408.938-.938.938H9.689c-.53 0-.938-.408-.938-.938v-3.124c0-.499.364-.886.848-.93.08.008.16.005.24-.008zm2.662 1.25c-.69 0-1.25.56-1.25 1.25s.56 1.25 1.25 1.25 1.25-.56 1.25-1.25-.56-1.25-1.25-1.25z"/>
        </g>
    </g>
</svg>
