<svg xmlns="http://www.w3.org/2000/svg" width="185" height="189" viewBox="0 0 185 189">
    <g fill="none" fill-rule="evenodd">
        <g fill-rule="nonzero">
            <g>
                <g>
                    <path fill="#FFF" d="M122.54 15.006H39.61c-6.164 0-11.207 5.044-11.207 11.207v100.862c0 6.164 5.043 11.207 11.206 11.207h82.931c6.164 0 11.207-5.043 11.207-11.207V26.213c0-6.163-5.043-11.207-11.207-11.207z" transform="translate(-980 -2040) translate(0 1965) translate(972.894 72.399) rotate(-14 81.075 76.644)"/>
                    <path fill="#D3D8DD" d="M111.56 113.226H72.335c-1.905 0-3.362-1.457-3.362-3.362s1.457-3.362 3.362-3.362h39.225c1.905 0 3.362 1.457 3.362 3.362s-1.457 3.362-3.362 3.362zm0-67.241H72.335c-1.905 0-3.362-1.457-3.362-3.362s1.457-3.362 3.362-3.362h39.225c1.905 0 3.362 1.457 3.362 3.362s-1.457 3.362-3.362 3.362zm0 50.431H72.335c-1.905 0-3.362-1.457-3.362-3.362s1.457-3.362 3.362-3.362h39.225c1.905 0 3.362 1.457 3.362 3.362s-1.457 3.362-3.362 3.362zm0-33.62H72.335c-1.905 0-3.362-1.458-3.362-3.363s1.457-3.362 3.362-3.362h39.225c1.905 0 3.362 1.457 3.362 3.362s-1.457 3.362-3.362 3.362zm0 16.81H72.335c-1.905 0-3.362-1.457-3.362-3.362 0-1.906 1.457-3.362 3.362-3.362h39.225c1.905 0 3.362 1.456 3.362 3.362 0 1.905-1.457 3.362-3.362 3.362z" transform="translate(-980 -2040) translate(0 1965) translate(972.894 72.399) rotate(-14 91.947 76.244)"/>
                    <path fill="#D3D8DD" d="M53.89 133.853c-1.905 0-3.362-1.456-3.362-3.362V36.353c0-1.905 1.457-3.362 3.362-3.362s3.362 1.457 3.362 3.362v94.138c0 1.906-1.457 3.362-3.362 3.362z" transform="translate(-980 -2040) translate(0 1965) translate(972.894 72.399) rotate(-14 53.89 83.422)"/>
                    <path fill="#444B54" d="M122.707 13H39.776c-8.07 0-14.57 6.5-14.57 14.569v7.845h-2.24c-4.932 0-8.966 4.034-8.966 8.965s4.034 8.966 8.966 8.966h2.24v49.31h-2.24c-4.932 0-8.966 4.035-8.966 8.966 0 4.93 4.034 8.965 8.966 8.965h2.24v7.845c0 8.069 6.5 14.569 14.57 14.569h82.93c8.07 0 14.57-6.5 14.57-14.569V27.569c0-8.069-6.5-14.569-14.57-14.569zm7.845 115.431c0 4.37-3.474 7.845-7.845 7.845H39.776c-4.37 0-7.845-3.474-7.845-7.845v-7.845h2.241c4.931 0 8.966-4.034 8.966-8.965 0-1.905-1.457-3.362-3.362-3.362s-3.362 1.457-3.362 3.362c0 1.232-1.009 2.241-2.242 2.241H22.966c-1.233 0-2.242-1.009-2.242-2.241 0-1.233 1.009-2.242 2.242-2.242h5.603c1.905 0 3.362-1.457 3.362-3.362V53.345h2.241c4.931 0 8.966-4.035 8.966-8.966 0-1.905-1.457-3.362-3.362-3.362s-3.362 1.457-3.362 3.362c0 1.233-1.009 2.242-2.242 2.242H22.966c-1.233 0-2.242-1.009-2.242-2.242 0-1.232 1.009-2.241 2.242-2.241h5.603c1.905 0 3.362-1.457 3.362-3.362V27.569c0-4.37 3.474-7.845 7.845-7.845h82.93c4.372 0 7.846 3.474 7.846 7.845v100.862z" transform="translate(-980 -2040) translate(0 1965) translate(972.894 72.399) rotate(-14 75.638 78)"/>
                    <path fill="#FFF" d="M177.38 64.963H94.447c-6.163 0-11.206 5.043-11.206 11.207v100.862c0 6.164 5.043 11.207 11.206 11.207h82.931c6.164 0 11.207-5.043 11.207-11.207V76.17c0-6.164-5.043-11.207-11.207-11.207z" transform="translate(-980 -2040) translate(0 1965) translate(972.894 72.399)"/>
                    <path fill="#D3D8DD" d="M166.173 165.825h-39.225c-1.905 0-3.362-1.457-3.362-3.362s1.457-3.362 3.362-3.362h39.225c1.905 0 3.362 1.457 3.362 3.362s-1.457 3.362-3.362 3.362zm0-67.241h-39.225c-1.905 0-3.362-1.457-3.362-3.362s1.457-3.362 3.362-3.362h39.225c1.905 0 3.362 1.457 3.362 3.362s-1.457 3.362-3.362 3.362zm0 50.431h-39.225c-1.905 0-3.362-1.457-3.362-3.362s1.457-3.362 3.362-3.362h39.225c1.905 0 3.362 1.457 3.362 3.362s-1.457 3.362-3.362 3.362zm0-33.62h-39.225c-1.905 0-3.362-1.458-3.362-3.363s1.457-3.362 3.362-3.362h39.225c1.905 0 3.362 1.457 3.362 3.362s-1.457 3.362-3.362 3.362zm0 16.81h-39.225c-1.905 0-3.362-1.457-3.362-3.362 0-1.906 1.457-3.363 3.362-3.363h39.225c1.905 0 3.362 1.457 3.362 3.363 0 1.905-1.457 3.362-3.362 3.362z" transform="translate(-980 -2040) translate(0 1965) translate(972.894 72.399)"/>
                    <path fill="#FF5576" d="M107.897 177.032c-1.905 0-3.362-1.457-3.362-3.362V79.532c0-1.905 1.457-3.362 3.362-3.362s3.362 1.457 3.362 3.362v94.138c0 1.905-1.457 3.362-3.362 3.362z" transform="translate(-980 -2040) translate(0 1965) translate(972.894 72.399)"/>
                    <path fill="#444B54" d="M177.38 61.601H94.447c-8.069 0-14.569 6.5-14.569 14.57v7.844h-2.24c-4.932 0-8.966 4.034-8.966 8.965 0 4.932 4.034 8.966 8.965 8.966h2.241v49.31h-2.24c-4.932 0-8.966 4.035-8.966 8.966 0 4.93 4.034 8.965 8.965 8.965h2.241v7.845c0 8.07 6.5 14.57 14.57 14.57h82.93c8.07 0 14.57-6.5 14.57-14.57V76.17c0-8.069-6.5-14.569-14.57-14.569zm7.844 115.431c0 4.37-3.474 7.845-7.845 7.845H94.45c-4.371 0-7.845-3.474-7.845-7.845v-7.845h2.241c4.931 0 8.965-4.034 8.965-8.965 0-1.905-1.456-3.362-3.362-3.362-1.905 0-3.362 1.457-3.362 3.362 0 1.233-1.008 2.241-2.241 2.241H77.638c-1.233 0-2.241-1.008-2.241-2.241s1.008-2.242 2.241-2.242h5.604c1.905 0 3.362-1.456 3.362-3.362v-52.672h2.241c4.931 0 8.965-4.034 8.965-8.966 0-1.905-1.456-3.362-3.362-3.362-1.905 0-3.362 1.457-3.362 3.362 0 1.233-1.008 2.242-2.241 2.242H77.638c-1.233 0-2.241-1.009-2.241-2.242 0-1.232 1.008-2.24 2.241-2.24h5.604c1.905 0 3.362-1.458 3.362-3.363V76.17c0-4.37 3.474-7.845 7.844-7.845h82.931c4.371 0 7.845 3.474 7.845 7.845v100.862z" transform="translate(-980 -2040) translate(0 1965) translate(972.894 72.399)"/>
                </g>
            </g>
        </g>
    </g>
</svg>
