<?xml version="1.0" encoding="UTF-8"?>
<svg width="125px" height="125px" viewBox="0 0 125 125" version="1.1" xmlns="http://www.w3.org/2000/svg" xmlns:xlink="http://www.w3.org/1999/xlink">
    <title>quran-hover</title>
    <defs>
        <path d="M62.5,0 C27.982,0 0,27.983 0,62.5 C0,97.018 27.982,125 62.5,125 C97.017,125 125,97.018 125,62.5 C125,27.983 97.017,0 62.5,0 Z" id="path-1"></path>
        <radialGradient cx="50.682%" cy="0.005%" fx="50.682%" fy="0.005%" r="50%" id="radialGradient-3">
            <stop stop-color="#547F9B" offset="0%"></stop>
            <stop stop-color="#304E60" offset="100%"></stop>
        </radialGradient>
    </defs>
    <g id="Page-1" stroke="none" stroke-width="1" fill="none" fill-rule="evenodd">
        <g id="quran-hover">
            <g id="Clipped">
                <mask id="mask-2" fill="white">
                    <use xlink:href="#path-1"></use>
                </mask>
                <g id="vqyvetbnma"></g>
                <path d="M62.5,0 C27.982,0 0,27.983 0,62.5 C0,97.018 27.982,125 62.5,125 C97.017,125 125,97.018 125,62.5 C125,27.983 97.017,0 62.5,0 Z" id="Path" fill="url(#radialGradient-3)" fill-rule="nonzero" mask="url(#mask-2)"></path>
            </g>
            <g id="Group" fill="#FEFEFE" fill-rule="nonzero">
                <path d="M62.5,63.575 C63.129,63.575 63.638,64.085 63.638,64.713 C63.638,65.341 63.128,65.851 62.5,65.851 C61.872,65.851 61.362,65.341 61.362,64.713 C61.362,64.084 61.872,63.575 62.5,63.575" id="Path"></path>
                <path d="M89.928,53.663 L42.995,77.843 L40.032,77.038 C39.765,76.966 39.477,76.983 39.222,77.088 L35.072,78.781 L35.072,73.6 L89.928,51.047 L89.928,53.663 L89.928,53.663 Z M35.072,53.663 L35.072,51.047 L60.255,61.4 L54.602,63.725 L35.072,53.663 L35.072,53.663 Z M39.214,49.021 L62.187,58.071 C62.388,58.151 62.612,58.151 62.813,58.071 L85.786,49.021 L85.786,50.903 L62.5,60.477 L39.214,50.903 L39.214,49.021 L39.214,49.021 Z M63.354,54.973 C68.531,51.137 75.839,49.607 75.914,49.592 C76.376,49.498 76.674,49.047 76.58,48.585 C76.485,48.123 76.034,47.825 75.572,47.919 C75.272,47.98 68.694,49.353 63.354,52.889 L63.354,52.063 C63.527,51.783 64.014,51.091 65.029,50.281 C66.364,49.216 68.864,47.754 73.195,46.838 C75.245,46.405 77.35,46.269 79.45,46.437 C80.785,46.542 81.922,46.467 82.843,46.215 L82.843,48.345 L68.273,54.086 L63.354,56.024 L63.354,54.973 Z M91.635,53.932 L91.635,50.388 C91.635,49.965 91.425,49.572 91.075,49.336 C90.723,49.101 90.279,49.056 89.888,49.217 L87.494,50.201 L87.494,48.569 C87.494,48.105 87.264,47.673 86.882,47.412 C86.499,47.152 86.012,47.097 85.582,47.267 L84.55,47.673 L84.55,45.486 C84.55,45.083 84.349,44.711 84.011,44.491 C83.671,44.269 83.246,44.235 82.874,44.399 C82.124,44.729 80.987,44.846 79.585,44.734 C77.322,44.554 75.053,44.7 72.842,45.168 C66.607,46.486 63.718,48.918 62.502,50.352 C62.237,50.039 61.894,49.68 61.452,49.293 C59.722,47.78 57.344,46.578 54.385,45.722 C53.932,45.591 53.458,45.852 53.327,46.304 C53.197,46.757 53.457,47.231 53.91,47.362 C59.442,48.963 61.274,51.464 61.646,52.064 L61.646,52.889 C56.306,49.353 49.729,47.98 49.428,47.919 C48.967,47.825 48.516,48.123 48.421,48.584 C48.327,49.046 48.625,49.497 49.086,49.592 C49.161,49.607 56.47,51.137 61.646,54.972 L61.646,56.024 L56.729,54.086 L42.158,48.346 L42.158,46.215 C43.078,46.468 44.216,46.543 45.55,46.437 C47.12,46.312 48.702,46.357 50.257,46.569 C50.723,46.633 51.154,46.306 51.218,45.839 C51.282,45.372 50.955,44.941 50.488,44.877 C48.813,44.648 47.106,44.6 45.415,44.734 C44.014,44.846 42.877,44.73 42.127,44.399 C41.755,44.235 41.329,44.269 40.989,44.491 C40.652,44.711 40.451,45.083 40.451,45.486 L40.451,47.673 L39.419,47.267 C38.989,47.097 38.502,47.151 38.119,47.412 C37.736,47.673 37.507,48.105 37.507,48.569 L37.507,50.201 L35.113,49.217 C34.721,49.057 34.278,49.101 33.926,49.337 C33.575,49.572 33.366,49.965 33.366,50.388 L33.366,53.932 C33.366,54.408 33.628,54.839 34.051,55.057 L52.528,64.577 L34.15,72.133 C33.673,72.329 33.365,72.788 33.365,73.303 L33.365,79.438 C33.365,79.86 33.575,80.253 33.925,80.488 C34.137,80.631 34.383,80.704 34.631,80.704 C34.793,80.704 34.955,80.674 35.11,80.61 L39.728,78.725 L42.713,79.535 C43.019,79.619 43.343,79.585 43.625,79.439 L62.5,69.714 L72.625,74.931 C73.044,75.147 73.559,74.982 73.775,74.563 C73.991,74.143 73.826,73.629 73.407,73.413 L64.364,68.754 L70.479,65.604 L89.929,73.6 L89.929,78.78 L85.779,77.088 C85.524,76.983 85.236,76.966 84.969,77.038 L82.005,77.843 L76.958,75.243 C76.538,75.027 76.024,75.191 75.808,75.61 C75.592,76.03 75.756,76.544 76.176,76.76 L81.376,79.44 C81.658,79.585 81.982,79.619 82.287,79.536 L85.272,78.725 L89.891,80.61 C90.045,80.673 90.208,80.704 90.37,80.704 C90.617,80.704 90.864,80.631 91.076,80.488 C91.426,80.253 91.636,79.86 91.636,79.438 L91.636,73.303 C91.636,72.787 91.327,72.327 90.851,72.132 L72.472,64.576 L90.949,55.056 C91.372,54.838 91.635,54.406 91.635,53.931 L91.635,53.932 Z M55.936,40.286 C56.119,40.658 56.21,41.033 56.21,41.409 C56.21,42.042 55.96,42.504 55.456,42.796 C55.182,42.958 54.456,43.039 53.278,43.039 C53,43.039 52.862,42.993 52.862,42.901 C52.862,42.866 52.922,42.782 53.041,42.648 C53.206,42.462 53.308,42.343 53.347,42.29 C53.424,42.177 53.507,42.014 53.595,41.8 C53.655,41.655 53.711,41.583 53.763,41.583 C53.788,41.583 53.864,41.639 53.993,41.752 C54.121,41.864 54.243,41.921 54.36,41.921 C54.82,41.921 55.05,41.713 55.05,41.298 C55.05,40.922 54.822,40.734 54.364,40.734 C54.22,40.734 54.149,40.667 54.149,40.534 C54.149,40.494 54.194,40.394 54.285,40.233 C54.395,40.04 54.466,39.883 54.502,39.763 C54.53,39.669 54.556,39.435 54.581,39.063 C54.595,38.83 54.66,38.714 54.776,38.714 C54.818,38.714 54.996,38.922 55.309,39.337 C55.629,39.762 55.838,40.079 55.936,40.286 M53.505,39.273 C53.505,39.428 53.451,39.56 53.342,39.669 C53.232,39.778 53.101,39.832 52.946,39.832 C52.791,39.832 52.659,39.778 52.551,39.669 C52.441,39.559 52.387,39.428 52.387,39.273 C52.387,39.118 52.442,38.986 52.551,38.878 C52.659,38.768 52.791,38.714 52.946,38.714 C53.101,38.714 53.233,38.769 53.342,38.878 C53.451,38.986 53.505,39.118 53.505,39.273 M59.106,32.96 C59.106,33.013 59.053,33.055 58.948,33.087 C58.81,33.122 58.71,33.182 58.647,33.267 C58.541,33.407 58.489,33.637 58.489,33.957 L58.489,41.921 L57.371,41.921 L57.371,31.821 C57.371,31.558 57.404,31.426 57.471,31.426 C57.495,31.426 57.573,31.509 57.703,31.674 C57.875,31.888 58.024,32.053 58.151,32.167 C58.278,32.281 58.491,32.449 58.789,32.67 C59,32.825 59.106,32.922 59.106,32.96 M59.886,29.68 C59.886,30.299 59.624,30.609 59.101,30.609 L57.123,30.609 C56.768,30.609 56.506,30.735 56.337,30.988 C56.337,30.369 56.599,30.06 57.123,30.06 L59.101,30.06 C59.456,30.06 59.717,29.933 59.886,29.68 M62.808,41.663 C62.808,41.743 62.799,41.803 62.782,41.841 C62.753,41.894 62.676,41.921 62.549,41.921 L61.637,41.921 C61.584,42.557 61.367,43.047 60.983,43.392 C60.632,43.708 60.183,43.867 59.639,43.867 C59.294,43.867 58.94,43.8 58.579,43.667 C58.403,43.603 58.315,43.537 58.315,43.466 C58.315,43.381 58.427,43.345 58.652,43.356 C59.278,43.386 59.762,43.239 60.102,42.912 C60.391,42.634 60.535,42.286 60.535,41.868 C60.535,41.657 60.496,41.464 60.419,41.288 C60.356,41.14 60.258,41.042 60.126,40.995 C59.994,40.948 59.923,40.901 59.913,40.855 C59.906,40.82 59.992,40.723 60.171,40.565 C60.421,40.344 60.598,40.177 60.701,40.065 C60.805,39.952 60.918,39.788 61.041,39.574 C61.14,39.405 61.199,39.321 61.221,39.321 C61.291,39.321 61.352,39.453 61.405,39.716 L61.637,40.803 L62.549,40.803 C62.679,40.803 62.759,40.833 62.787,40.893 C62.801,40.928 62.808,40.983 62.808,41.061 L62.808,41.662 L62.808,41.663 Z" id="Shape"></path>
                <path d="M65.719,35.972 C65.719,36.127 65.664,36.259 65.556,36.367 C65.446,36.477 65.315,36.531 65.16,36.531 C65.005,36.531 64.874,36.476 64.764,36.367 C64.656,36.259 64.601,36.127 64.601,35.972 C64.601,35.817 64.656,35.685 64.764,35.576 C64.874,35.467 65.005,35.413 65.16,35.413 C65.315,35.413 65.446,35.467 65.556,35.576 C65.664,35.685 65.719,35.817 65.719,35.972 Z M64.902,39.278 L64.902,38.741 C64.761,38.769 64.642,38.834 64.546,38.936 C64.449,39.038 64.4,39.152 64.4,39.278 L64.902,39.278 Z M64.422,35.972 C64.422,36.127 64.367,36.259 64.258,36.367 C64.149,36.477 64.018,36.531 63.863,36.531 C63.708,36.531 63.576,36.476 63.467,36.367 C63.358,36.259 63.304,36.127 63.304,35.972 C63.304,35.817 63.358,35.685 63.467,35.576 C63.576,35.467 63.708,35.413 63.863,35.413 C64.017,35.413 64.149,35.467 64.258,35.576 C64.368,35.685 64.422,35.817 64.422,35.972 Z M67.037,41.662 C67.037,41.743 67.027,41.802 67.006,41.836 C66.978,41.893 66.9,41.921 66.774,41.921 L66.014,41.921 L66.014,42.311 C66.014,42.694 65.894,42.987 65.65,43.191 C65.471,43.297 65.293,43.404 65.118,43.513 C65.04,43.566 64.949,43.653 64.844,43.772 C64.774,43.849 64.712,43.888 64.659,43.888 C64.606,43.888 64.545,43.849 64.474,43.772 C64.369,43.652 64.278,43.566 64.2,43.513 C64.024,43.404 63.847,43.297 63.667,43.192 C63.428,42.987 63.309,42.694 63.309,42.311 L63.309,41.921 L62.549,41.921 C62.419,41.921 62.34,41.891 62.312,41.831 C62.298,41.796 62.291,41.74 62.291,41.662 L62.291,41.061 C62.291,40.981 62.3,40.922 62.317,40.887 C62.346,40.831 62.423,40.802 62.549,40.802 L64.427,40.802 L64.427,42.269 C64.427,42.402 64.504,42.469 64.659,42.469 C64.817,42.469 64.896,42.402 64.896,42.269 L64.896,40.396 L63.604,40.396 C63.432,40.396 63.346,40.296 63.346,40.096 L63.346,39.5 C63.346,39.004 63.504,38.593 63.821,38.266 C63.996,38.08 64.213,37.936 64.469,37.833 L65.139,37.591 C65.297,37.521 65.462,37.408 65.635,37.253 C65.785,37.119 65.874,37.053 65.898,37.053 C65.979,37.053 66.02,37.162 66.02,37.38 L66.02,40.802 L66.774,40.802 C66.904,40.802 66.983,40.832 67.011,40.892 C67.029,40.927 67.037,40.984 67.037,41.061 L67.037,41.662 L67.037,41.662 Z" id="Shape"></path>
                <path d="M70.123,42.173 C70.123,42.557 70.001,42.851 69.759,43.054 C69.579,43.16 69.402,43.265 69.226,43.371 C69.142,43.434 69.057,43.522 68.973,43.635 C68.917,43.712 68.863,43.75 68.815,43.75 C68.765,43.75 68.712,43.712 68.657,43.635 C68.576,43.522 68.493,43.435 68.409,43.371 C68.229,43.265 68.052,43.16 67.876,43.054 C67.633,42.851 67.512,42.557 67.512,42.174 L67.512,41.921 L66.774,41.921 C66.644,41.921 66.564,41.891 66.537,41.831 C66.523,41.796 66.516,41.74 66.516,41.662 L66.516,41.061 C66.516,40.981 66.524,40.922 66.542,40.887 C66.57,40.831 66.647,40.803 66.774,40.803 L68.372,40.803 C68.502,40.803 68.581,40.833 68.609,40.893 C68.623,40.927 68.63,40.983 68.63,41.061 L68.63,42.131 C68.63,42.254 68.692,42.316 68.815,42.316 C68.942,42.316 69.005,42.254 69.005,42.132 L69.005,33.899 C69.005,33.579 68.95,33.349 68.841,33.209 C68.778,33.124 68.679,33.064 68.546,33.029 C68.44,32.997 68.388,32.955 68.388,32.902 C68.388,32.867 68.493,32.771 68.704,32.612 C69.003,32.391 69.212,32.226 69.331,32.117 C69.465,31.997 69.616,31.83 69.785,31.616 C69.919,31.45 69.998,31.368 70.022,31.368 C70.089,31.368 70.122,31.499 70.122,31.763 L70.122,42.173 L70.123,42.173 Z M73.018,32.96 C73.018,33.013 72.965,33.055 72.86,33.087 C72.722,33.122 72.623,33.182 72.56,33.267 C72.454,33.407 72.4,33.637 72.4,33.957 L72.4,41.921 L71.283,41.921 L71.283,31.821 C71.283,31.558 71.316,31.426 71.383,31.426 C71.408,31.426 71.485,31.509 71.615,31.674 C71.788,31.888 71.937,32.053 72.063,32.167 C72.19,32.281 72.403,32.449 72.701,32.67 C72.912,32.825 73.018,32.922 73.018,32.96" id="Shape"></path>
                <path d="M62.5,0.364 C28.184,0.364 0.364,28.184 0.364,62.5 C0.364,96.817 28.184,124.636 62.5,124.636 C96.817,124.636 124.636,96.817 124.636,62.5 C124.636,28.184 96.817,0.364 62.5,0.364 M62.5,3.277 C70.497,3.277 78.252,4.842 85.552,7.93 C92.604,10.913 98.938,15.183 104.377,20.623 C109.817,26.063 114.087,32.397 117.071,39.449 C120.158,46.749 121.724,54.504 121.724,62.5 C121.724,70.497 120.158,78.252 117.071,85.552 C114.088,92.604 109.817,98.938 104.377,104.377 C98.937,109.817 92.604,114.087 85.552,117.071 C78.252,120.158 70.497,121.724 62.5,121.724 C54.504,121.724 46.748,120.158 39.449,117.071 C32.397,114.088 26.063,109.817 20.623,104.377 C15.183,98.937 10.913,92.604 7.93,85.552 C4.842,78.252 3.277,70.497 3.277,62.5 C3.277,54.504 4.842,46.748 7.93,39.449 C10.913,32.397 15.183,26.063 20.623,20.623 C26.063,15.183 32.397,10.913 39.449,7.93 C46.749,4.842 54.504,3.277 62.5,3.277" id="Shape"></path>
                <path d="M26.341,98.322 C26.278,98.322 26.216,98.298 26.168,98.249 C25.174,97.239 24.211,96.175 23.303,95.085 C23.073,94.809 22.847,94.531 22.623,94.25 C22.539,94.145 22.557,93.992 22.662,93.909 C22.766,93.826 22.919,93.842 23.002,93.947 C23.224,94.225 23.449,94.501 23.676,94.774 C24.576,95.854 25.53,96.909 26.514,97.909 C26.608,98.004 26.607,98.158 26.512,98.252 C26.464,98.299 26.402,98.322 26.342,98.322 M95.249,101.486 C95.18,101.486 95.112,101.456 95.063,101.4 C94.977,101.298 94.99,101.144 95.093,101.058 C106.463,91.436 112.986,77.382 112.986,62.5 C112.986,34.663 90.338,12.015 62.5,12.015 C34.663,12.015 12.015,34.663 12.015,62.5 C12.015,72.496 14.93,82.158 20.447,90.443 C20.521,90.555 20.491,90.706 20.379,90.78 C20.267,90.854 20.117,90.824 20.043,90.712 C14.473,82.348 11.53,72.592 11.53,62.5 C11.53,34.395 34.395,11.53 62.5,11.53 C90.606,11.53 113.471,34.395 113.471,62.5 C113.471,77.525 106.887,91.714 95.405,101.428 C95.36,101.467 95.305,101.486 95.249,101.486 M62.5,113.471 C49.703,113.471 37.467,108.709 28.045,100.062 C27.946,99.972 27.94,99.818 28.03,99.72 C28.121,99.621 28.275,99.614 28.374,99.705 C37.705,108.269 49.825,112.985 62.5,112.985 C72.572,112.985 82.296,110.029 90.62,104.435 C90.732,104.36 90.882,104.39 90.957,104.501 C91.032,104.613 91.003,104.764 90.891,104.838 C82.486,110.486 72.669,113.471 62.501,113.471" id="Shape"></path>
            </g>
        </g>
    </g>
</svg>