<svg xmlns="http://www.w3.org/2000/svg" width="25" height="24" viewBox="0 0 25 24">
    <g fill="none" fill-rule="evenodd">
        <g fill="#A0A0A0" fill-rule="nonzero">
            <path d="M266 704c-6.615 0-12 5.385-12 12s5.385 12 12 12c2.555 0 4.917-.819 6.854-2.182.451-.317.56-.941.243-1.393-.318-.452-.942-.561-1.394-.243-1.621 1.14-3.574 1.818-5.703 1.818-5.535 0-10-4.465-10-10s4.465-10 10-10c2.13 0 4.082.677 5.703 1.818.292.206.672.24.996.09.325-.151.544-.463.576-.819.031-.356-.13-.702-.421-.907-1.937-1.363-4.3-2.182-6.854-2.182zm7.99 6.99c-.407 0-.773.247-.926.624-.153.377-.063.81.229 1.093l2.293 2.293H265c-.36-.005-.696.184-.878.496-.182.311-.182.697 0 1.008.182.312.517.501.878.496h10.586l-2.293 2.293c-.261.25-.367.623-.275.974.091.35.365.624.715.715.35.092.723-.014.974-.275l3.912-3.912c.248-.19.394-.484.394-.796 0-.313-.147-.607-.396-.796l-3.91-3.91c-.188-.194-.447-.303-.717-.303z" transform="translate(-254 -704) rotate(-180 266.506 716)"/>
        </g>
    </g>
</svg>
