<svg xmlns="http://www.w3.org/2000/svg" width="38" height="38" viewBox="0 0 38 38">
    <g fill="none" fill-rule="evenodd">
        <g fill="#2F4D60" fill-rule="nonzero">
            <g>
                <g>
                    <path d="M34.455 31c-.39 0-.731.28-.834.682l-2.223 8.75c-.241.497-.398 1.07-.398 1.69 0 2.037 1.557 3.707 3.455 3.707v7.415h-.864c-.477 0-.864.415-.864.927v13.902c0 .512.387.927.864.927h32.818c.477 0 .864-.415.864-.927V54.171c0-.512-.387-.927-.864-.927h-.864v-7.415c1.898 0 3.455-1.67 3.455-3.707 0-.62-.157-1.193-.398-1.69l-2.223-8.75c-.103-.403-.444-.682-.834-.682h-31.09zm.66 1.854h29.77L66.956 41c.02.075.047.147.083.215.15.284.235.583.235.907 0 1.035-.763 1.854-1.728 1.854-.964 0-1.727-.82-1.727-1.854h-1.727c0 1.035-.763 1.854-1.727 1.854-.965 0-1.728-.82-1.728-1.854H56.91c0 1.035-.763 1.854-1.727 1.854-.965 0-1.727-.82-1.727-1.854-.007-.507-.392-.914-.864-.914s-.857.407-.864.914c0 1.035-.763 1.854-1.727 1.854-.964 0-1.727-.82-1.727-1.854-.007-.507-.392-.914-.864-.914s-.857.407-.864.914c0 1.035-.762 1.854-1.727 1.854-.964 0-1.727-.82-1.727-1.854-.007-.507-.391-.914-.864-.914-.472 0-.857.407-.863.914 0 1.035-.763 1.854-1.728 1.854-.964 0-1.727-.82-1.727-1.854h-1.727c0 1.035-.763 1.854-1.727 1.854-.965 0-1.728-.82-1.728-1.854 0-.324.084-.623.235-.907.036-.068.063-.14.082-.215l2.07-8.146zm1.93 11.645c.636.796 1.546 1.33 2.591 1.33 1.046 0 1.956-.534 2.591-1.33.636.796 1.545 1.33 2.591 1.33 1.046 0 1.956-.534 2.591-1.33.635.796 1.545 1.33 2.591 1.33 1.046 0 1.956-.534 2.59-1.33.636.796 1.546 1.33 2.592 1.33s1.955-.534 2.59-1.33c.636.796 1.546 1.33 2.592 1.33 1.045 0 1.955-.534 2.59-1.33.246.308.544.559.864.773v7.972H36.182v-7.972c.32-.214.618-.465.863-.773zm-2.59 10.599h31.09v12.048h-31.09V55.098z" transform="translate(-884 -2640) translate(0 2260) translate(853 349)"/>
                </g>
            </g>
        </g>
    </g>
</svg>
