<svg xmlns="http://www.w3.org/2000/svg" width="40" height="35" viewBox="0 0 40 35">
    <g fill="none" fill-rule="evenodd">
        <g fill="#2F4D60" fill-rule="nonzero">
            <g>
                <g>
                    <path d="M568.347 36c-.068 0-.137.006-.205.017l-21.426 3.37c-.563.09-1.069.376-1.417.802l-13.383 16.374c-.129.158-.213.339-.254.527h-.03v6.312c-.336.183-.543.522-.544.889 0 .09.013.18.038.268-.667.353-1.126 1.02-1.126 1.79 0 .368.129.705.291 1.106.162.4.372.833.58 1.238.416.81.83 1.508.83 1.508l.475.799.474-.799s.414-.698.83-1.508c.208-.405.418-.838.58-1.238.162-.4.291-.738.291-1.107 0-.769-.46-1.436-1.127-1.789.026-.087.039-.177.04-.268 0-.367-.208-.707-.544-.89v-4.82c.152.041.31.061.477.035l10.023-1.603c.282 1.436 1.022 4.424 2.847 7.046.084.125.22.21.375.232.155.023.312-.019.433-.114l.908-.498.01-.006c3.548-1.7 9.62-1.963 12.12-1.954.244 0 .459-.151.526-.373 0 0 1.555-5.09 6.423-8.14l1.401-.769c.151-.051.27-.163.326-.305.056-.143.042-.301-.037-.433-1.803-3.115-4.148-5.002-5.366-5.844l6.236-7.785c.16-.196.241-.43.266-.665H570l-.48-.773v-.002c-.245-.396-.697-.634-1.173-.63zm-.027 1.032c.104-.016.204.027.26.118.057.092.05.207-.018.29l-.001.002-13.04 16.277c-.167.209-.412.35-.685.394L533.018 57.6c-.103.016-.203-.026-.26-.118-.057-.092-.049-.207.019-.29l13.384-16.375c.18-.22.442-.37.734-.416l21.425-3.37zm-21.458 5.14c-.3 0-.544.231-.544.515 0 .284.243.514.544.514.3 0 .544-.23.544-.514 0-.284-.244-.514-.544-.514zm-1.632 2.058c-.3 0-.544.23-.544.515 0 .284.244.514.544.514.3 0 .544-.23.544-.514 0-.285-.244-.515-.544-.515zm-1.632 2.058c-.3 0-.544.23-.544.514 0 .284.244.514.544.514.3 0 .544-.23.544-.514 0-.284-.243-.514-.544-.514zm18.931.386c1.066.736 3.129 2.4 4.797 5.088l-1.023.562-.004.002-.003.002-.027.016c-4.738 2.964-6.442 7.478-6.745 8.368-2.706.006-8.384.22-12.19 2.03l-.044.019c-.01.004-.018.01-.027.014l-.007.004-.022.013-.53.29c-1.488-2.326-2.152-4.947-2.41-6.24l10.724-1.715c.546-.088 1.037-.368 1.371-.787l6.14-7.666zm-20.563 1.671c-.3 0-.543.23-.543.515 0 .284.243.514.543.514.3 0 .544-.23.544-.514 0-.284-.243-.515-.544-.515zm-1.631 2.058c-.3 0-.544.23-.544.514 0 .284.243.514.544.514.3 0 .544-.23.544-.514 0-.284-.244-.514-.544-.514zm13.054 1.028c-.3 0-.544.23-.544.515 0 .284.244.514.544.514.3 0 .544-.23.544-.514 0-.284-.244-.515-.544-.515zm-2.72.515c-.3 0-.544.23-.544.514 0 .284.244.515.544.515.3 0 .544-.23.544-.515 0-.284-.243-.514-.544-.514zm-11.966.514c-.3 0-.544.23-.544.515 0 .284.243.514.544.514.3 0 .544-.23.544-.514 0-.284-.244-.515-.544-.515zm9.247 0c-.3 0-.544.23-.544.515 0 .284.243.514.544.514.3 0 .544-.23.544-.514 0-.284-.244-.515-.544-.515zm-2.72.515c-.3 0-.544.23-.544.514 0 .284.244.514.544.514.3 0 .544-.23.544-.514 0-.284-.244-.514-.544-.514zm-2.72.514c-.3 0-.544.23-.544.514 0 .284.244.515.544.515.3 0 .544-.23.544-.515 0-.284-.243-.514-.544-.514zm-2.72.514c-.3 0-.543.23-.543.515 0 .284.243.514.544.514.3 0 .544-.23.544-.514 0-.284-.244-.515-.544-.515zm-2.719.515c-.3 0-.544.23-.544.514 0 .284.244.515.544.515.3 0 .544-.23.544-.515 0-.284-.244-.514-.544-.514zm-4.895 10.802c.607 0 1.088.454 1.088 1.028 0 .058-.075.384-.22.739-.143.355-.341.768-.541 1.156-.163.318-.19.35-.327.594-.137-.245-.164-.276-.327-.594-.2-.388-.398-.801-.542-1.156-.144-.355-.22-.68-.22-.739 0-.574.481-1.028 1.089-1.028z" transform="translate(-700 -1438) translate(170 1315) translate(0 87)"/>
                </g>
            </g>
        </g>
    </g>
</svg>
