<svg xmlns="http://www.w3.org/2000/svg" width="25" height="24" viewBox="0 0 25 24">
    <g fill="none" fill-rule="evenodd">
        <g>
            <g>
                <g>
                    <g>
                        <g>
                            <path fill="#FFF" fill-rule="nonzero" d="M1.112 23.395l1.603-5.855c-.989-1.713-1.509-3.657-1.508-5.648C1.21 5.663 6.279.595 12.508.595c3.024.001 5.86 1.178 7.994 3.313 2.134 2.136 3.309 4.974 3.308 7.993-.003 6.23-5.073 11.298-11.302 11.298h-.004c-1.891 0-3.75-.475-5.401-1.376l-5.991 1.572z" transform="translate(-436 -1124) translate(-452 142) translate(571 745) translate(306 230) translate(11 7)"/>
                            <path fill="#FFF" fill-rule="nonzero" d="M1.112 23.692c-.079 0-.155-.03-.211-.088-.075-.075-.104-.186-.076-.287l1.57-5.736C1.423 15.851.909 13.887.91 11.893.912 5.499 6.115.298 12.508.298c3.102 0 6.015 1.209 8.205 3.4 2.19 2.192 3.395 5.106 3.394 8.203-.002 6.394-5.206 11.595-11.599 11.595-1.898 0-3.776-.469-5.443-1.355l-5.878 1.541c-.024.007-.05.01-.075.01z" transform="translate(-436 -1124) translate(-452 142) translate(571 745) translate(306 230) translate(11 7)"/>
                            <path fill="#CFD8DC" fill-rule="nonzero" d="M12.508.595c3.024.001 5.86 1.178 7.994 3.313 2.134 2.136 3.309 4.974 3.308 7.993-.003 6.23-5.073 11.298-11.302 11.298h-.004c-1.891 0-3.75-.475-5.401-1.376l-5.991 1.572 1.603-5.855c-.989-1.713-1.509-3.657-1.508-5.648C1.21 5.663 6.279.595 12.508.595m0-.595C5.951 0 .614 5.335.611 11.892c0 2.004.506 3.98 1.465 5.728L.538 23.238c-.056.205 0 .425.15.576.114.114.267.176.424.176.05 0 .101-.006.151-.02L7.03 22.46c1.684.874 3.57 1.335 5.475 1.336 6.561 0 11.898-5.335 11.901-11.893.002-3.178-1.235-6.166-3.48-8.414C18.676 1.24 15.688.001 12.507 0z" transform="translate(-436 -1124) translate(-452 142) translate(571 745) translate(306 230) translate(11 7)"/>
                            <path fill="#40C351" fill-rule="nonzero" d="M19.152 5.257c-1.773-1.775-4.131-2.753-6.64-2.753-5.182 0-9.395 4.211-9.398 9.389 0 1.774.496 3.502 1.437 4.997l.223.356-.949 3.465 3.555-.932.344.203c1.441.856 3.095 1.308 4.78 1.31h.004c5.178 0 9.391-4.213 9.393-9.391 0-2.51-.975-4.869-2.749-6.644z" transform="translate(-436 -1124) translate(-452 142) translate(571 745) translate(306 230) translate(11 7)"/>
                            <path fill="#FFF" d="M9.683 7.17c-.211-.47-.434-.48-.635-.488-.165-.008-.353-.007-.541-.007-.189 0-.495.07-.753.354-.26.282-.99.965-.99 2.354 0 1.39 1.013 2.732 1.154 2.92.14.189 1.953 3.13 4.824 4.263 2.385.94 2.87.754 3.388.707.518-.047 1.671-.683 1.906-1.343.235-.66.235-1.224.165-1.342-.07-.118-.259-.188-.54-.33-.283-.141-1.672-.824-1.93-.918-.26-.094-.448-.141-.636.142-.188.282-.73.918-.894 1.106-.165.189-.33.213-.612.07-.282-.14-1.192-.438-2.271-1.4-.84-.748-1.406-1.673-1.571-1.956-.165-.282-.018-.435.124-.576.127-.127.282-.33.424-.494.14-.165.188-.283.282-.471.094-.189.047-.354-.024-.495-.07-.142-.618-1.538-.87-2.096z" transform="translate(-436 -1124) translate(-452 142) translate(571 745) translate(306 230) translate(11 7)"/>
                        </g>
                    </g>
                </g>
            </g>
        </g>
    </g>
</svg>
