<svg xmlns="http://www.w3.org/2000/svg" width="125" height="125" viewBox="0 0 125 125">
    <defs>
        <radialGradient id="2l39n7z51a" cx="50.36%" cy="-77.231%" r="250.024%" fx="50.36%" fy="-77.231%">
            <stop offset="0%" stop-color="#547F9B"/>
            <stop offset="100%" stop-color="#304E60"/>
        </radialGradient>
    </defs>
    <g fill="none" fill-rule="evenodd">
        <g fill="url(#2l39n7z51a)" fill-rule="nonzero" transform="translate(-352 -1683)">
            <g>
                <path d="M270.507 182.122c34.45 0 62.378 27.929 62.378 62.378 0 34.45-27.928 62.378-62.378 62.378-34.449 0-62.378-27.929-62.378-62.378 0-34.45 27.929-62.378 62.378-62.378zm-.005 2.923l-.79.004c-7.68.087-15.274 1.672-22.353 4.668-30.256 12.782-44.42 47.672-31.638 77.927 12.782 30.256 47.671 44.421 77.927 31.64 26.042-11.025 40.719-38.862 35.103-66.578-5.616-27.715-29.972-47.643-58.251-47.66l.002-.001zm-34.261 96.804c17.24 15.81 43.059 17.773 62.49 4.749.111-.066.255-.033.327.074.071.108.047.253-.057.33-8.424 5.666-18.349 8.684-28.501 8.668-12.81.014-25.157-4.791-34.588-13.46-.1-.091-.107-.246-.016-.345.09-.1.245-.107.345-.016zM270.5 193.33c28.214 0 51.17 22.956 51.17 51.17.01 15.063-6.627 29.362-18.136 39.079-.045.038-.1.058-.159.058-.101 0-.192-.064-.226-.16-.035-.095-.007-.202.07-.268 11.4-9.626 17.972-23.79 17.963-38.709 0-27.946-22.736-50.682-50.682-50.682s-50.682 22.736-50.682 50.682c-.016 9.983 2.93 19.745 8.465 28.053.073.109.048.257-.059.334-.054.036-.12.049-.183.036-.064-.013-.12-.05-.156-.104-5.59-8.386-8.567-18.241-8.555-28.319 0-28.214 22.956-51.17 51.17-51.17zm-39.652 82.759c.222.28.449.555.678.83.901 1.085 1.859 2.142 2.848 3.146.07.07.089.175.05.266-.038.09-.127.15-.225.149v-.01c-.065 0-.127-.025-.173-.07-.997-1.015-1.964-2.084-2.875-3.169-.231-.277-.459-.557-.683-.838-.057-.067-.074-.16-.042-.244.031-.083.105-.143.193-.155.088-.013.176.024.23.095zm57.04-19.423c.39-.382 1.014-.382 1.403 0 1.343 1.333 4.479 4.681 4.484 7.018 0 2.863-2.322 5.185-5.185 5.185-2.864 0-5.186-2.322-5.186-5.185 0-2.337 3.136-5.685 4.484-7.018zm.702 1.318c-2.766 2.803-3.758 4.813-3.758 5.7.003 2.073 1.684 3.753 3.758 3.755l-.003-.001.197-.004c1.917-.1 3.455-1.634 3.558-3.55l.005-.2c0-.887-.992-2.897-3.757-5.7zm-14.335-37.85c.994.001 1.856.686 2.083 1.654h7.154c.903-.028 1.75.437 2.209 1.214.46.777.46 1.743 0 2.52-.46.778-1.306 1.243-2.209 1.215h-7.154c-.219.933-1.03 1.608-1.988 1.652v2.705h2.363c1.54 0 2.907.987 3.392 2.448h6.214c3.93.006 7.114 3.19 7.12 7.12v3.799c0 .394-.32.714-.714.714-.395 0-.714-.32-.714-.714v-3.799c-.004-3.142-2.55-5.688-5.692-5.692h-6.033v6.855h3.138c.958 0 1.734.777 1.735 1.734v6.353h6.852v-2.123c0-.394.32-.713.714-.713.394 0 .714.32.714.713v2.125c.788.007 1.425.65 1.425 1.44v1.404c-.001.795-.645 1.439-1.44 1.44h-9.686c-.794-.001-1.437-.646-1.437-1.44v-1.404c0-.79.637-1.433 1.428-1.44v-6.355c0-.17-.138-.308-.307-.309h-3.32c-.483 1.462-1.849 2.45-3.389 2.451h-5.036c-.394 0-.714-.32-.714-.714 0-.394.32-.714.714-.714h5.036c1.056-.001 1.954-.77 2.118-1.812l.009-.09c.089-1.12.097-7.103-.01-8.025l-.03-.162c-.227-.96-1.086-1.65-2.087-1.65h-9.578c-1.056 0-1.954.77-2.117 1.812l-.002.032c-.025.592.03 7.954.002 8.083l.031.162c.227.96 1.086 1.65 2.086 1.65h1.206c.394 0 .714.32.714.714 0 .395-.32.714-.714.714h-1.206c-1.54 0-2.906-.989-3.39-2.451h-5.36c-.303.855-1.112 1.426-2.019 1.426s-1.716-.571-2.019-1.426h-7.5c-.264.015-.515-.117-.652-.344-.137-.227-.137-.51 0-.738.137-.227.388-.359.652-.343h7.376v-6.855h-7.376c-.394 0-.713-.32-.713-.714 0-.394.32-.714.713-.714h7.505c.303-.855 1.112-1.426 2.02-1.426.906 0 1.715.571 2.018 1.426h5.36c.485-1.46 1.85-2.447 3.39-2.448h2.366v-2.705c-.958-.044-1.77-.719-1.988-1.652h-7.154c-.903.028-1.75-.437-2.209-1.214-.46-.778-.46-1.744 0-2.52.46-.778 1.306-1.243 2.209-1.215h7.154c.226-.968 1.089-1.653 2.083-1.654zm19.171 31.23h-9.685v1.404h9.693l-.008-1.404zM256.36 233.54c-.394 0-.714.32-.714.714v8.284c0 .395.32.714.714.714.394 0 .714-.32.714-.714v-8.284c0-.394-.32-.714-.714-.714zm7.21 1.43h-5.063v6.855h5.058l.005-6.855zm9.347-6.579h-1.988v2.712h1.988v-2.712zm1.333-6.83h-4.654c-.394 0-.714.32-.714.714v3.984c0 .19.075.371.21.505.133.134.315.21.504.21l4.654-.01c.394 0 .714-.32.714-.714v-3.975c0-.394-.32-.714-.714-.714zm9.242 1.655h-7.098v2.093h7.098c.386.019.751-.177.95-.508.198-.332.198-.745 0-1.077-.199-.331-.564-.527-.95-.508zm-16.038 0h-7.09c-.386-.019-.751.177-.95.508-.198.332-.198.745 0 1.077.199.331.564.527.95.508h7.09v-2.093z" transform="translate(144 1501)"/>
            </g>
        </g>
    </g>
</svg>
