<?xml version="1.0" encoding="UTF-8"?>
<svg width="1399px" height="690px" viewBox="0 0 1399 690" version="1.1" xmlns="http://www.w3.org/2000/svg" xmlns:xlink="http://www.w3.org/1999/xlink">
    <title>logo-kshw-element</title>
    <defs>
        <rect id="path-1" x="0" y="0" width="1399" height="690"></rect>
    </defs>
    <g id="Page-1" stroke="none" stroke-width="1" fill="none" fill-rule="evenodd">
        <g id="Desktop-HD" transform="translate(-2.000000, -168.000000)">
            <g id="logo-kshw-element" transform="translate(2.000000, 168.000000)">
                <mask id="mask-2" fill="white">
                    <use xlink:href="#path-1"></use>
                </mask>
                <g id="Mask"></g>
                <g mask="url(#mask-2)" id="Group" opacity="0.599">
                    <g transform="translate(-446.000000, -1.000000)" fill-rule="nonzero">
                        <g>
                            <path d="M1078.9695,94.0745 L1078.5435,94.3815 L1078.2605,94.5935 C1027.9305,132.1275 967.2565,213.9225 923.5645,303.0835 C888.3265,375.0105 883.6025,453.9025 883.6025,528.4505 C883.6025,550.4985 884.0755,573.0425 884.5475,594.8545 C885.0195,616.6665 885.5155,639.1395 885.5155,661.1405 C885.5155,711.9885 883.3195,771.6645 867.1175,828.8625 C850.5855,887.2875 821.4415,935.4205 778.0555,976.0465 L777.7715,976.0465 L774.4415,979.1625 L775.0555,980.1545 L779.3065,978.5245 L779.5195,978.3125 C801.9495,969.3555 823.6425,958.6525 844.3975,946.3025 C891.6325,918.1405 925.5475,887.0755 945.2925,853.9325 C1015.2015,736.6095 1024.1755,628.2575 1024.1525,547.0525 C1024.1525,510.9345 1022.2155,475.2185 1020.3265,440.6825 C1018.4365,406.1475 1016.6415,373.6885 1016.6415,340.8525 C1016.6415,268.7595 1024.2465,183.3995 1080.4095,96.7655 L1080.5985,96.4585 L1080.8815,96.0335 L1083.9755,90.6275 L1078.9685,94.0745 L1078.9695,94.0745 Z M1013.6655,340.7585 C1013.6655,373.8065 1015.4375,406.2885 1017.3265,440.8015 C1019.2165,475.3135 1021.1765,510.9585 1021.1765,547.0285 C1021.1765,627.9505 1012.2485,735.8785 942.7185,852.4685 C918.4385,893.2125 875.0295,924.6325 842.8625,943.8245 C828.0905,952.5955 812.8765,960.6015 797.2805,967.8085 C793.2175,969.6965 789.2265,971.4435 785.4705,973.0485 C826.2595,933.1785 853.9625,886.2015 869.9045,829.7355 C886.1775,772.1365 888.3265,712.2005 888.3265,661.1405 C888.3265,639.0925 887.8545,616.5485 887.3815,594.7365 C886.9095,572.9245 886.4135,550.4515 886.4135,528.4505 C886.4135,454.2805 891.1365,375.7905 926.2095,304.4045 C967.7995,219.4225 1024.8375,141.2865 1073.4655,102.0535 C1020.8925,186.8935 1013.6655,270.1755 1013.6655,340.7585 L1013.6655,340.7585 Z" id="Shape" fill="#C4D0E8" transform="translate(929.208500, 535.391000) rotate(-90.000000) translate(-929.208500, -535.391000) "></path>
                            <path d="M629.401301,38.0163011 L629.401301,37.6863011 L629.283301,37.6863011 L629.141301,37.1903011 L627.819301,37.6153011 L626.425301,37.6153011 L626.425301,38.1353011 L626.307301,38.1353011 L626.307301,38.4413011 C623.780301,101.092301 607.413301,157.652301 574.348301,216.384301 C547.282301,264.801301 512.942301,308.094301 476.571301,353.914301 C454.913301,381.226301 432.501301,409.459301 411.504301,439.179301 C364.717301,505.276301 309.641301,598.758301 298.918301,734.658301 C298.564301,739.096301 298.398301,743.723301 298.398301,748.397301 C298.398301,785.341301 309.168301,827.525301 330.377301,873.793301 C339.597301,893.986301 350.277301,913.481301 362.332301,932.123301 L362.332301,932.407301 L364.882301,936.207301 L365.945301,935.759301 L365.048301,931.345301 L365.308301,931.203301 L364.953301,930.849301 C360.566301,909.694301 358.335301,888.149301 358.293301,866.546301 C358.293301,757.509301 417.550301,667.971301 483.467301,578.268301 C488.427301,571.548301 493.394301,564.836301 498.370301,558.131301 C557.721301,478.012301 619.080301,395.249301 634.904301,297.567301 C641.772301,255.270301 645.287301,212.496301 645.414301,169.645301 C645.674301,117.051301 639.887301,70.3353011 629.401301,38.0173011 L629.401301,38.0163011 Z M302.036301,734.776301 C307.526301,661.086301 328.173301,589.321301 362.686301,523.972301 C393.011301,466.042301 431.319301,416.045301 471.210301,365.670301 L479.121301,355.708301 C515.541301,309.818301 549.975301,266.477301 577.135301,217.824301 C608.759301,161.170301 625.339301,106.710301 628.952301,46.8693011 C637.832301,78.4073011 642.698301,121.535301 642.698301,169.621301 C642.563301,212.321301 639.065301,254.943301 632.235301,297.094301 C616.530301,393.879301 555.241301,476.689301 495.985301,556.761301 L481.342301,576.591301 C450.332301,618.704301 418.070301,663.933301 393.956301,712.751301 C368.166301,765.463301 355.459301,815.791301 355.459301,866.521301 C355.489301,885.834301 357.269301,905.104301 360.773301,924.096301 C349.337301,905.409301 339.183301,885.968301 330.377301,865.907301 C311.317301,822.567301 301.634301,783.027301 301.634301,748.372301 C301.540301,743.792301 301.729301,739.237301 302.036301,734.775301 L302.036301,734.776301 Z" id="Shape" fill="#C4D0E8" transform="translate(471.910500, 486.698801) rotate(-90.000000) translate(-471.910500, -486.698801) "></path>
                            <path d="M605.840034,-203.786966 C592.000034,74.2230336 301.407034,153.728034 271.530034,489.407034 C263.335034,581.471034 332.677034,686.825034 332.677034,686.825034 C281.143034,423.593034 569.421034,285.072034 609.027034,55.3380336 C626.955034,-48.5299664 623.341034,-148.264966 605.841034,-203.786966" id="Path" fill="#3E78B8" transform="translate(445.849000, 241.519034) rotate(-90.000000) translate(-445.849000, -241.519034) "></path>
                            <path d="M983.148702,-205.256298 C973.323702,-147.869298 983.148702,-48.5582985 1015.0327,52.0507015 C1085.3657,274.208702 1389.6567,372.598702 1374.2587,640.268702 C1374.2587,640.268702 1428.7207,526.510702 1408.1497,436.405702 C1333.1397,107.855702 1034.4457,68.1507015 983.029702,-205.256298" id="Path" fill="#2E5B8D" transform="translate(1196.146500, 217.506202) rotate(-90.000000) translate(-1196.146500, -217.506202) "></path>
                            <path d="M1597.83645,475.435447 C1570.98345,302.828447 1479.98445,204.390447 1391.98445,109.187447 C1310.88145,21.4904468 1234.28945,-61.3675532 1218.91445,-194.364553 L1218.29945,-199.534553 L1217.14245,-199.534553 L1215.89045,-194.411553 C1200.96445,-133.436553 1206.44345,-31.5295532 1229.66045,65.0904468 C1252.78145,161.238447 1320.30545,239.304447 1385.53745,314.796447 C1474.36345,417.506447 1566.23745,523.734447 1546.58745,676.607447 L1545.99645,681.328447 L1547.08245,681.706447 L1549.44445,677.528447 C1550.15245,676.253447 1611.96045,566.272447 1597.83745,475.436447 L1597.83645,475.435447 Z M1387.92245,312.553447 C1322.87945,237.344447 1255.66245,159.562447 1232.63545,64.1464468 C1210.69545,-26.9255532 1204.64845,-124.253553 1216.97745,-185.346553 C1234.73745,-56.4105532 1310.05445,25.0314468 1389.71745,111.217447 C1477.43345,206.067447 1568.10245,304.150447 1594.79045,475.837447 C1606.74045,552.651447 1563.00045,644.692447 1550.64845,668.699447 C1566.28345,518.871447 1475.61545,414.036447 1387.92245,312.719447 L1387.92245,312.553447 L1387.92245,312.553447 Z" id="Shape" fill="#C4D0E8" transform="translate(1403.750500, 241.085947) rotate(-90.000000) translate(-1403.750500, -241.085947) "></path>
                        </g>
                    </g>
                </g>
            </g>
        </g>
    </g>
</svg>